<svg width="448" height="448" xmlns="http://www.w3.org/2000/svg" xmlns:xlink="http://www.w3.org/1999/xlink"><defs><path id="a" d="M0 0h640v680H0z"/><circle id="c" cx="605" cy="991" r="224"/></defs><g transform="translate(-96 -224)" fill="none" fill-rule="evenodd"><mask id="b" fill="#fff"><use xlink:href="#a"/></mask><g mask="url(#b)"><g transform="translate(-285 -543)"><mask id="d" fill="#fff"><use xlink:href="#c"/></mask><use fill="#B6D8F0" xlink:href="#c"/><g mask="url(#d)"><path fill="#FFF" opacity=".25" d="M215 991h662v364H215z"/><path fill="#48A8EF" opacity=".25" d="M285 687h647v272H285z"/><path fill="#7EBFEF" d="M285 0h647v927H285z"/><path fill="#DAEBF7" d="M285 1023h662v285H285z"/><path fill="#ECF5FB" d="M285 1055h662v202H285z"/><g fill="#FFF"><path d="M384 1023c4.942-13.982 18.277-24 33.952-24 15.674 0 29.009 10.018 33.951 24H384zm65-96c3.295-9.322 12.185-16 22.634-16 10.45 0 19.34 6.678 22.635 16H449zm160 64c4.942-13.982 18.277-24 33.952-24 15.674 0 29.009 10.018 33.951 24H609z"/><path d="M268 1023c9.884-27.965 36.554-48 67.903-48 31.35 0 58.02 20.035 67.903 48H268z"/></g><path d="M830 783c13.179-37.286 48.738-64 90.537-64 41.8 0 77.36 26.714 90.538 64H830z" fill="#34A362"/><path d="M829.995 783.004c-17.047-35.684-10.792-79.718 18.765-109.274 29.556-29.557 73.59-35.812 109.274-18.765l-128.04 128.04z" fill="#31825C"/><path d="M830 601.92c-37.286 13.179-64 48.738-64 90.537 0 41.8 26.714 77.36 64 90.538V601.92z" fill="#34A362"/><path d="M701.975 911.054c-17.047-35.684-10.792-79.718 18.765-109.274 29.556-29.557 73.59-35.812 109.274-18.765l-128.04 128.04z" fill="#34A362"/><path d="M830 783c-37.286 13.179-64 48.738-64 90.537 0 41.8 26.714 77.36 64 90.538V783zm-181.08 0c13.179-37.286 48.738-64 90.537-64 41.8 0 77.36 26.714 90.538 64H648.92z" fill="#31825C"/><g transform="translate(0 988)"><path d="M849.997 91.002c-8.523-17.842-5.395-39.859 9.383-54.637 14.778-14.778 36.795-17.906 54.637-9.383l-64.02 64.02z" fill="#B64C4C"/><path d="M850 91c6.59-18.643 24.37-32 45.269-32 20.9 0 38.679 13.357 45.268 32H850z" fill="#34A362"/><path d="M849.997 91.002c-8.523-17.842-5.395-39.859 9.383-54.637 14.778-14.778 36.795-17.906 54.637-9.383l-64.02 64.02z" fill="#31825C"/><path d="M850 .46c-18.643 6.59-32 24.37-32 45.269 0 20.9 13.357 38.679 32 45.268V.46z" fill="#34A362"/><path d="M785.987 155.027c-8.523-17.842-5.395-39.859 9.383-54.637 14.778-14.778 36.795-17.906 54.637-9.383l-64.02 64.02z" fill="#34A362"/><path d="M850 91c-18.643 6.59-32 24.37-32 45.269 0 20.9 13.357 38.679 32 45.268V91zm-90.54 0c6.59-18.643 24.37-32 45.269-32 20.9 0 38.68 13.357 45.268 32H759.46z" fill="#31825C"/><path d="M742.997 211.002c-8.523-17.842-5.395-39.859 9.383-54.637 14.778-14.778 36.795-17.906 54.637-9.383l-64.02 64.02z" fill="#B64C4C"/><path d="M743 211c6.59-18.643 24.37-32 45.269-32 20.9 0 38.679 13.357 45.268 32H743z" fill="#34A362"/><path d="M742.997 211.002c-8.523-17.842-5.395-39.859 9.383-54.637 14.778-14.778 36.795-17.906 54.637-9.383l-64.02 64.02z" fill="#31825C"/><path d="M743 120.46c-18.643 6.59-32 24.37-32 45.269 0 20.9 13.357 38.679 32 45.268V120.46z" fill="#34A362"/><path d="M678.987 275.027c-8.523-17.842-5.395-39.859 9.383-54.637 14.778-14.778 36.795-17.906 54.637-9.383l-64.02 64.02z" fill="#34A362"/><path d="M743 211c-18.643 6.59-32 24.37-32 45.269 0 20.9 13.357 38.679 32 45.268V211zm-90.54 0c6.59-18.643 24.37-32 45.269-32 20.9 0 38.68 13.357 45.268 32H652.46z" fill="#31825C"/><path d="M320.003 99.002c8.523-17.842 5.395-39.859-9.383-54.637-14.778-14.778-36.795-17.906-54.637-9.383l64.02 64.02z" fill="#B64C4C"/><path d="M320 99c-6.59-18.643-24.37-32-45.269-32-20.9 0-38.679 13.357-45.268 32H320z" fill="#34A362"/><path d="M320.003 99.002c8.523-17.842 5.395-39.859-9.383-54.637-14.778-14.778-36.795-17.906-54.637-9.383l64.02 64.02z" fill="#31825C"/><path d="M320 8.46c18.643 6.59 32 24.37 32 45.269 0 20.9-13.357 38.679-32 45.268V8.46z" fill="#34A362"/><path d="M384.013 163.027c8.523-17.842 5.395-39.859-9.383-54.637-14.778-14.778-36.795-17.906-54.637-9.383l64.02 64.02z" fill="#34A362"/><path d="M320 99c18.643 6.59 32 24.37 32 45.269 0 20.9-13.357 38.679-32 45.268V99zm90.54 0c-6.59-18.643-24.37-32-45.269-32-20.9 0-38.68 13.357-45.268 32h90.537z" fill="#31825C"/><g transform="translate(253 94)"><rect fill="#34A362" transform="rotate(90 140 52)" x="101" y="48" width="78" height="8" rx="4"/><rect fill="#34A362" transform="rotate(90 156 60)" x="117" y="56" width="78" height="8" rx="4"/><path d="M144 16v66h8V20v18a4 4 0 1 1-8 0V16zM128 0v66h8V4v18a4 4 0 1 1-8 0V0z" fill="#34A362"/><rect fill="#34A362" transform="rotate(90 172 60)" x="133" y="56" width="78" height="8" rx="4"/><path d="M160 8v66h8V12v18a4 4 0 1 1-8 0V8z" fill="#34A362"/><rect fill="#34A362" transform="rotate(90 188 52)" x="149" y="48" width="78" height="8" rx="4"/><rect fill="#34A362" transform="rotate(90 204 60)" x="165" y="56" width="78" height="8" rx="4"/><path d="M192 16v106h8V20v18a4 4 0 1 1-8 0V16zm-16-8v106h8V12v18a4 4 0 1 1-8 0V8z" fill="#34A362"/><rect fill="#34A362" transform="rotate(90 220 84)" x="181" y="80" width="78" height="8" rx="4"/><path d="M208 24v66h8V28v18a4 4 0 1 1-8 0V24z" fill="#34A362"/><path fill="#31825C" d="M0 5h104v192H0z"/></g><g transform="translate(461 134)" fill="#34A362"><rect transform="rotate(90 12 52)" x="-27" y="48" width="78" height="8" rx="4"/><rect transform="rotate(90 28 60)" x="-11" y="56" width="78" height="8" rx="4"/><path d="M16 16v66h8V20v18a4 4 0 1 1-8 0V16zM0 0v66h8V4v18a4 4 0 1 1-8 0V0z"/><rect transform="rotate(90 44 60)" x="5" y="56" width="78" height="8" rx="4"/><path d="M32 8v66h8V12v18a4 4 0 1 1-8 0V8z"/><rect transform="rotate(90 60 52)" x="21" y="48" width="78" height="8" rx="4"/><rect transform="rotate(90 76 60)" x="37" y="56" width="78" height="8" rx="4"/><path d="M64 16v116h8V20v18a4 4 0 1 1-8 0V16zM48 8v86h8V12v18a4 4 0 1 1-8 0V8z"/><rect transform="rotate(90 92 84)" x="53" y="80" width="78" height="8" rx="4"/><path d="M80 24v96h8V28v18a4 4 0 1 1-8 0V24z"/></g><g transform="translate(557 182)" fill="#34A362"><rect transform="rotate(90 12 52)" x="-27" y="48" width="78" height="8" rx="4"/><rect transform="rotate(90 28 60)" x="-11" y="56" width="78" height="8" rx="4"/><path d="M16 16v66h8V20v18a4 4 0 1 1-8 0V16zM0 0v66h8V4v18a4 4 0 1 1-8 0V0z"/><rect transform="rotate(90 44 60)" x="5" y="56" width="78" height="8" rx="4"/><path d="M32 8v66h8V12v18a4 4 0 1 1-8 0V8z"/><rect transform="rotate(90 60 52)" x="21" y="48" width="78" height="8" rx="4"/><rect transform="rotate(90 76 60)" x="37" y="56" width="78" height="8" rx="4"/><path d="M64 16v116h8V20v18a4 4 0 1 1-8 0V16zM48 8v86h8V12v18a4 4 0 1 1-8 0V8z"/><rect transform="rotate(90 92 84)" x="53" y="80" width="78" height="8" rx="4"/><path d="M80 24v96h8V28v18a4 4 0 1 1-8 0V24z"/></g><path d="M628.997 233.002c-8.523-17.842-5.395-39.859 9.383-54.637 14.778-14.778 36.795-17.906 54.637-9.383l-64.02 64.02z" fill="#B64C4C"/><path d="M629 233c6.59-18.643 24.37-32 45.269-32 20.9 0 38.679 13.357 45.268 32H629z" fill="#34A362"/><path d="M628.997 233.002c-8.523-17.842-5.395-39.859 9.383-54.637 14.778-14.778 36.795-17.906 54.637-9.383l-64.02 64.02z" fill="#34A362"/><path d="M629 142.46c-18.643 6.59-32 24.37-32 45.269 0 20.9 13.357 38.679 32 45.268V142.46z" fill="#34A362"/><path d="M564.987 297.027c-8.523-17.842-5.395-39.859 9.383-54.637 14.778-14.778 36.795-17.906 54.637-9.383l-64.02 64.02z" fill="#34A362"/><path d="M629 233c-18.643 6.59-32 24.37-32 45.269 0 20.9 13.357 38.679 32 45.268V233zm-90.54 0c6.59-18.643 24.37-32 45.269-32 20.9 0 38.68 13.357 45.268 32H538.46z" fill="#34A362"/><g transform="translate(336 106)"><circle fill="#F15F55" cx="12" cy="12" r="12"/><circle fill="#FF8A62" cx="12" cy="12" r="4"/></g><g transform="translate(70 26)"><circle fill="#F15F55" cx="12" cy="12" r="12"/><circle fill="#FF8A62" cx="12" cy="12" r="4"/></g><circle fill="#F15F55" cx="356" cy="134" r="4"/><circle fill="#F15F55" cx="436" cy="127" r="4"/><circle fill="#34A362" cx="420" cy="103" r="4"/><circle fill="#48A8EF" cx="372" cy="127" r="4"/><circle fill="#FFF" cx="388" cy="135" r="4"/><circle fill="#FFC552" cx="380" cy="87" r="4"/><circle fill="#F15F55" cx="52" cy="95" r="4"/><circle fill="#FFC552" cx="68" cy="103" r="4"/><circle fill="#48A8EF" cx="76" cy="87" r="4"/><circle fill="#F15F55" cx="68" cy="55" r="4"/><circle fill="#F15F55" cx="4" cy="127" r="4"/><circle fill="#FFC552" cx="20" cy="103" r="4"/><circle fill="#FFF" cx="36" cy="119" r="4"/><circle fill="#F15F55" cx="871" cy="116" r="4"/><circle fill="#34A362" cx="855" cy="92" r="4"/><circle fill="#FFF" cx="823" cy="124" r="4"/><g transform="translate(773 75)"><g transform="translate(0 16)"><circle fill="#F15F55" cx="12" cy="12" r="12"/><circle fill="#FF8A62" cx="12" cy="12" r="4"/></g><circle fill="#F15F55" cx="21" cy="52" r="4"/><circle fill="#48A8EF" cx="36" cy="36" r="4"/><circle fill="#FFC552" cx="36" cy="4" r="4"/></g><g transform="translate(637 171)"><g transform="translate(0 16)"><circle fill="#F15F55" cx="12" cy="12" r="12"/><circle fill="#FF8A62" cx="12" cy="12" r="4"/></g><circle fill="#F15F55" cx="21" cy="52" r="4"/><circle fill="#48A8EF" cx="36" cy="36" r="4"/><circle fill="#FFC552" cx="36" cy="4" r="4"/></g><circle fill="#F15F55" cx="439" cy="116" r="4"/></g></g></g></g></g></svg>