<?xml version="1.0" encoding="UTF-8" standalone="no"?>
<svg width="640px" height="384px" viewBox="0 0 640 384" version="1.1" xmlns="http://www.w3.org/2000/svg" xmlns:xlink="http://www.w3.org/1999/xlink">
    <!-- Generator: Sketch 47.1 (45422) - http://www.bohemiancoding.com/sketch -->
    <title>capitan+shipboy</title>
    <desc>Created with Sketch.</desc>
    <defs>
        <rect id="path-1" x="0" y="0" width="640" height="384"></rect>
        <path d="M8,0 L40,0 C44.418278,-8.11624501e-16 48,3.581722 48,8 L48,16 C48,20.418278 44.418278,24 40,24 L8,24 C3.581722,24 5.41083001e-16,20.418278 0,16 L0,8 C-5.41083001e-16,3.581722 3.581722,8.11624501e-16 8,0 Z" id="path-2"></path>
    </defs>
    <g id="Symbols" stroke="none" stroke-width="1" fill="none" fill-rule="evenodd">
        <g id="capitan+shipboy">
            <g>
                <g id="size" opacity="0">
                    <use fill="#D8D8D8" fill-rule="evenodd" xlink:href="#path-1"></use>
                    <rect stroke="#979797" stroke-width="1" x="0.5" y="0.5" width="639" height="383"></rect>
                </g>
                <g id="shadow" transform="translate(136.000000, 368.000000)" fill="#D5E9F6">
                    <g id="Group-50">
                        <rect id="Rectangle-23" x="0" y="0" width="344" height="8" rx="4"></rect>
                    </g>
                </g>
                <g id="capitan" transform="translate(425.000000, 190.000000) scale(-1, 1) translate(-425.000000, -190.000000) translate(301.000000, 4.000000)">
                    <g id="Group-10" transform="translate(108.000000, 0.000000)">
                        <g id="Group-10-Copy" transform="translate(16.200000, 0.800000)">
                            <path d="M15.8,83.2 C20.218278,83.2 23.8,86.781722 23.8,91.2 L23.8,111.2 C23.8,115.618278 20.218278,119.2 15.8,119.2 C11.381722,119.2 7.8,115.618278 7.8,111.2 L7.8,91.2 C7.8,86.781722 11.381722,83.2 15.8,83.2 Z" id="Rectangle-2-Copy-3" fill="#A1674F"></path>
                            <polygon id="Combined-Shape" fill="#844840" points="73.041668 55.2 87.8 55.2 87.8 116.2 39.8 116.2 39.8 85.5888542 41.2264069 87.0152611"></polygon>
                            <path d="M15.4751374,46.5572185 C11.6100704,51.2708815 11.8780213,58.2397785 16.2789902,62.6407473 C18.5614211,64.9231783 21.5954836,66.1542426 24.7595964,66.1554651 C26.9687353,66.1563186 28.7589042,67.9478714 28.7580507,70.1570102 C28.7571972,72.366149 26.9656444,74.156318 24.7565056,74.1554645 C19.4927486,74.1534308 14.4195092,72.0949748 10.6221359,68.2976016 C3.29059203,60.9660577 2.84101899,49.3586053 9.27341683,41.5026607 C8.1084671,43.0687938 8.23661628,45.2934705 9.65786438,46.7147186 C11.2199615,48.2768158 13.7526215,48.2768158 15.3147186,46.7147186 C15.3677878,46.6616494 15.4212634,46.6091486 15.4751374,46.5572185 L15.4751374,46.5572185 Z" id="Combined-Shape" fill="#844840" fill-rule="nonzero"></path>
                            <path d="M39.5978451,93.4050436 C39.7305999,92.6902686 39.8,91.9532389 39.8,91.2 L39.8,83.2 C39.8,76.572583 34.427417,71.2 27.8,71.2 C21.172583,71.2 15.8,76.572583 15.8,83.2 L15.8,91.2 C15.8,96.4248753 19.1392305,100.869832 23.8,102.517177 L23.8,95.2 C23.8,90.781722 27.381722,87.2 31.8,87.2 C35.6011446,87.2 38.7831081,89.8510296 39.5978451,93.4050436 L39.5978451,93.4050436 Z" id="Combined-Shape" fill="#844840"></path>
                            <polygon id="Rectangle-7" fill="#844840" points="23.8 71.2 27.8 71.2 27.8 76.8 23.8 76.8"></polygon>
                            <path d="M79.8,84 C84.218278,84 87.8,87.581722 87.8,92 L87.8,110.4 C87.8,114.818278 84.218278,118.4 79.8,118.4 C75.381722,118.4 71.8,114.818278 71.8,110.4 L71.8,92 C71.8,87.581722 75.381722,84 79.8,84 Z" id="Rectangle-2-Copy" fill="#A1674F"></path>
                            <g id="Group-5" transform="translate(36.600000, 94.800000)">
                                <path d="M7.09332419,4.76982075 C10.8805276,2.49423935 15.7953858,3.71965113 18.0709672,7.50685455 L34.1401551,34.2504743 C36.4157365,38.0376778 35.1903248,42.9525359 31.4031213,45.2281173 C27.6159179,47.5036987 22.7010597,46.278287 20.4254783,42.4910835 L4.35629039,15.7474638 C2.08070899,11.9602603 3.30612077,7.04540214 7.09332419,4.76982075 Z" id="Rectangle-2-Copy" fill="#844840"></path>
                                <path d="M27.2,31.6 C31.618278,31.6 35.2,35.181722 35.2,39.6 L35.2,48.4 C35.2,52.818278 31.618278,56.4 27.2,56.4 C22.781722,56.4 19.2,52.818278 19.2,48.4 L19.2,39.6 C19.2,35.181722 22.781722,31.6 27.2,31.6 Z" id="Rectangle-2-Copy" fill="#A1674F"></path>
                            </g>
                            <path d="M23.8,71.2 C28.218278,71.2 31.8,74.781722 31.8,79.2 L31.8,95.2 C31.8,99.618278 28.218278,103.2 23.8,103.2 C19.381722,103.2 15.8,99.618278 15.8,95.2 L15.8,79.2 C15.8,74.781722 19.381722,71.2 23.8,71.2 Z" id="Rectangle-2-Copy-3" fill="#844840"></path>
                            <g id="head" transform="translate(68.600000, 51.200000)">
                                <g id="Group-4">
                                    <circle id="Oval-2" fill="#844840" cx="14.4" cy="14.4" r="14.4"></circle>
                                    <path d="M9.6,0.819387397 C15.1929234,2.79620216 19.2,8.13014963 19.2,14.4 C19.2,20.6698504 15.1929234,26.0037978 9.6,27.9806126 C4.00707661,26.0037978 0,20.6698504 0,14.4 C0,8.13014963 4.00707661,2.79620216 9.6,0.819387397 L9.6,0.819387397 Z" id="Combined-Shape" fill="#A1674F"></path>
                                </g>
                                <g id="Group-8" transform="translate(9.600000, 9.600000)">
                                    <g id="Group-9">
                                        <path d="M8.8,0 L3.2,0 C2.79052429,2.22044605e-16 2.38104858,0.0781048584 1.99583694,0.234314575 C0.80588745,0.7372583 -1.623249e-16,1.8745166 0,3.2 C5.41083001e-17,3.6418278 0.08954305,4.0627417 0.251471863,4.44558441 C0.390524292,4.7893747 0.624838867,5.15032227 0.9372583,5.4627417 L4.89705627,9.42253967 L8.8,5.51959595 L8.8,0 Z" id="Combined-Shape" fill="#FFC552"></path>
                                        <path d="M8.8,0 L14.4,0 C14.8094757,2.22044605e-16 15.2189514,0.0781048584 15.6041631,0.234314575 C16.7941125,0.7372583 17.6,1.8745166 17.6,3.2 C17.6,3.6418278 17.5104569,4.0627417 17.3485281,4.44558441 C17.2094757,4.7893747 16.9751611,5.15032227 16.6627417,5.4627417 L12.7029437,9.42253967 L8.8,5.51959595 L8.8,0 Z" id="Combined-Shape" fill="#F09F2E"></path>
                                        <path d="M8.8,3.2 C5.7072054,3.2 3.2,5.7072054 3.2,8.8 L3.2,9.6 C3.2,12.6927946 5.7072054,15.2 8.8,15.2 C11.8927946,15.2 14.4,12.6927946 14.4,9.6 L14.4,8.8 C14.4,5.7072054 11.8927946,3.2 8.8,3.2 Z" id="Combined-Shape" fill="#FFC552"></path>
                                    </g>
                                </g>
                                <g id="Group-6" transform="translate(1.600000, 9.600000)" fill="#FFC552">
                                    <path d="M3.2,6.4 C1.4326888,6.4 0,4.9673112 0,3.2 C0,1.4326888 1.4326888,0 3.2,0 C3.6418278,-8.11624501e-17 4,0.3581722 4,0.8 L4,5.6 C4,6.0418278 3.6418278,6.4 3.2,6.4 Z" id="Combined-Shape"></path>
                                </g>
                                <path d="M27.2,9.6 C28.9673112,9.6 30.4,11.0326888 30.4,12.8 C30.4,14.5673112 28.9673112,16 27.2,16 L27.2,9.6 Z" id="Combined-Shape" fill="#844840"></path>
                            </g>
                        </g>
                    </g>
                    <path d="M125.675137,75.3572185 C121.81007,80.0708815 122.078021,87.0397785 126.47899,91.4407473 C128.761421,93.7231783 131.795484,94.9542426 134.959596,94.9554651 C137.168735,94.9563186 138.958904,96.7478714 138.958051,98.9570102 C138.957197,101.166149 137.165644,102.956318 134.956506,102.955464 C129.692749,102.953431 124.619509,100.894975 120.822136,97.0976016 C113.490592,89.7660577 113.041019,78.1586053 119.473417,70.3026607 C118.308467,71.8687938 118.436616,74.0934705 119.857864,75.5147186 C121.419962,77.0768158 123.952621,77.0768158 125.514719,75.5147186 C125.567788,75.4616494 125.621263,75.4091486 125.675137,75.3572185 L125.675137,75.3572185 Z" id="Combined-Shape" fill="#844840" fill-rule="nonzero"></path>
                    <path d="M134,72 C130.834272,72 127.7983,73.2311369 125.514719,75.5147186 C123.952621,77.0768158 121.419962,77.0768158 119.857864,75.5147186 C118.295767,73.9526215 118.295767,71.4199615 119.857864,69.8578644 C123.657158,66.0585706 128.733573,64 134,64 L166,64 C166.20206,64 166.40062,64.0149822 166.594631,64.0438963 C169.300749,63.7631097 171.846955,62.5742286 173.827316,60.5938682 C178.513607,55.9075767 178.513607,48.309597 173.827316,43.6233055 C169.141024,38.937014 161.543045,38.937014 156.856753,43.6233055 C155.294656,45.1854027 152.761996,45.1854027 151.199899,43.6233055 C149.637802,42.0612083 149.637802,39.5285484 151.199899,37.9664512 C159.010385,30.1559654 171.673684,30.1559654 179.48417,37.9664512 C187.294656,45.7769371 187.294656,58.4402367 179.48417,66.2507225 C175.688832,70.0460605 170.618957,72.1043938 165.35803,72.1085805 C165.036883,72.1088361 164.724544,72.0712381 164.425235,72 L134,72 L134,72 Z" id="Combined-Shape" fill="#A1674F" fill-rule="nonzero"></path>
                    <g id="Group-3" transform="translate(204.000000, 260.000000)" fill="#FFE2A8">
                        <path d="M24,0 C35.045695,-2.02906125e-15 44,8.954305 44,20 L44,24 C44,32.836556 36.836556,40 28,40 L12,40 C7.581722,40 4,36.418278 4,32 L4,20 C4,8.954305 12.954305,2.02906125e-15 24,0 Z" id="Rectangle-17"></path>
                        <path d="M4,8 L12,8 C14.209139,8 16,9.790861 16,12 L16,20 C16,22.209139 14.209139,24 12,24 L4,24 C1.790861,24 2.705415e-16,22.209139 0,20 L0,12 C-2.705415e-16,9.790861 1.790861,8 4,8 Z" id="Rectangle-17"></path>
                    </g>
                    <path d="M228,96 C228,129.137085 201.137085,156 168,156 L88,156 C54.862915,156 28,129.137085 28,96 L228,96 Z M220,96 L172,96 C172,102.627417 182.745166,108 196,108 C209.254834,108 220,102.627417 220,96 Z M60,96 L36,96 C36,102.627417 41.372583,108 48,108 C54.627417,108 60,102.627417 60,96 Z" id="Combined-Shape" fill="#3E3C5C"></path>
                    <path d="M166,171 C168.761424,171 171,168.761424 171,166 C171,163.238576 168.761424,161 166,161 C163.238576,161 161,163.238576 161,166 C161,168.761424 163.238576,171 166,171 Z M166,176 C160.477153,176 156,171.522847 156,166 C156,160.477153 160.477153,156 166,156 C171.522847,156 176,160.477153 176,166 C176,171.522847 171.522847,176 166,176 Z" id="Oval-6" fill="#FFC552" fill-rule="nonzero"></path>
                    <path d="M36,96 C36,93.790861 34.209139,92 32,92 C29.790861,92 28,93.790861 28,96" id="Oval-5" fill="#3E3C5C"></path>
                    <g id="body" transform="translate(68.000000, 196.000000)">
                        <g id="Group-2" fill="#C94848">
                            <path d="M24,0 L104,0 C117.254834,-2.4348735e-15 128,10.745166 128,24 L128,96 L0,96 L0,24 C-1.623249e-15,10.745166 10.745166,2.4348735e-15 24,0 Z" id="Rectangle-8"></path>
                        </g>
                        <polygon id="Rectangle-9" fill="#FFFFFF" points="0 72 128 72 128 80 0 80"></polygon>
                        <polygon id="Rectangle-9" fill="#FFFFFF" points="0 88 128 88 128 96 0 96"></polygon>
                        <polygon id="Rectangle-9" fill="#3E3C5C" points="0 96 128 96 128 112 0 112"></polygon>
                        <polygon id="Rectangle-9" fill="#F09F2E" points="32 96 56 96 56 112 32 112"></polygon>
                        <path d="M0,112 L128,112 C128,125.254834 117.254834,136 104,136 L24,136 C10.745166,136 1.623249e-15,125.254834 0,112 Z" id="Rectangle-9" fill="#34A362"></path>
                        <polygon id="Rectangle-9" fill="#FFFFFF" points="0 56 128 56 128 64 0 64"></polygon>
                        <polygon id="Rectangle-9" fill="#FFFFFF" points="0 40 128 40 128 48 0 48"></polygon>
                        <polygon id="Rectangle-9" fill="#FFFFFF" points="0 24 128 24 128 32 0 32"></polygon>
                        <polygon id="Rectangle-16" fill="#34A362" points="16 128 32 128 32 144 16 144"></polygon>
                        <polygon id="Rectangle-16" fill="#31825C" points="24 136 32 136 32 144 24 144"></polygon>
                        <polygon id="Rectangle-16" fill="#FFC552" points="16 144 32 144 24 176"></polygon>
                        <polygon id="Rectangle-16" fill="#F09F2E" points="24 144 32 144 24 176"></polygon>
                    </g>
                    <path d="M76,196 C67.163444,196 60,203.163444 60,212 L60,324 L76,324 L76,196 Z" id="Rectangle-11" fill="#3E3C5C"></path>
                    <path d="M4,188 C4,218.927946 29.072054,244 60,244 L60,212 C46.745166,212 36,201.254834 36,188 L4,188 Z" id="Oval-12" fill="#3E3C5C" fill-rule="nonzero"></path>
                    <path d="M148,196 L172,196 C185.254834,196 196,206.745166 196,220 L196,324 L148,324 L148,196 Z" id="Rectangle-11" fill="#3E3C5C"></path>
                    <path d="M244,268 C244,237.072054 218.927946,212 188,212 L188,244 C201.254834,244 212,254.745166 212,268 L244,268 Z" id="Oval-12" fill="#3E3C5C" fill-rule="nonzero"></path>
                    <path d="M172,216 L188,216 L188,244 C179.163444,244 172,236.836556 172,228 L172,216 Z" id="Rectangle-20" fill="#3E3C5C"></path>
                    <polygon id="Rectangle-16-Copy" fill="#34A362" points="156 332 172 332 172 348 156 348"></polygon>
                    <polygon id="Rectangle-16-Copy" fill="#31825C" points="164 332 172 332 172 348 164 348"></polygon>
                    <polygon id="Rectangle-16-Copy" fill="#3E3C5C" points="156 348 172 348 172 372 156 372"></polygon>
                    <polygon id="Rectangle-19" fill="#48A8EF" points="148 348 180 348 172 340 156 340"></polygon>
                    <polygon id="Rectangle-19-Copy" fill="#2F3242" points="180 372 132 372 156 356 172 356"></polygon>
                    <polygon id="Rectangle-16-Copy" fill="#3E3C5C" points="132 372 148 372 164 356 156 356"></polygon>
                    <polygon id="Rectangle-10" fill="#2F3242" points="164 348 172 348 172 364 164 364"></polygon>
                    <path d="M228,96 C228,93.790861 226.209139,92 224,92 C221.790861,92 220,93.790861 220,96" id="Oval-5-Copy" fill="#3E3C5C"></path>
                    <path d="M84,164 L156,164 C164.836556,164 172,171.163444 172,180 L172,188 C172,196.836556 164.836556,204 156,204 L84,204 C75.163444,204 68,196.836556 68,188 L68,180 C68,171.163444 75.163444,164 84,164 Z" id="Rectangle-3" fill="#F15F55"></path>
                    <path d="M76,188 L132,188 C145.254834,188 156,198.745166 156,212 C156,225.254834 145.254834,236 132,236 L76,236 C62.745166,236 52,225.254834 52,212 C52,198.745166 62.745166,188 76,188 Z" id="Rectangle-3" fill="#F15F55"></path>
                    <path d="M109,180 L149,180 C166.673112,180 181,194.326888 181,212 C181,229.673112 166.673112,244 149,244 L109,244 C91.326888,244 77,229.673112 77,212 C77,194.326888 91.326888,180 109,180 Z" id="Rectangle-3" fill="#F15F55"></path>
                    <path d="M108,180 C134.509668,180 156,201.490332 156,228 C156,254.509668 134.509668,276 108,276 C81.490332,276 60,254.509668 60,228 C60,201.490332 81.490332,180 108,180 Z" id="Rectangle-3" fill="#F15F55"></path>
                    <path d="M108,132 L132,132 C145.254834,132 156,142.745166 156,156 L156,180 C156,188.836556 148.836556,196 140,196 L100,196 C91.163444,196 84,188.836556 84,180 L84,156 C84,142.745166 94.745166,132 108,132 Z" id="Rectangle" fill="#FFE2A8"></path>
                    <path d="M156,156 C160.418278,156 164,159.581722 164,164 C164,168.418278 160.418278,172 156,172 L156,156 Z" id="Oval-4-Copy" fill="#FFE2A8"></path>
                    <polygon id="Rectangle-14" fill="#3E3C5C" points="103.100505 121.272078 154.012193 172.183766 151.183766 175.012193 100.272078 124.100505"></polygon>
                    <circle id="Oval" fill="#3E3C5C" cx="132" cy="152" r="12"></circle>
                    <path d="M120,132 L144,132 C146.209139,132 148,133.790861 148,136 L148,144 C148,146.209139 146.209139,148 144,148 L120,148 C117.790861,148 116,146.209139 116,144 L116,136 C116,133.790861 117.790861,132 120,132 Z" id="Rectangle-5" fill="#F15F55"></path>
                    <path d="M80,132 L104,132 C106.209139,132 108,133.790861 108,136 L108,144 C108,146.209139 106.209139,148 104,148 L80,148 C77.790861,148 76,146.209139 76,144 L76,136 C76,133.790861 77.790861,132 80,132 Z" id="Rectangle-5-Copy" fill="#F15F55"></path>
                    <path d="M148,136 C148,133.790861 146.209139,132 144,132 L120,132 C117.790861,132 116,133.790861 116,136 L116,140 L148,140 L148,136 Z" id="Combined-Shape" fill="#FF8A62"></path>
                    <path d="M108,136 C108,133.790861 106.209139,132 104,132 L80,132 C77.790861,132 76,133.790861 76,136 L76,140 L108,140 L108,136 Z" id="Combined-Shape-Copy-18" fill="#FF8A62"></path>
                    <polygon id="Rectangle-3" fill="#F15F55" points="80 172 158 172 158 212 80 212"></polygon>
                    <path d="M100,164 L132,164 C140.836556,164 148,171.163444 148,180 L148,188 C148,196.836556 140.836556,204 132,204 L100,204 C91.163444,204 84,196.836556 84,188 L84,180 C84,171.163444 91.163444,164 100,164 Z" id="Rectangle-3" fill="#F15F55"></path>
                    <g id="Group" transform="translate(92.000000, 172.000000)">
                        <mask id="mask-3" fill="white">
                            <use xlink:href="#path-2"></use>
                        </mask>
                        <use id="Rectangle-3" fill="#3E3C5C" xlink:href="#path-2"></use>
                        <path d="M8,0 L16,0 L16,4 C16,6.209139 14.209139,8 12,8 C9.790861,8 8,6.209139 8,4 L8,0 Z" id="Rectangle-6" fill="#FFFFFF" mask="url(#mask-3)"></path>
                        <path d="M24,0 L32,0 L32,4 C32,6.209139 30.209139,8 28,8 C25.790861,8 24,6.209139 24,4 L24,0 Z" id="Rectangle-6-Copy" fill="#FFFFFF" mask="url(#mask-3)"></path>
                        <path d="M40,0 L48,0 L48,4 C48,6.209139 46.209139,8 44,8 C41.790861,8 40,6.209139 40,4 L40,0 Z" id="Rectangle-6-Copy" fill="#FFFFFF" mask="url(#mask-3)"></path>
                        <path d="M16,24 L24,24 L24,20 C24,17.790861 22.209139,16 20,16 C17.790861,16 16,17.790861 16,20 L16,24 Z" id="Rectangle-6" fill="#FFFFFF" mask="url(#mask-3)"></path>
                        <path d="M0,24 L8,24 L8,20 C8,17.790861 6.209139,16 4,16 C1.790861,16 2.705415e-16,17.790861 0,20 L0,24 Z" id="Rectangle-6" fill="#FFFFFF" mask="url(#mask-3)"></path>
                        <path d="M32,24 L40,24 L40,20 C40,17.790861 38.209139,16 36,16 C33.790861,16 32,17.790861 32,20 L32,24 Z" id="Rectangle-6-Copy" fill="#FFFFFF" mask="url(#mask-3)"></path>
                    </g>
                    <path d="M108,148 C112.418278,148 116,151.581722 116,156 L116,164 C116,168.418278 112.418278,172 108,172 C103.581722,172 100,168.418278 100,164 L100,156 C100,151.581722 103.581722,148 108,148 Z" id="Rectangle-2" fill="#FF8A62"></path>
                    <path d="M84,156 C79.581722,156 76,159.581722 76,164 C76,168.418278 79.581722,172 84,172 L84,172" id="Oval-4" fill="#FFE2A8"></path>
                    <path d="M172,96 C172,65.072054 146.927946,40 116,40 C85.072054,40 60,65.072054 60,96 L60,108.249964 L172,108.249964 L172,96 Z" id="Oval-7" fill="#3E3C5C"></path>
                    <path d="M108,92 C119.045695,92 128,91.045695 128,80 C128,68.954305 119.045695,60 108,60 C96.954305,60 88,68.954305 88,80 C88,91.045695 96.954305,92 108,92 Z" id="Oval-8" fill="#FFFFFF"></path>
                    <circle id="Oval-9" fill="#3E3C5C" cx="100" cy="72" r="4"></circle>
                    <circle id="Oval-10" fill="#3E3C5C" cx="116" cy="72" r="4"></circle>
                    <polygon id="Rectangle-12" fill="#FFFFFF" points="96 84 120 84 120 100 96 100"></polygon>
                    <polygon id="Rectangle-15" fill="#3E3C5C" points="92 148 100 148 100 156 92 156"></polygon>
                    <circle id="Oval-11" fill="#FFC552" cx="92" cy="364" r="8"></circle>
                    <path d="M92,372 C96.418278,372 100,368.418278 100,364 C100,359.581722 96.418278,356 92,356" id="Oval-11" fill="#F09F2E"></path>
                    <polygon id="Rectangle-24" fill="#48A8EF" points="168 284 200 284 200 292 168 292"></polygon>
                    <polygon id="Rectangle-24" fill="#3E3C5C" points="168 292 200 292 200 308 168 308"></polygon>
                    <polygon id="Rectangle-13" fill="#48A8EF" points="208 260 248 260 248 268 208 268"></polygon>
                    <polygon id="Rectangle-13-Copy" fill="#48A8EF" points="0 188 40 188 40 196 0 196"></polygon>
                    <path d="M36,188 C36,179.163444 28.836556,172 20,172 C11.163444,172 4,179.163444 4,188" id="Oval-13" fill="#FFC552"></path>
                    <path d="M20,188 L36,188 C36,179.163444 28.836556,172 20,172 L20,188 Z" id="Combined-Shape" fill="#F09F2E"></path>
                    <path d="M25.7071068,153.707107 L30.8786797,158.87868 C32.0502525,160.050253 33.9497475,160.050253 35.1213203,158.87868 C35.6839295,158.316071 36,157.553009 36,156.757359 L36,152 L26.4142136,152 C25.8619288,152 25.4142136,152.447715 25.4142136,153 C25.4142136,153.265216 25.5195704,153.51957 25.7071068,153.707107 Z" id="Rectangle-25" fill="#F09F2E"></path>
                    <path d="M18.3431458,157.656854 C16.8954305,156.209139 16,154.209139 16,152 C16,147.581722 19.581722,144 24,144 L24,140 C17.372583,140 12,145.372583 12,152 C12,155.313708 13.3431458,158.313708 15.5147186,160.485281 L18.3431458,157.656854 Z" id="Combined-Shape" fill="#F09F2E"></path>
                    <path d="M12,152 C12,155.313708 13.3431458,158.313708 15.5147186,160.485281 L18.3431458,157.656854 C16.8954305,156.209139 16,154.209139 16,152 L12,152 Z" id="Combined-Shape" fill="#F09F2E"></path>
                    <path d="M18.3484161,157.660004 C20.6915619,160.003149 21.8631348,163.074217 21.8631348,166.145285 L17.8631348,166.145285 C17.8631348,164.097906 17.0820862,162.050528 15.519989,160.488431 L18.3484161,157.660004 Z" id="Combined-Shape-Copy" fill="#F09F2E"></path>
                    <path d="M36,152 C36,145.372583 30.627417,140 24,140 L24,144 C28.418278,144 32,147.581722 32,152 L36,152 Z" id="Combined-Shape" fill="#F09F2E"></path>
                    <path d="M18,166 L22,166 L22,172 C22,173.104569 21.1045695,174 20,174 C18.8954305,174 18,173.104569 18,172 L18,166 Z" id="Rectangle-26" fill="#F09F2E"></path>
                </g>
                <g id="ship-boy" transform="translate(224.000000, 217.500000) scale(-1, 1) translate(-224.000000, -217.500000) translate(72.000000, 59.000000)">
                    <path d="M0,189 L48,189 L48,197 L48,197 C48,201.418278 44.418278,205 40,205 L0,205 L0,189 Z" id="Rectangle-43-Copy" fill="#3E3C5C"></path>
                    <path d="M7.5,204.5 L7.5,235.564449" id="Line" stroke="#A1674F" stroke-width="24" stroke-dasharray="4,8"></path>
                    <path d="M8,205 L48,205 L48,205 C52.418278,205 56,208.581722 56,213 L56,233 L56,233 C56,241.836556 48.836556,249 40,249 L8,249 L8,249 C3.581722,249 5.41083001e-16,245.418278 0,241 L2.51547035e-15,213 L3.55271368e-15,213 C3.01163068e-15,208.581722 3.581722,205 8,205 Z" id="Rectangle-17" fill="#FFE2A8" transform="translate(28.000000, 227.000000) scale(-1, 1) translate(-28.000000, -227.000000) "></path>
                    <path d="M38,205 L40,205 L40,229 L40,229 C40,231.209139 38.209139,233 36,233 L28,233 L28,233 C25.790861,233 24,231.209139 24,229 L24,219 L24,219 C24,211.268014 30.2680135,205 38,205 Z" id="Rectangle-17" fill="#E7C391" transform="translate(32.000000, 219.000000) scale(-1, 1) translate(-32.000000, -219.000000) "></path>
                    <path d="M24,109 C24,153.18278 59.81722,189 104,189 L104,189" id="Oval-12" stroke="#FFE2A8" stroke-width="48" transform="translate(64.000000, 149.000000) scale(1, -1) translate(-64.000000, -149.000000) "></path>
                    <path d="M40,125 C40,160.346224 68.653776,189 104,189 L104,189" id="Oval-12" stroke="#E7C391" stroke-width="16" transform="translate(72.000000, 157.000000) scale(1, -1) translate(-72.000000, -157.000000) "></path>
                    <g id="Group-25" transform="translate(56.000000, 261.000000)">
                        <g id="Group-19" transform="translate(0.000000, 8.000000)">
                            <g id="Group-17" transform="translate(16.000000, 0.000000)">
                                <polygon id="Rectangle-16-Copy" fill="#A1674F" points="0 0 16 0 24 24 8 24"></polygon>
                                <polygon id="Rectangle-16-Copy" fill="#844840" points="16 0 32 0 40 24 24 24"></polygon>
                            </g>
                            <g id="Group-18" transform="translate(0.000000, 24.000000)">
                                <polygon id="Rectangle-19-Copy" fill="#2F3242" transform="translate(40.000000, 16.000000) scale(-1, -1) translate(-40.000000, -16.000000) " points="16 8 64 8 40 24 24 24"></polygon>
                                <rect id="Rectangle-16-Copy" fill="#3E3C5C" x="24" y="0" width="16" height="8"></rect>
                                <polygon id="Rectangle-16-Copy" fill="#3E3C5C" points="0 24 24 24 40 8 24 8"></polygon>
                                <rect id="Rectangle-10" fill="#2F3242" x="40" y="0" width="16" height="8"></rect>
                            </g>
                        </g>
                        <circle id="Oval-31" fill="#A1674F" cx="24" cy="16" r="16"></circle>
                        <circle id="Oval-31" fill="#844840" cx="52" cy="12" r="12"></circle>
                    </g>
                    <g id="Group-26" transform="translate(160.000000, 261.000000)">
                        <g id="Group-20" transform="translate(0.000000, 8.000000)">
                            <g id="Group-17" transform="translate(16.000000, 0.000000)">
                                <polygon id="Rectangle-16-Copy" fill="#A1674F" points="0 0 16 0 24 24 8 24"></polygon>
                                <polygon id="Rectangle-16-Copy" fill="#844840" points="16 0 32 0 40 24 24 24"></polygon>
                            </g>
                            <g id="Group-18-Copy" transform="translate(0.000000, 24.000000)">
                                <polygon id="Rectangle-19-Copy" fill="#2F3242" transform="translate(40.000000, 16.000000) scale(-1, -1) translate(-40.000000, -16.000000) " points="16 8 64 8 40 24 24 24"></polygon>
                                <rect id="Rectangle-16-Copy" fill="#3E3C5C" x="24" y="0" width="16" height="8"></rect>
                                <polygon id="Rectangle-16-Copy" fill="#3E3C5C" points="0 24 24 24 40 8 24 8"></polygon>
                                <rect id="Rectangle-10" fill="#2F3242" x="40" y="0" width="16" height="8"></rect>
                            </g>
                        </g>
                        <circle id="Oval-31-Copy" fill="#A1674F" cx="24" cy="16" r="16"></circle>
                        <circle id="Oval-31-Copy" fill="#844840" cx="52" cy="12" r="12"></circle>
                    </g>
                    <polygon id="Rectangle-19" fill="#48A8EF" transform="translate(96.000000, 297.000000) scale(1, -1) translate(-96.000000, -297.000000) " points="72 293 120 293 112 301 80 301"></polygon>
                    <polygon id="Rectangle-19" fill="#48A8EF" transform="translate(200.000000, 297.000000) scale(1, -1) translate(-200.000000, -297.000000) " points="176 293 224 293 216 301 184 301"></polygon>
                    <g id="Group-21" transform="translate(200.000000, 101.000000)"></g>
                    <g id="Group-16" transform="translate(248.000000, 213.000000)"></g>
                    <g id="Group-24" transform="translate(8.000000, 0.000000)">
                        <g id="Group-15">
                            <path d="M112,85 L176,85 L176,85 C211.346224,85 240,113.653776 240,149 L240,213 L48,213 L48,149 L48,149 C48,113.653776 76.653776,85 112,85 Z" id="Rectangle-22" fill="#E7C391"></path>
                            <path d="M112,85 L160,85 L160,85 C195.346224,85 224,113.653776 224,149 L224,213 L48,213 L48,149 L48,149 C48,113.653776 76.653776,85 112,85 Z" id="Rectangle-22" fill="#FFE2A8"></path>
                            <rect id="Rectangle-4" fill="#FFE2A8" x="106" y="85" width="86" height="45"></rect>
                            <path d="M80,157 L80,157 L80,205 L32,205 L32,205 L32,205 C32,178.490332 53.490332,157 80,157 Z" id="Rectangle-29" fill="#FFE2A8"></path>
                            <path d="M241,149 L241,149 L241,197 L193,197 L193,197 L193,197 C193,170.490332 214.490332,149 241,149 Z" id="Rectangle-29" fill="#FFE2A8" transform="translate(217.000000, 173.000000) scale(-1, 1) translate(-217.000000, -173.000000) "></path>
                            <g id="Group-23" transform="translate(192.000000, 93.000000)">
                                <path d="M0,16 C0,60.18278 35.81722,96 80,96 L80,96" id="Oval-12" stroke="#FFE2A8" stroke-width="48" transform="translate(40.000000, 56.000000) scale(-1, -1) translate(-40.000000, -56.000000) "></path>
                                <path d="M0,0 C0,53.019336 42.980664,96 96,96 L96,96" id="Oval-12" stroke="#A1674F" stroke-width="24" stroke-dasharray="4,8" transform="translate(48.000000, 48.000000) scale(-1, -1) translate(-48.000000, -48.000000) "></path>
                            </g>
                            <g id="Group-22" transform="translate(0.000000, 93.000000)" stroke="#A1674F" stroke-width="24" stroke-dasharray="4,8">
                                <path d="M0,0 C0,53.019336 42.980664,96 96,96 L96,96" id="Oval-12" transform="translate(48.000000, 48.000000) scale(1, -1) translate(-48.000000, -48.000000) "></path>
                            </g>
                            <circle id="Oval-15" stroke="#FF8A62" stroke-width="5" cx="72" cy="157" r="5.5"></circle>
                            <circle id="Oval-15-Copy" stroke="#FF8A62" stroke-width="5" cx="176" cy="157" r="5.5"></circle>
                            <path d="M88,221 L192,221 L192,221 C218.509668,221 240,242.490332 240,269 L240,277 L32,277 L32,277 L32,277 C32,246.072054 57.072054,221 88,221 Z" id="Rectangle-22-Copy" fill="#A1674F" transform="translate(136.000000, 249.000000) scale(1, -1) translate(-136.000000, -249.000000) "></path>
                            <rect id="Rectangle-9" fill="#3E3C5C" x="32" y="197" width="208" height="24"></rect>
                            <g id="Group-14" transform="translate(80.000000, 0.000000)">
                                <g id="Group-13" transform="translate(116.000000, 36.500000) scale(-1, 1) rotate(45.000000) translate(-116.000000, -36.500000) translate(94.000000, 8.000000)">
                                    <path d="M-0.972594648,29.6617597 C2.32209662,20.3402207 11.2120091,13.6617597 21.6617597,13.6617597 C32.1115103,13.6617597 41.0014228,20.3402207 44.296114,29.6617597 L-0.972594648,29.6617597 Z" id="Combined-Shape-Copy" fill="#34A362" transform="translate(21.661760, 21.661760) rotate(-45.000000) translate(-21.661760, -21.661760) "></path>
                                    <path d="M12.685653,41.9443519 C15.9803442,32.6228129 24.8702567,25.9443519 35.3200073,25.9443519 C45.7697579,25.9443519 54.6596704,32.6228129 57.9543617,41.9443519 L12.685653,41.9443519 Z" id="Combined-Shape-Copy-2" fill="#31825C" transform="translate(35.320007, 33.944352) scale(-1, 1) rotate(90.000000) translate(-35.320007, -33.944352) "></path>
                                </g>
                                <circle id="Oval-14" fill="#34A362" cx="56" cy="45" r="40"></circle>
                                <g id="Group-12" transform="translate(0.000000, 25.000000)">
                                    <circle id="Oval-6" stroke="#FFC552" stroke-width="5" cx="98" cy="42" r="7.5"></circle>
                                    <rect id="Rectangle-3" fill="#3E3C5C" x="0" y="40" width="104" height="76" rx="16"></rect>
                                    <path d="M40,8 L64,8 L64,8 C77.254834,8 88,18.745166 88,32 L88,56 L88,56 C88,64.836556 80.836556,72 72,72 L32,72 L32,72 C23.163444,72 16,64.836556 16,56 L16,32 L16,32 C16,18.745166 26.745166,8 40,8 Z" id="Rectangle" fill="#FFE2A8"></path>
                                    <path d="M40,0 L64,0 L64,0 C77.254834,-2.4348735e-15 88,10.745166 88,24 L88,48 L88,48 C88,56.836556 80.836556,64 72,64 L32,64 L32,64 C23.163444,64 16,56.836556 16,48 L16,24 L16,24 C16,10.745166 26.745166,2.4348735e-15 40,0 Z" id="Rectangle" fill="#FFE2A8"></path>
                                    <rect id="Rectangle-15" fill="#3E3C5C" x="24" y="24" width="8" height="8"></rect>
                                    <rect id="Rectangle-15" fill="#34A362" x="56" y="24" width="8" height="8"></rect>
                                    <path d="M96,32 C91.581722,32 88,35.581722 88,40 C88,44.418278 91.581722,48 96,48 L96,48" id="Oval-4-Copy" fill="#FFE2A8" transform="translate(92.000000, 40.000000) scale(-1, 1) translate(-92.000000, -40.000000) "></path>
                                    <rect id="Rectangle-5" fill="#3E3C5C" x="48" y="12" width="32" height="16" rx="4"></rect>
                                    <rect id="Rectangle-3" fill="#3E3C5C" x="12" y="48" width="78" height="40"></rect>
                                    <rect id="Rectangle-3" fill="#3E3C5C" x="16" y="40" width="64" height="40" rx="16"></rect>
                                    <rect id="Rectangle-3" fill="#3E3C5C" x="16" y="64" width="56" height="40" rx="16"></rect>
                                    <path d="M16,32 C11.581722,32 8,35.581722 8,40 C8,44.418278 11.581722,48 16,48 L16,48" id="Oval-4" fill="#FFE2A8"></path>
                                    <rect id="Rectangle-15" fill="#34A362" x="24" y="24" width="8" height="8"></rect>
                                    <rect id="Rectangle-5-Copy" fill="#3E3C5C" x="8" y="12" width="32" height="16" rx="4"></rect>
                                    <rect id="Rectangle-2" fill="#FF8A62" x="32" y="24" width="16" height="24" rx="8"></rect>
                                </g>
                            </g>
                        </g>
                        <path d="M248,205 L288,205 L288,205 C292.418278,205 296,208.581722 296,213 L296,233 L296,233 C296,241.836556 288.836556,249 280,249 L248,249 L248,249 C243.581722,249 240,245.418278 240,241 L240,213 L240,213 C240,208.581722 243.581722,205 248,205 Z" id="Rectangle-17" fill="#FFE2A8"></path>
                        <path d="M287.5,204.5 L287.5,235.564449" id="Line" stroke="#A1674F" stroke-width="24" stroke-dasharray="4,8"></path>
                        <path d="M246,205 L248,205 L248,229 L248,229 C248,231.209139 246.209139,233 244,233 L236,233 L236,233 C233.790861,233 232,231.209139 232,229 L232,219 L232,219 C232,211.268014 238.268014,205 246,205 Z" id="Rectangle-17" fill="#E7C391"></path>
                        <rect id="Rectangle-43" fill="#3E3C5C" x="248" y="189" width="48" height="16"></rect>
                    </g>
                    <circle id="Oval-30" stroke="#FFC552" stroke-width="8" cx="124" cy="209" r="16"></circle>
                    <polyline id="Line-2" stroke="#A1674F" stroke-width="3" stroke-linecap="square" points="96 172 104 164 112 172 120 164 128 172 136 164 144 172 152 164 160 172"></polyline>
                    <polyline id="Line-2" stroke="#A1674F" stroke-width="3" stroke-linecap="square" points="96 156 104 148 112 156 120 148 128 156 136 148 144 156 152 148 160 156"></polyline>
                </g>
                <g id="rocks" transform="translate(83.000000, 360.000000)">
                    <path d="M16,16 C19.2946913,6.67846102 28.1846037,0 38.6343543,0 C49.0841049,0 57.9740174,6.67846102 61.2687087,16 L16,16 Z" id="Combined-Shape" fill="#E7C391"></path>
                    <path d="M0,16 C1.64734563,11.3392305 6.09230186,8 11.3171772,8 C16.5420525,8 20.9870087,11.3392305 22.6343543,16 L0,16 Z" id="Combined-Shape" fill="#FFE2A8"></path>
                </g>
                <path d="M332,377 C333.647346,372.339231 338.092302,369 343.317177,369 C348.542052,369 352.987009,372.339231 354.634354,377 L332,377 Z" id="rock" fill="#E7C391"></path>
            </g>
        </g>
    </g>
</svg>