<svg width="640" height="384" xmlns="http://www.w3.org/2000/svg" xmlns:xlink="http://www.w3.org/1999/xlink"><defs><path id="a" d="M0 0h501v168H0z"/><path d="M80 0H0v56h136c0-30.928-25.072-56-56-56z" id="c"/><path d="M0 48C0 21.49 21.49 0 48 0s48 21.49 48 48H0z" id="e"/><path d="M68 80h120a4 4 0 0 0 4-4V64c0-35.346-28.654-64-64-64h-16c35.346 0 64 28.654 64 64H80C80 28.654 51.346 0 16 0H0c35.346 0 64 28.654 64 64v12a4 4 0 0 0 4 4z" id="g"/><path d="M28 29.67C35.064 25.35 40 15.482 40 4c0-1.358-.07-2.694-.203-4H0v4c0 15.464 8.954 28 20 28h8v-2.33z" id="h"/><path d="M28 16h4c0-8.837-7.163-16-16-16S0 7.163 0 16h4C4 9.373 9.373 4 16 4s12 5.373 12 12z" id="j"/><path d="M0 0h10a4 4 0 0 1 4 4v8a4 4 0 0 1-4 4H0h2a4 4 0 0 0 4-4V4a4 4 0 0 0-4-4H0z" id="l"/></defs><g transform="translate(94 208)" fill="none" fill-rule="evenodd"><mask id="b" fill="#fff"><use xlink:href="#a"/></mask><g mask="url(#b)"><g transform="translate(7 21)"><path d="M90.997 91.002c-8.523-17.842-5.395-39.859 9.383-54.637 14.778-14.778 36.795-17.906 54.637-9.383l-64.02 64.02z" fill="#B64C4C"/><path d="M91 91c6.59-18.643 24.37-32 45.269-32 20.9 0 38.679 13.357 45.268 32H91z" fill="#34A362"/><path d="M90.997 91.002c-8.523-17.842-5.395-39.859 9.383-54.637 14.778-14.778 36.795-17.906 54.637-9.383l-64.02 64.02z" fill="#31825C"/><path d="M91 .46C72.357 7.05 59 24.83 59 45.729c0 20.9 13.357 38.679 32 45.268V.46z" fill="#34A362"/><path d="M26.987 155.027c-8.523-17.842-5.395-39.859 9.383-54.637 14.778-14.778 36.795-17.906 54.637-9.383l-64.02 64.02z" fill="#34A362"/><path d="M91 91c-18.643 6.59-32 24.37-32 45.269 0 20.9 13.357 38.679 32 45.268V91zM.46 91c6.59-18.643 24.37-32 45.269-32 20.9 0 38.68 13.357 45.268 32H.46z" fill="#31825C"/><path d="M323.003 99.002c8.523-17.842 5.395-39.859-9.383-54.637-14.778-14.778-36.795-17.906-54.637-9.383l64.02 64.02z" fill="#B64C4C"/><path d="M323 99c-6.59-18.643-24.37-32-45.269-32-20.9 0-38.679 13.357-45.268 32H323z" fill="#34A362"/><path d="M323.003 99.002c8.523-17.842 5.395-39.859-9.383-54.637-14.778-14.778-36.795-17.906-54.637-9.383l64.02 64.02z" fill="#31825C"/><path d="M323 8.46c18.643 6.59 32 24.37 32 45.269 0 20.9-13.357 38.679-32 45.268V8.46z" fill="#34A362"/><path d="M387.013 163.027c8.523-17.842 5.395-39.859-9.383-54.637-14.778-14.778-36.795-17.906-54.637-9.383l64.02 64.02z" fill="#34A362"/><path d="M323 99c18.643 6.59 32 24.37 32 45.269 0 20.9-13.357 38.679-32 45.268V99zm90.54 0c-6.59-18.643-24.37-32-45.269-32-20.9 0-38.68 13.357-45.268 32h90.537z" fill="#31825C"/><g transform="translate(3 94)" fill="#34A362"><rect transform="rotate(90 4 82)" x="-35" y="78" width="78" height="8" rx="4"/><rect transform="rotate(90 20 76)" x="-19" y="72" width="78" height="8" rx="4"/><path d="M8 24v66h8V28v18a4 4 0 1 1-8 0V24z"/><rect transform="rotate(90 36 52)" x="-3" y="48" width="78" height="8" rx="4"/><path d="M24 8v66h8V12v18a4 4 0 1 1-8 0V8z"/><rect transform="rotate(90 52 52)" x="13" y="48" width="78" height="8" rx="4"/><rect transform="rotate(90 68 60)" x="29" y="56" width="78" height="8" rx="4"/><path d="M56 1v66h8V5v18a4 4 0 1 1-8 0V1zM40 0v66h8V4v18a4 4 0 1 1-8 0V0z"/><rect transform="rotate(90 84 52)" x="45" y="48" width="78" height="8" rx="4"/><path d="M72 8v66h8V12v18a4 4 0 1 1-8 0V8z"/></g><g transform="translate(347 94)" fill="#34A362"><rect transform="rotate(90 12 52)" x="-27" y="48" width="78" height="8" rx="4"/><rect transform="rotate(90 28 60)" x="-11" y="56" width="78" height="8" rx="4"/><path d="M16 16v66h8V20v18a4 4 0 1 1-8 0V16zM0 0v66h8V4v18a4 4 0 1 1-8 0V0z"/><rect transform="rotate(90 44 60)" x="5" y="56" width="78" height="8" rx="4"/><path d="M32 8v66h8V12v18a4 4 0 1 1-8 0V8z"/><rect transform="rotate(90 60 52)" x="21" y="48" width="78" height="8" rx="4"/><rect transform="rotate(90 76 60)" x="37" y="56" width="78" height="8" rx="4"/><path d="M64 16v66h8V20v18a4 4 0 1 1-8 0V16zM48 8v66h8V12v18a4 4 0 1 1-8 0V8z"/><rect transform="rotate(90 92 84)" x="53" y="80" width="78" height="8" rx="4"/><path d="M80 24v66h8V28v18a4 4 0 1 1-8 0V24z"/></g><g transform="translate(339 106)"><circle fill="#F15F55" cx="12" cy="12" r="12"/><circle fill="#FF8A62" cx="12" cy="12" r="4"/></g><g transform="translate(73 26)"><circle fill="#F15F55" cx="12" cy="12" r="12"/><circle fill="#FF8A62" cx="12" cy="12" r="4"/></g><circle fill="#F15F55" cx="359" cy="134" r="4"/><circle fill="#F15F55" cx="439" cy="127" r="4"/><circle fill="#34A362" cx="423" cy="103" r="4"/><circle fill="#48A8EF" cx="375" cy="127" r="4"/><circle fill="#FFF" cx="391" cy="135" r="4"/><circle fill="#FFC552" cx="383" cy="87" r="4"/><circle fill="#F15F55" cx="55" cy="95" r="4"/><circle fill="#FFC552" cx="71" cy="103" r="4"/><circle fill="#48A8EF" cx="79" cy="87" r="4"/><circle fill="#F15F55" cx="71" cy="55" r="4"/><circle fill="#F15F55" cx="7" cy="127" r="4"/><circle fill="#FFC552" cx="23" cy="103" r="4"/><circle fill="#FFF" cx="39" cy="119" r="4"/></g><g transform="translate(258 115)" fill="#34A362"><rect transform="rotate(90 12 52)" x="-27" y="48" width="78" height="8" rx="4"/><rect transform="rotate(90 28 60)" x="-11" y="56" width="78" height="8" rx="4"/><path d="M16 16v66h8V20v18a4 4 0 1 1-8 0V16zM0 0v66h8V4v18a4 4 0 1 1-8 0V0z"/><rect transform="rotate(90 44 52)" x="5" y="48" width="78" height="8" rx="4"/><path d="M32 8v66h8V12v18a4 4 0 1 1-8 0V8z"/><rect transform="rotate(90 60 52)" x="21" y="48" width="78" height="8" rx="4"/><rect transform="rotate(90 76 60)" x="37" y="56" width="78" height="8" rx="4"/><path d="M64 16v66h8V20v18a4 4 0 1 1-8 0V16zM48 0v66h8V4v18a4 4 0 1 1-8 0V0z"/><rect transform="rotate(90 92 52)" x="53" y="48" width="78" height="8" rx="4"/><path d="M80 8v66h8V12v18a4 4 0 1 1-8 0V8z"/></g><path d="M102 84h124v84H98V88a4 4 0 0 1 4-4z" fill="#8C5A46"/><path d="M102 88h120a4 4 0 0 1 4 4v72a4 4 0 0 1-4 4H98V92a4 4 0 0 1 4-4z" fill="#844840"/><path d="M226 84h124a4 4 0 0 1 4 4v76a4 4 0 0 1-4 4H226V84z" fill="#F3F9FC"/><path d="M230 88h120a4 4 0 0 1 4 4v72a4 4 0 0 1-4 4H230a4 4 0 0 1-4-4V92a4 4 0 0 1 4-4z" fill="#FFE2A8"/><path fill="#A1674F" d="M114 104h96v48h-96z"/><path fill="#F09F2E" d="M242 104h96v48h-96z"/><path d="M274 8h-31.008C252.178 2.903 262.75 0 274 0c35.346 0 64 28.654 64 64h-8c0-30.928-25.072-56-56-56z" fill="#FFBA00"/><g transform="translate(194 8)"><mask id="d" fill="#fff"><use xlink:href="#c"/></mask><use fill="#FFC552" xlink:href="#c"/><path fill="#F09F2E" mask="url(#d)" d="M24 40h120v4H24zm0-16h120v4H24z"/><path fill="#FFC552" mask="url(#d)" d="M24 12h120v12H24z"/><path fill="#F09F2E" mask="url(#d)" d="M24 8h120v4H24z"/><path fill="#FFC552" mask="url(#d)" d="M0-4h120v4H0z"/><path fill="#D37739" mask="url(#d)" d="M0-8h120v4H0z"/></g><path d="M98 76h128v8H102a4 4 0 0 1-4-4v-4z" fill="#2F3242"/><path d="M98 64c0-35.346 28.654-64 64-64 35.346 0 64 28.654 64 64v12a4 4 0 0 1-4 4H102a4 4 0 0 1-4-4V64z" fill="#844840"/><g transform="translate(114 16)"><mask id="f" fill="#fff"><use xlink:href="#e"/></mask><use fill="#A1674F" xlink:href="#e"/><path fill="#8C5A46" mask="url(#f)" d="M0 0h96v4H0zm0 16h96v4H0zm0 16h96v4H0z"/></g><path d="M226 76h128v4a4 4 0 0 1-4 4H226v-8z" fill="#3E3C5C"/><use fill="#FFE2A8" xlink:href="#g" transform="translate(162)"/><path d="M166 16.164a48.644 48.644 0 0 0-4-.164c-26.51 0-48 21.49-48 48h8c0-25.163 19.362-45.803 44-47.836zM114 104l8 8v40h-8z" fill="#2F3242"/><path fill="#2F3242" d="M114 104h8v8z"/><path fill="#A1674F" d="M330 104h8v48h-8z"/><path fill="#3E3C5C" d="M338 104h-8v8z"/><path d="M274 8h-31.008C252.178 2.903 262.75 0 274 0c35.346 0 64 28.654 64 64h-8c0-30.928-25.072-56-56-56z" fill="#A1674F"/><path fill="#D37739" d="M242 104h88v8h-88zm0 20h88v4h-88zm0 16h88v4h-88z"/><path fill="#844840" d="M122 104h88v8h-88z"/><path fill="#8C5A46" d="M122 124h88v4h-88zm0 16h88v4h-88z"/><g transform="translate(274 104)"><mask id="i" fill="#fff"><use xlink:href="#h"/></mask><use fill="#8C5A46" xlink:href="#h"/><path fill="#8C5A46" mask="url(#i)" d="M2 24h33v8H2z"/></g><path d="M282 96h24a8 8 0 0 1 8 8h-40a8 8 0 0 1 8-8z" fill="#8C5A46"/><g transform="translate(282 80)"><path d="M0 24h40v4c0 15.464-8.954 28-20 28S0 43.464 0 28v-4zm8-8h24a8 8 0 0 1 8 8H0a8 8 0 0 1 8-8z" fill="#FFC552"/><mask id="k" fill="#fff"><use xlink:href="#j"/></mask><use fill="#A1674F" xlink:href="#j"/><path fill="#844840" mask="url(#k)" d="M16 2h24v10H16z"/></g><path d="M314 96h4c0-8.837-7.163-16-16-16s-16 7.163-16 16h4c0-6.627 5.373-12 12-12s12 5.373 12 12z" fill="#FFC552"/><path d="M298.905 115.141a6 6 0 1 1 6.19 0L306 126h-8l.905-10.859z" fill="#A1674F"/><path d="M300 104.341a6.002 6.002 0 0 0-1.095 10.8L298 126h4l-.905-10.859a6.002 6.002 0 0 0-1.095-10.8z" fill="#3E3C5C"/><g transform="translate(296 76)"><mask id="m" fill="#fff"><use xlink:href="#l"/></mask><use fill="#B6D8F0" xlink:href="#l"/><path fill="#FFF" mask="url(#m)" d="M-3 0h20v4H-3z"/><path fill="#3E3C5C" mask="url(#m)" d="M-3 12h20v4H-3z"/></g><path d="M293 88c-1.156 1.435-1.914 2.768-2.273 4H298a4 4 0 0 0 4-4v-8a4 4 0 0 0-4-4h-8v4h7a1 1 0 0 1 1 1v6a1 1 0 0 1-1 1h-4z" fill="#3E3C5C"/><path d="M66 160c-9.166 5.055-20.168 8-32 8h128c-11.832 0-22.834-2.945-32-8s-20.168-8-32-8-22.834 2.945-32 8z" fill="#FFE2A8"/></g></g></svg>