<svg width="640" height="384" xmlns="http://www.w3.org/2000/svg" xmlns:xlink="http://www.w3.org/1999/xlink"><defs><path d="M0 32C0 14.327 14.327 0 32 0c17.673 0 32 14.327 32 32H0z" id="a"/><path d="M0 0c0 17.673 14.327 32 32 32 17.673 0 32-14.327 32-32H0z" id="c"/><circle id="e" cx="32" cy="32" r="32"/><path d="M13.777 0h130.446a8 8 0 0 1 7.891 6.685l5.333 32a8 8 0 0 1-7.89 9.315H8.443a8 8 0 0 1-7.891-9.315l5.333-32A8 8 0 0 1 13.777 0z" id="g"/><path d="M13.777 0h130.446a8 8 0 0 1 7.891 6.685l5.333 32a8 8 0 0 1-7.89 9.315H8.443a8 8 0 0 1-7.891-9.315l5.333-32A8 8 0 0 1 13.777 0z" id="i"/><path d="M13.777 0h130.446a8 8 0 0 1 7.891 6.685l5.333 32a8 8 0 0 1-7.89 9.315H8.443a8 8 0 0 1-7.891-9.315l5.333-32A8 8 0 0 1 13.777 0z" id="k"/><path d="M0 32C0 14.327 14.327 0 32 0c17.673 0 32 14.327 32 32H0z" id="m"/><path d="M0 0c0 17.673 14.327 32 32 32 17.673 0 32-14.327 32-32H0z" id="o"/><circle id="q" cx="32" cy="32" r="32"/><path d="M0 32C0 14.327 14.327 0 32 0c17.673 0 32 14.327 32 32H0z" id="s"/><path d="M0 0c0 17.673 14.327 32 32 32 17.673 0 32-14.327 32-32H0z" id="u"/><circle id="w" cx="32" cy="32" r="32"/><path d="M101.766 0h12.468a8 8 0 0 1 7.59 5.47L128 24H88l6.177-18.53a8 8 0 0 1 7.59-5.47z" id="y"/><path d="M13.766 0H32a8 8 0 0 1 8 8v8a8 8 0 0 1-8 8H0L6.177 5.47A8 8 0 0 1 13.767 0z" id="A"/><path d="M13.766 0h12.468a8 8 0 0 1 7.59 5.47L40 24H0L6.177 5.47A8 8 0 0 1 13.767 0z" id="C"/></defs><g fill="none" fill-rule="evenodd"><g transform="translate(132 44)"><path d="M277.675 35.357c-3.865 4.714-3.597 11.683.804 16.084a11.948 11.948 0 0 0 8.48 3.514 4 4 0 0 1-.002 8 19.946 19.946 0 0 1-14.135-5.857c-7.331-7.332-7.781-18.94-1.349-26.795a4 4 0 0 0 6.042 5.212l.16-.158z" fill="#844840" fill-rule="nonzero"/><g transform="translate(0 328)" fill="#D5E9F6"><rect x="220" width="128" height="4" rx="2"/><rect width="296" height="4" rx="2"/></g><g transform="translate(356 220)"><rect fill="#E7C391" y="8" width="16" height="16" rx="8"/><path d="M24 0c11.046 0 20 8.954 20 20v4c0 8.837-7.163 16-16 16H12a8 8 0 0 1-8-8V20C4 8.954 12.954 0 24 0z" fill="#FFE2A8"/></g><path d="M380 56c0 33.137-26.863 60-60 60h-80c-33.137 0-60-26.863-60-60h200zm-8 0h-48c0 6.627 10.745 12 24 12s24-5.373 24-12zm-160 0h-24c0 6.627 5.373 12 12 12s12-5.373 12-12z" fill="#3E3C5C"/><circle stroke="#FFC552" stroke-width="5" cx="318" cy="126" r="7.5"/><path d="M188 56a4 4 0 1 0-8 0" fill="#3E3C5C"/><path d="M244 156h80c13.255 0 24 10.745 24 24v72H220v-72c0-13.255 10.745-24 24-24z" fill="#C94848"/><path fill="#FFF" d="M220 228h128v8H220zm0 16h128v8H220z"/><path fill="#3E3C5C" d="M220 252h128v16H220z"/><path fill="#F09F2E" d="M252 252h24v16h-24z"/><path d="M220 268h128c0 13.255-10.745 24-24 24h-80c-13.255 0-24-10.745-24-24z" fill="#34A362"/><path fill="#FFF" d="M220 212h128v8H220zm0-16h128v8H220zm0-16h128v8H220z"/><path fill="#34A362" d="M236 284h16v16h-16z"/><path fill="#31825C" d="M244 292h8v8h-8z"/><path fill="#FFC552" d="M236 300h16l-8 32z"/><path fill="#F09F2E" d="M244 300h8l-8 32z"/><path d="M228 156c-8.837 0-16 7.163-16 16v112h16V156z" fill="#3E3C5C"/><path d="M172 148c0 22.091 17.909 40 40 40" stroke="#3E3C5C" stroke-width="32"/><path d="M300 156h24c13.255 0 24 10.745 24 24v104h-48V156z" fill="#3E3C5C"/><path d="M380 228c0-22.091-17.909-40-40-40" stroke="#3E3C5C" stroke-width="32"/><path d="M324 176h16v28c-8.837 0-16-7.163-16-16v-12z" fill="#3E3C5C"/><path fill="#34A362" d="M308 292h16v16h-16z"/><path fill="#31825C" d="M316 292h8v16h-8z"/><path fill="#3E3C5C" d="M308 308h16v20h-16z"/><path fill="#48A8EF" d="M300 308h32l-8-8h-16z"/><path fill="#2F3242" d="M332 332h-48l24-16h16z"/><path fill="#3E3C5C" d="M284 332h16l16-16h-8z"/><path fill="#2F3242" d="M316 308h8v8h-8z"/><path d="M380 56a4 4 0 1 0-8 0" fill="#3E3C5C"/><rect fill="#F15F55" x="220" y="124" width="104" height="40" rx="16"/><rect fill="#F15F55" x="204" y="148" width="104" height="48" rx="24"/><rect fill="#F15F55" x="229" y="140" width="104" height="64" rx="32"/><rect fill="#F15F55" x="212" y="140" width="96" height="96" rx="48"/><path d="M260 92h24c13.255 0 24 10.745 24 24v24c0 8.837-7.163 16-16 16h-40c-8.837 0-16-7.163-16-16v-24c0-13.255 10.745-24 24-24zm48 24a8 8 0 1 1 0 16" fill="#FFE2A8"/><path fill="#3E3C5C" d="M255.1 81.272l50.912 50.912-2.828 2.828L252.272 84.1z"/><circle fill="#3E3C5C" cx="284" cy="112" r="12"/><rect fill="#F15F55" x="268" y="92" width="32" height="16" rx="4"/><path d="M300 96a4 4 0 0 0-4-4h-24a4 4 0 0 0-4 4v4h32v-4z" fill="#FF8A62"/><rect fill="#F15F55" x="228" y="92" width="32" height="16" rx="4"/><path d="M260 96a4 4 0 0 0-4-4h-24a4 4 0 0 0-4 4v4h32v-4z" fill="#FF8A62"/><path fill="#F15F55" d="M232 132h78v40h-78z"/><rect fill="#F15F55" x="236" y="124" width="64" height="40" rx="16"/><rect fill="#FF8A62" x="252" y="108" width="16" height="24" rx="8"/><path d="M236 116a8 8 0 1 0 0 16" fill="#FFE2A8"/><path d="M324 56c0-30.928-25.072-56-56-56s-56 25.072-56 56v10.948h112V56z" fill="#3E3C5C"/><g transform="translate(240 20)"><path d="M20 32c11.046 0 20-.954 20-12S31.046 0 20 0 0 8.954 0 20s8.954 12 20 12z" fill="#FFF"/><circle fill="#3E3C5C" cx="12" cy="12" r="4"/><circle fill="#3E3C5C" cx="28" cy="12" r="4"/><path fill="#FFF" d="M8 24h24v16H8z"/></g><path fill="#3E3C5C" d="M244 108h8v8h-8z"/><circle fill="#FFC552" cx="244" cy="324" r="8"/><path d="M244 332a8 8 0 1 0 0-16" fill="#F09F2E"/><path fill="#48A8EF" d="M320 244h32v8h-32z"/><path fill="#3E3C5C" d="M320 252h32v16h-32z"/><path fill="#48A8EF" d="M360 220h40v8h-40zm-208-72h40v8h-40z"/><path d="M188 148c0-8.837-7.163-16-16-16s-16 7.163-16 16" fill="#FFC552"/><path d="M172 148h16c0-8.837-7.163-16-16-16v16zm5.707-34.293l5.172 5.172a3 3 0 0 0 5.121-2.122V112h-9.586a1 1 0 0 0-.707 1.707zm-7.364 3.95A8 8 0 0 1 176 104v-4c-6.627 0-12 5.373-12 12 0 3.314 1.343 6.314 3.515 8.485l2.828-2.828z" fill="#F09F2E"/><path d="M164 112c0 3.314 1.343 6.314 3.515 8.485l2.828-2.828A7.975 7.975 0 0 1 168 112h-4zm6.348 5.66a11.962 11.962 0 0 1 3.515 8.485h-4a7.975 7.975 0 0 0-2.343-5.657l2.828-2.828zM188 112c0-6.627-5.373-12-12-12v4a8 8 0 0 1 8 8h4z" fill="#F09F2E"/><path d="M170 126h4v6a2 2 0 0 1-4 0v-6z" fill="#F09F2E"/></g><g transform="translate(116 192)"><circle fill="#FF8A62" cx="228" cy="16" r="16"/><circle fill="#FFC552" cx="228" cy="16" r="12"/><circle fill="#FFE2A8" cx="228" cy="16" r="8"/><circle fill="#FFF" cx="228" cy="16" r="4"/><g transform="translate(20 120)"><mask id="b" fill="#fff"><use xlink:href="#a"/></mask><use fill="#F09F2E" xlink:href="#a"/><path fill="#D37739" mask="url(#b)" d="M1 7.75h27v3.5H1z"/></g><g transform="translate(20 152)"><mask id="d" fill="#fff"><use xlink:href="#c"/></mask><use fill="#D37739" xlink:href="#c"/><path fill="#A1674F" mask="url(#d)" d="M1 20.75h27v3.5H1z"/></g><path fill="#F09F2E" d="M52 120h16v32H52z"/><path fill="#D37739" d="M52 152h16v32H52z"/><path d="M36 152c0-17.673 14.327-32 32-32 17.673 0 32 14.327 32 32H36z" fill="#A1674F"/><path d="M36 152c0 17.673 14.327 32 32 32 17.673 0 32-14.327 32-32H36z" fill="#8C5A46"/><g transform="translate(36 120)"><mask id="f" fill="#fff"><use xlink:href="#e"/></mask><path d="M36 12v8h-4v-4a4 4 0 0 1 4-4z" fill="#3E3C5C" mask="url(#f)"/><path d="M40 12v8h-4v-4a4 4 0 0 1 4-4z" fill="#2F3242" mask="url(#f)" transform="matrix(-1 0 0 1 76 0)"/><path d="M36 40a4 4 0 0 1 4 4v4h-8v-4a4 4 0 0 1 4-4z" fill="#2F3242" mask="url(#f)" transform="matrix(1 0 0 -1 0 88)"/><path fill="#8C5A46" fill-rule="nonzero" mask="url(#f)" d="M32 28.464l-32-32L-3.536 0 32 35.536 67.536 0 64-3.536z"/><path fill="#844840" fill-rule="nonzero" mask="url(#f)" d="M67.536 64L32 28.464-3.536 64 0 67.536l32-32 32 32z"/></g><path d="M56 152c0-6.627 5.373-12 12-12s12 5.373 12 12H56z" fill="#48A8EF"/><path d="M56 152c0 6.627 5.373 12 12 12s12-5.373 12-12H56z" fill="#3E3C5C"/><path fill="#3E3C5C" d="M68 152h6v12h-6z"/><path fill="#48A8EF" d="M68 140h6v12h-6z"/><path d="M64 152c0 6.627 5.373 12 12 12s12-5.373 12-12H64z" fill="#2F3242"/><path d="M64 152c0-6.627 5.373-12 12-12s12 5.373 12 12H64z" fill="#3E3C5C"/><g transform="translate(108 120)"><path d="M0 32C0 14.327 14.327 0 32 0c17.673 0 32 14.327 32 32H0z" fill="#48A8EF"/><path d="M0 32c0 17.673 14.327 32 32 32 17.673 0 32-14.327 32-32H0z" fill="#844840"/><path fill="#48A8EF" d="M32 0h16v32H32z"/><path fill="#844840" d="M32 32h16v32H32z"/><circle fill="#A1674F" cx="48" cy="32" r="32"/><path d="M36 32c0-6.627 5.373-12 12-12s12 5.373 12 12H36z" fill="#48A8EF"/><path d="M36 32c0 6.627 5.373 12 12 12s12-5.373 12-12H36z" fill="#3E3C5C"/><path fill="#3E3C5C" d="M48 32h6v12h-6z"/><path fill="#48A8EF" d="M48 20h6v12h-6z"/><path d="M44 32c0 6.627 5.373 12 12 12s12-5.373 12-12H44z" fill="#2F3242"/><path d="M44 32c0-6.627 5.373-12 12-12s12 5.373 12 12H44z" fill="#3E3C5C"/></g><g transform="translate(45 120)"><mask id="h" fill="#fff"><use xlink:href="#g"/></mask><use fill="#D37739" xlink:href="#g"/><path fill="#A1674F" mask="url(#h)" d="M-9 16h160v4H-9z"/><path fill="#F09F2E" mask="url(#h)" d="M-9 20h160v4H-9z"/><path fill="#A1674F" mask="url(#h)" d="M-9 32h160v4H-9z"/><path fill="#F09F2E" mask="url(#h)" d="M-9 36h160v4H-9zm8-36h32v8H-1z"/></g><path d="M74.777 120h130.446a8 8 0 0 1 7.891 6.685l5.333 32a8 8 0 0 1-7.89 9.315H69.443a8 8 0 0 1-7.891-9.315l5.333-32A8 8 0 0 1 74.777 120z" fill="#844840"/><path d="M292 96c0-6.627-5.373-12-12-12v12h12z" fill="#3E3C5C"/><path d="M292 96c0 6.627-5.373 12-12 12V96h12z" fill="#2F3242"/><path d="M268 96c0-6.627 5.373-12 12-12v12h-12z" fill="#3E3C5C"/><path d="M268 96c0 6.627 5.373 12 12 12V96h-12z" fill="#2F3242"/><path d="M272.524 96c0-17.673-14.327-32-32-32-1.817 0-3.6.151-5.334.442 15.135 2.54 26.667 15.702 26.667 31.558h10.667z" fill="#48A8EF"/><path d="M272.524 96c0 17.673-14.327 32-32 32-1.817 0-3.6-.151-5.334-.442 15.135-2.54 26.667-15.702 26.667-31.558h10.667z" fill="#3E3C5C"/><g transform="translate(0 32)"><path d="M200 0h24a4 4 0 0 1 4 4v20h-32V4a4 4 0 0 1 4-4z" fill="#2F3242"/><path d="M204 0h16a4 4 0 0 1 4 4v20h-24V4a4 4 0 0 1 4-4z" fill="#2F3242"/><path d="M216 0h8a4 4 0 0 1 4 4v20h-16V4a4 4 0 0 1 4-4z" fill="#2F3242"/><path d="M268 64c0-26.51-21.49-48-48-48v48h48zm-82-48h34v50h-34z" fill="#3E3C5C"/><path d="M268 64c0 26.51-21.49 48-48 48V64h48z" fill="#2F3242"/><circle fill="#48A8EF" cx="164" cy="64" r="44"/><path d="M108 64c0-30.928 25.072-56 56-56s56 25.072 56 56H108z" fill="#48A8EF"/><path d="M108 64c0 30.928 25.072 56 56 56s56-25.072 56-56H108z" fill="#3E3C5C"/><path d="M36 64v11.896h176V64c0-26.51-21.49-48-48-48L36 32v32z" fill="#3E3C5C"/><path d="M212 64c0 26.51-21.49 48-48 48V64h48zm-48 48L36 96V64h128z" fill="#2F3242"/><path d="M243.333 64c0-30.928-25.072-56-56-56-3.18 0-6.298.265-9.333.774 26.485 4.444 46.667 27.478 46.667 55.226h18.666z" fill="#48A8EF"/><path d="M243.333 64c0 30.928-25.072 56-56 56-3.18 0-6.298-.265-9.333-.774 26.485-4.444 46.667-27.478 46.667-55.226h18.666zm-5 0c0-30.928-25.072-56-56-56-3.18 0-6.298.265-9.333.774 26.485 4.444 46.667 27.478 46.667 55.226h18.666z" fill="#3E3C5C"/><path d="M238.333 64c0 30.928-25.072 56-56 56-3.18 0-6.298-.265-9.333-.774 26.485-4.444 46.667-27.478 46.667-55.226h18.666z" fill="#2F3242"/><path d="M0 64c0-19.882 16.118-36 36-36s36 16.118 36 36H0z" fill="#B6D8F0"/><path d="M0 64c0 19.882 16.118 36 36 36s36-16.118 36-36H0z" fill="#48A8EF"/><path d="M8 64c0-15.464 12.536-28 28-28s28 12.536 28 28L36 76.959 8 64z" fill="#2F3242"/><path d="M8 64c0 15.464 12.536 28 28 28s28-12.536 28-28H8z" fill="#3E3C5C"/><path d="M44 37.16C55.566 40.602 64 51.316 64 64s-8.434 23.398-20 26.84C32.434 87.398 24 76.684 24 64s8.434-23.398 20-26.84z" fill="#2F3242"/></g><path d="M88 96c0-19.882-16.118-36-36-36-2.044 0-4.049.17-6 .498C63.026 63.354 76 78.162 76 96h12z" fill="#48A8EF"/><path d="M88 96c0 19.882-16.118 36-36 36-2.044 0-4.049-.17-6-.498C63.026 128.646 76 113.838 76 96h12zm-4 0c0-19.882-16.118-36-36-36-2.044 0-4.049.17-6 .498C59.026 63.354 72 78.162 72 96h12z" fill="#3E3C5C"/><path d="M84 96c0 19.882-16.118 36-36 36-2.044 0-4.049-.17-6-.498C59.026 128.646 72 113.838 72 96h12z" fill="#2F3242"/><path d="M168 100c0-8.837 7.163-16 16-16s16 7.163 16 16h-32z" fill="#48A8EF"/><path d="M168 100c0 8.837 7.163 16 16 16s16-7.163 16-16h-32z" fill="#3E3C5C"/><path fill="#3E3C5C" d="M184 100h8v16h-8z"/><path fill="#48A8EF" d="M184 84h8v16h-8z"/><path d="M174.667 100c0 8.837 7.163 16 16 16 8.836 0 16-7.163 16-16h-32zm0 0c0-8.837 7.163-16 16-16 8.836 0 16 7.163 16 16h-32z" fill="#2F3242"/><g transform="translate(101 120)"><mask id="j" fill="#fff"><use xlink:href="#i"/></mask><use fill="#D37739" xlink:href="#i"/><path fill="#A1674F" mask="url(#j)" d="M-9 16h160v4H-9z"/><path fill="#F09F2E" mask="url(#j)" d="M-9 20h160v4H-9z"/><path fill="#A1674F" mask="url(#j)" d="M-9 32h160v4H-9z"/><path fill="#F09F2E" mask="url(#j)" d="M-9 36h160v4H-9zm8-36h32v8H-1z"/></g><g transform="translate(117 120)"><mask id="l" fill="#fff"><use xlink:href="#k"/></mask><use fill="#8C5A46" xlink:href="#k"/><path fill="#844840" mask="url(#l)" d="M-1 32h160v4H-1z"/><path fill="#A1674F" mask="url(#l)" d="M-1 36h160v4H-1z"/><path fill="#844840" mask="url(#l)" d="M-1 16h160v4H-1z"/><path fill="#A1674F" mask="url(#l)" d="M-1 20h160v4H-1z"/><path fill="#844840" mask="url(#l)" d="M-1 0h160v4H-1z"/><path fill="#A1674F" mask="url(#l)" d="M-1 4h160v4H-1z"/></g><g transform="translate(124 120)"><mask id="n" fill="#fff"><use xlink:href="#m"/></mask><use fill="#F09F2E" xlink:href="#m"/><path fill="#D37739" mask="url(#n)" d="M1 7.75h27v3.5H1z"/></g><g transform="translate(124 152)"><mask id="p" fill="#fff"><use xlink:href="#o"/></mask><use fill="#D37739" xlink:href="#o"/><path fill="#A1674F" mask="url(#p)" d="M1 20.75h27v3.5H1z"/></g><path fill="#F09F2E" d="M156 120h16v32h-16z"/><path fill="#D37739" d="M156 152h16v32h-16z"/><path d="M140 152c0-17.673 14.327-32 32-32 17.673 0 32 14.327 32 32h-64z" fill="#A1674F"/><path d="M140 152c0 17.673 14.327 32 32 32 17.673 0 32-14.327 32-32h-64z" fill="#8C5A46"/><g transform="translate(140 120)"><mask id="r" fill="#fff"><use xlink:href="#q"/></mask><path d="M36 12v8h-4v-4a4 4 0 0 1 4-4z" fill="#3E3C5C" mask="url(#r)"/><path d="M40 12v8h-4v-4a4 4 0 0 1 4-4z" fill="#2F3242" mask="url(#r)" transform="matrix(-1 0 0 1 76 0)"/><path d="M36 40a4 4 0 0 1 4 4v4h-8v-4a4 4 0 0 1 4-4z" fill="#2F3242" mask="url(#r)" transform="matrix(1 0 0 -1 0 88)"/><path fill="#8C5A46" fill-rule="nonzero" mask="url(#r)" d="M32 28.464l-32-32L-3.536 0 32 35.536 67.536 0 64-3.536z"/><path fill="#844840" fill-rule="nonzero" mask="url(#r)" d="M67.536 64L32 28.464-3.536 64 0 67.536l32-32 32 32z"/></g><path d="M160 152c0-6.627 5.373-12 12-12s12 5.373 12 12h-24z" fill="#48A8EF"/><path d="M160 152c0 6.627 5.373 12 12 12s12-5.373 12-12h-24z" fill="#3E3C5C"/><path fill="#3E3C5C" d="M172 152h6v12h-6z"/><path fill="#48A8EF" d="M172 140h6v12h-6z"/><path d="M168 152c0 6.627 5.373 12 12 12s12-5.373 12-12h-24z" fill="#2F3242"/><path d="M168 152c0-6.627 5.373-12 12-12s12 5.373 12 12h-24z" fill="#3E3C5C"/><g transform="translate(212 120)"><mask id="t" fill="#fff"><use xlink:href="#s"/></mask><use fill="#F09F2E" xlink:href="#s"/><path fill="#D37739" mask="url(#t)" d="M1 7.75h27v3.5H1z"/></g><g transform="translate(212 152)"><mask id="v" fill="#fff"><use xlink:href="#u"/></mask><use fill="#D37739" xlink:href="#u"/><path fill="#A1674F" mask="url(#v)" d="M1 20.75h27v3.5H1z"/></g><path fill="#F09F2E" d="M244 120h16v32h-16z"/><path fill="#D37739" d="M244 152h16v32h-16z"/><path d="M228 152c0-17.673 14.327-32 32-32 17.673 0 32 14.327 32 32h-64z" fill="#A1674F"/><path d="M228 152c0 17.673 14.327 32 32 32 17.673 0 32-14.327 32-32h-64z" fill="#8C5A46"/><g transform="translate(228 120)"><mask id="x" fill="#fff"><use xlink:href="#w"/></mask><path d="M36 12v8h-4v-4a4 4 0 0 1 4-4z" fill="#3E3C5C" mask="url(#x)"/><path d="M40 12v8h-4v-4a4 4 0 0 1 4-4z" fill="#2F3242" mask="url(#x)" transform="matrix(-1 0 0 1 76 0)"/><path d="M36 40a4 4 0 0 1 4 4v4h-8v-4a4 4 0 0 1 4-4z" fill="#2F3242" mask="url(#x)" transform="matrix(1 0 0 -1 0 88)"/><path fill="#8C5A46" fill-rule="nonzero" mask="url(#x)" d="M32 28.464l-32-32L-3.536 0 32 35.536 67.536 0 64-3.536z"/><path fill="#844840" fill-rule="nonzero" mask="url(#x)" d="M67.536 64L32 28.464-3.536 64 0 67.536l32-32 32 32z"/></g><path d="M248 152c0-6.627 5.373-12 12-12s12 5.373 12 12h-24z" fill="#48A8EF"/><path d="M248 152c0 6.627 5.373 12 12 12s12-5.373 12-12h-24z" fill="#3E3C5C"/><path fill="#3E3C5C" d="M260 152h6v12h-6z"/><path fill="#48A8EF" d="M260 140h6v12h-6z"/><path d="M256 152c0 6.627 5.373 12 12 12s12-5.373 12-12h-24z" fill="#2F3242"/><path d="M256 152c0-6.627 5.373-12 12-12s12 5.373 12 12h-24z" fill="#3E3C5C"/><path d="M201.766 96H220a8 8 0 0 1 8 8v8a8 8 0 0 1-8 8h-32l6.177-18.53a8 8 0 0 1 7.59-5.47z" fill="#D37739"/><g transform="translate(116 96)"><mask id="z" fill="#fff"><use xlink:href="#y"/></mask><use fill="#8C5A46" xlink:href="#y"/><path fill="#844840" mask="url(#z)" d="M0 8h160v4H0z"/><path fill="#A1674F" mask="url(#z)" d="M0 12h160v4H0z"/></g><path fill="#8C5A46" d="M180 108h30v12h-30z"/><path d="M180 100c0-6.627 5.373-12 12-12s12 5.373 12 12h-24z" fill="#48A8EF"/><path d="M180 100c0 6.627 5.373 12 12 12s12-5.373 12-12h-24z" fill="#3E3C5C"/><path fill="#3E3C5C" d="M192 100h14v12h-14z"/><path fill="#48A8EF" d="M192 88h14v12h-14z"/><path d="M196 100c0 6.627 5.373 12 12 12s12-5.373 12-12h-24z" fill="#2F3242"/><path d="M196 100c0-6.627 5.373-12 12-12s12 5.373 12 12h-24z" fill="#3E3C5C"/><g transform="translate(132 96)"><mask id="B" fill="#fff"><use xlink:href="#A"/></mask><use fill="#D37739" xlink:href="#A"/><path fill="#A1674F" mask="url(#B)" d="M-16 8h160v4H-16z"/><path fill="#F09F2E" mask="url(#B)" d="M-16 12h160v4H-16zM0 0h32v8H0z"/></g><g transform="translate(148 96)"><mask id="D" fill="#fff"><use xlink:href="#C"/></mask><use fill="#8C5A46" xlink:href="#C"/><path fill="#844840" mask="url(#D)" d="M-32 8h160v4H-32z"/><path fill="#A1674F" mask="url(#D)" d="M-32 12h160v4H-32z"/></g><path d="M228 16c-8.837 0-16 7.163-16 16" stroke="#D37739" stroke-width="4"/></g><path d="M313 376c1.647-4.66 6.092-8 11.317-8 5.225 0 9.67 3.34 11.317 8H313z" fill="#FFE2A8"/></g></svg>