<svg width="640" height="384" xmlns="http://www.w3.org/2000/svg" xmlns:xlink="http://www.w3.org/1999/xlink"><defs><path d="M8 0h32a8 8 0 0 1 8 8v8a8 8 0 0 1-8 8H8a8 8 0 0 1-8-8V8a8 8 0 0 1 8-8z" id="a"/></defs><g fill="none" fill-rule="evenodd"><g transform="translate(264 61)"><path d="M0 189h48v8a8 8 0 0 1-8 8H0v-16z" fill="#3E3C5C"/><path d="M7.5 204.5v31.064" stroke="#A1674F" stroke-width="24" stroke-dasharray="4,8"/><path d="M48 205H8a8 8 0 0 0-8 8v20c0 8.837 7.163 16 16 16h32a8 8 0 0 0 8-8v-28a8 8 0 0 0-8-8z" fill="#FFE2A8"/><path d="M26 205h-2v24a4 4 0 0 0 4 4h8a4 4 0 0 0 4-4v-10c0-7.732-6.268-14-14-14z" fill="#E7C391"/><path d="M24 189c0-44.183 35.817-80 80-80" stroke="#FFE2A8" stroke-width="48"/><path d="M40 189c0-35.346 28.654-64 64-64" stroke="#E7C391" stroke-width="16"/><g transform="translate(56 261)"><path fill="#A1674F" d="M16 8h16l8 24H24z"/><path fill="#844840" d="M32 8h16l8 24H40z"/><path fill="#2F3242" d="M64 56H16l24-16h16z"/><path fill="#3E3C5C" d="M24 32h16v8H24zM0 56h24l16-16H24z"/><path fill="#2F3242" d="M40 32h16v8H40z"/><circle fill="#A1674F" cx="24" cy="16" r="16"/><circle fill="#844840" cx="52" cy="12" r="12"/></g><g transform="translate(160 261)"><path fill="#A1674F" d="M16 8h16l8 24H24z"/><path fill="#844840" d="M32 8h16l8 24H40z"/><path fill="#2F3242" d="M64 56H16l24-16h16z"/><path fill="#3E3C5C" d="M24 32h16v8H24zM0 56h24l16-16H24z"/><path fill="#2F3242" d="M40 32h16v8H40z"/><circle fill="#A1674F" cx="24" cy="16" r="16"/><circle fill="#844840" cx="52" cy="12" r="12"/></g><path fill="#48A8EF" d="M72 301h48l-8-8H80zm104 0h48l-8-8h-32z"/><g transform="translate(8)"><path d="M112 85h64c35.346 0 64 28.654 64 64v64H48v-64c0-35.346 28.654-64 64-64z" fill="#E7C391"/><path d="M112 85h48c35.346 0 64 28.654 64 64v64H48v-64c0-35.346 28.654-64 64-64z" fill="#FFE2A8"/><path fill="#FFE2A8" d="M106 85h86v48h-86zm-26 72v48H32c0-26.51 21.49-48 48-48z"/><path d="M241 149v48h-48c0-26.51 21.49-48 48-48z" fill="#E7C391"/><path d="M0 189c0-53.02 42.98-96 96-96" stroke="#A1674F" stroke-width="24" stroke-dasharray="4,8"/><circle stroke="#FF8A62" stroke-width="5" cx="72" cy="157" r="5.5"/><circle stroke="#FF8A62" stroke-width="5" cx="176" cy="157" r="5.5"/><path d="M88 277h104c26.51 0 48-21.49 48-48v-8H32c0 30.928 25.072 56 56 56z" fill="#A1674F"/><path fill="#3E3C5C" d="M32 197h208v24H32z"/><g transform="translate(80)"><path d="M134.038 39.425c-3.295-9.321-12.184-16-22.634-16-10.45 0-19.34 6.679-22.635 16h45.27z" fill="#34A362"/><path d="M88.77 39.42c8.92-4.261 19.929-2.698 27.318 4.692 7.389 7.389 8.953 18.397 4.691 27.318L88.77 39.42z" fill="#31825C"/><circle fill="#34A362" cx="56" cy="45" r="40"/><g transform="translate(0 25)"><circle stroke="#FFC552" stroke-width="5" cx="98" cy="42" r="7.5"/><rect fill="#3E3C5C" y="40" width="104" height="76" rx="16"/><path d="M40 8h24c13.255 0 24 10.745 24 24v24c0 8.837-7.163 16-16 16H32c-8.837 0-16-7.163-16-16V32C16 18.745 26.745 8 40 8z" fill="#FFE2A8"/><path d="M40 0h24c13.255 0 24 10.745 24 24v24c0 8.837-7.163 16-16 16H32c-8.837 0-16-7.163-16-16V24C16 10.745 26.745 0 40 0z" fill="#FFE2A8"/><path fill="#3E3C5C" d="M24 24h8v8h-8z"/><path fill="#34A362" d="M56 24h8v8h-8z"/><path d="M88 32a8 8 0 1 1 0 16" fill="#FFE2A8"/><rect fill="#3E3C5C" x="48" y="12" width="32" height="16" rx="4"/><path fill="#3E3C5C" d="M12 48h78v40H12z"/><rect fill="#3E3C5C" x="16" y="40" width="64" height="40" rx="16"/><rect fill="#3E3C5C" x="16" y="64" width="56" height="40" rx="16"/><path d="M16 32a8 8 0 1 0 0 16" fill="#FFE2A8"/><path fill="#34A362" d="M24 24h8v8h-8z"/><rect fill="#3E3C5C" x="8" y="12" width="32" height="16" rx="4"/><rect fill="#FF8A62" x="32" y="24" width="16" height="24" rx="8"/></g></g></g><circle stroke="#FFC552" stroke-width="8" cx="124" cy="209" r="16"/><path stroke="#A1674F" stroke-width="3" stroke-linecap="square" d="M96 172l8-8 8 8 8-8 8 8 8-8 8 8 8-8 8 8m-64-16l8-8 8 8 8-8 8 8 8-8 8 8 8-8 8 8"/></g><path d="M512 218c0-26.51-21.49-48-48-48" stroke="#FFE2A8" stroke-width="48"/><path d="M448 242h-28a4 4 0 0 1-4-4v-8a4 4 0 0 1 4-4h12c8.837 0 16 7.163 16 16z" fill="#E7C391"/><path fill="#F09F2E" d="M368 218h48l8 72h-64z"/><path d="M368 218h48a4 4 0 0 1 4 4v4h-56v-4a4 4 0 0 1 4-4z" fill="#FFC552"/><path d="M400 218c0-8.837-7.163-16-16-16s-16 7.163-16 16m40 0a8 8 0 1 0-16 0" fill="#FFF"/><path d="M360 282h64a4 4 0 0 1 4 4v4h-72v-4a4 4 0 0 1 4-4z" fill="#FFC552"/><path d="M464 266c26.51 0 48-21.49 48-48" stroke="#FFE2A8" stroke-width="48"/><path d="M448 242v40a8 8 0 0 1-8 8h-20c-8.837 0-16-7.163-16-16v-32a8 8 0 0 1 8-8h28a8 8 0 0 1 8 8z" fill="#FFE2A8"/><path d="M448.5 281.5h-31.064" stroke="#A1674F" stroke-width="24" stroke-dasharray="4,8"/><path fill="#3E3C5C" d="M464 242v48h-16v-48z"/><g stroke-dasharray="4,8"><g transform="matrix(-1 0 0 1 280 6)"><path d="M112 84a8 8 0 0 1 8 8v20a8 8 0 1 1-16 0V92a8 8 0 0 1 8-8z" fill="#A1674F"/><path fill="#844840" d="M169.242 56H184v61h-48V86.389l1.426 1.426z"/><path d="M111.675 47.357c-3.865 4.714-3.597 11.683.804 16.084a11.948 11.948 0 0 0 8.48 3.514 4 4 0 1 1-.002 8 19.946 19.946 0 0 1-14.135-5.857c-7.331-7.332-7.781-18.94-1.349-26.795a4 4 0 0 0 6.042 5.212l.16-.158z" fill="#844840" fill-rule="nonzero"/><path d="M135.798 94.205A12.05 12.05 0 0 0 136 92v-8c0-6.627-5.373-12-12-12s-12 5.373-12 12v8c0 5.225 3.34 9.67 8 11.317V96a8 8 0 0 1 15.798-1.795z" fill="#844840"/><path fill="#844840" d="M120 72h4v5.6h-4z"/><path d="M176 84.8a8 8 0 0 1 8 8v18.4a8 8 0 1 1-16 0V92.8a8 8 0 0 1 8-8z" fill="#A1674F"/><path d="M139.893 100.37a8 8 0 0 1 10.978 2.737l16.07 26.743a8 8 0 1 1-13.716 8.241l-16.069-26.744a8 8 0 0 1 2.737-10.977z" fill="#844840"/><path d="M160 127.2a8 8 0 0 1 8 8v8.8a8 8 0 1 1-16 0v-8.8a8 8 0 0 1 8-8z" fill="#A1674F"/><path d="M120 72a8 8 0 0 1 8 8v16a8 8 0 1 1-16 0V80a8 8 0 0 1 8-8z" fill="#844840"/><g transform="translate(164.8 52)"><circle fill="#844840" cx="14.4" cy="14.4" r="14.4"/><path d="M9.6.82c5.593 1.976 9.6 7.31 9.6 13.58 0 6.27-4.007 11.604-9.6 13.58C4.007 26.005 0 20.67 0 14.4 0 8.13 4.007 2.796 9.6.82z" fill="#A1674F"/></g><path d="M183.2 61.6h-5.6c-.41 0-.819.078-1.204.234-1.19.503-1.996 1.64-1.996 2.966a3.19 3.19 0 0 0 .937 2.263l3.96 3.96 3.903-3.903V61.6z" fill="#FFC552"/><path d="M183.2 61.6h5.6c.41 0 .819.078 1.204.234 1.19.503 1.996 1.64 1.996 2.966a3.19 3.19 0 0 1-.937 2.263l-3.96 3.96-3.903-3.903V61.6z" fill="#F09F2E"/><path d="M183.2 64.8a5.6 5.6 0 0 0-5.6 5.6v.8a5.6 5.6 0 1 0 11.2 0v-.8a5.6 5.6 0 0 0-5.6-5.6zM169.6 68a3.2 3.2 0 1 1 0-6.4.8.8 0 0 1 .8.8v4.8a.8.8 0 0 1-.8.8z" fill="#FFC552"/><path d="M192 61.6a3.2 3.2 0 1 1 0 6.4v-6.4z" fill="#844840"/><path d="M97.675 75.357c-3.865 4.714-3.597 11.683.804 16.084a11.948 11.948 0 0 0 8.48 3.514 4 4 0 0 1-.002 8 19.946 19.946 0 0 1-14.135-5.857c-7.331-7.332-7.781-18.94-1.349-26.795a4 4 0 0 0 6.042 5.212l.16-.158z" fill="#844840" fill-rule="nonzero"/><path d="M106 72a11.948 11.948 0 0 0-8.485 3.515 4 4 0 1 1-5.657-5.657C95.658 66.058 100.734 64 106 64h32c.202 0 .4.015.595.044a11.938 11.938 0 0 0 7.232-3.45c4.687-4.686 4.687-12.284 0-16.97-4.686-4.687-12.284-4.687-16.97 0a4 4 0 1 1-5.657-5.658c7.81-7.81 20.474-7.81 28.284 0 7.81 7.81 7.81 20.474 0 28.285a19.946 19.946 0 0 1-14.126 5.858 4.01 4.01 0 0 1-.933-.109H106z" fill="#844840" fill-rule="nonzero"/><path d="M200 96c0 33.137-26.863 60-60 60H60c-33.137 0-60-26.863-60-60h200zm-8 0h-48c0 6.627 10.745 12 24 12s24-5.373 24-12zM32 96H8c0 6.627 5.373 12 12 12s12-5.373 12-12z" fill="#3E3C5C"/><path d="M138 171a5 5 0 1 0 0-10 5 5 0 0 0 0 10zm0 5c-5.523 0-10-4.477-10-10s4.477-10 10-10 10 4.477 10 10-4.477 10-10 10z" fill="#FFC552" fill-rule="nonzero"/><path d="M8 96a4 4 0 1 0-8 0" fill="#3E3C5C"/><path d="M64 196h80c13.255 0 24 10.745 24 24v72H40v-72c0-13.255 10.745-24 24-24z" fill="#C94848"/><path fill="#FFF" d="M40 268h128v8H40zm0 16h128v8H40z"/><path fill="#3E3C5C" d="M40 292h128v16H40z"/><path fill="#F09F2E" d="M72 292h24v16H72z"/><path d="M40 308h128c0 13.255-10.745 24-24 24H64c-13.255 0-24-10.745-24-24z" fill="#34A362"/><path fill="#FFF" d="M40 252h128v8H40zm0-16h128v8H40zm0-16h128v8H40z"/><path fill="#34A362" d="M56 324h16v16H56z"/><path fill="#31825C" d="M64 332h8v8h-8z"/><path fill="#FFC552" d="M56 340h16l-8 32z"/><path fill="#F09F2E" d="M64 340h8l-8 32z"/><path d="M48 196c-8.837 0-16 7.163-16 16v112h16V196zm72 0h24c13.255 0 24 10.745 24 24v104h-48V196z" fill="#3E3C5C"/><circle fill="#3E3C5C" cx="136" cy="248" r="52"/><path fill="#34A362" d="M128 332h16v16h-16z"/><path fill="#31825C" d="M136 332h8v16h-8z"/><path fill="#3E3C5C" d="M128 348h16v24h-16z"/><path fill="#48A8EF" d="M120 348h32l-8-8h-16z"/><path fill="#2F3242" d="M152 372h-48l24-16h16z"/><path fill="#3E3C5C" d="M104 372h16l16-16h-8z"/><path fill="#2F3242" d="M136 348h8v16h-8z"/><path d="M200 96a4 4 0 1 0-8 0" fill="#3E3C5C"/><path d="M56 164h72c8.837 0 16 7.163 16 16v8c0 8.837-7.163 16-16 16H56c-8.837 0-16-7.163-16-16v-8c0-8.837 7.163-16 16-16z" fill="#F15F55"/><path d="M48 188h56c13.255 0 24 10.745 24 24s-10.745 24-24 24H48c-13.255 0-24-10.745-24-24s10.745-24 24-24z" fill="#F15F55"/><path d="M81 180h40c17.673 0 32 14.327 32 32 0 17.673-14.327 32-32 32H81c-17.673 0-32-14.327-32-32 0-17.673 14.327-32 32-32z" fill="#F15F55"/><path d="M80 180c26.51 0 48 21.49 48 48s-21.49 48-48 48-48-21.49-48-48 21.49-48 48-48z" fill="#F15F55"/><path d="M80 132h24c13.255 0 24 10.745 24 24v24c0 8.837-7.163 16-16 16H72c-8.837 0-16-7.163-16-16v-24c0-13.255 10.745-24 24-24zm48 24a8 8 0 1 1 0 16v-16z" fill="#FFE2A8"/><path fill="#3E3C5C" d="M75.1 121.272l50.912 50.912-2.828 2.828-50.912-50.911z"/><circle fill="#3E3C5C" cx="104" cy="152" r="12"/><path d="M92 132h24a4 4 0 0 1 4 4v8a4 4 0 0 1-4 4H92a4 4 0 0 1-4-4v-8a4 4 0 0 1 4-4zm-40 0h24a4 4 0 0 1 4 4v8a4 4 0 0 1-4 4H52a4 4 0 0 1-4-4v-8a4 4 0 0 1 4-4z" fill="#F15F55"/><path d="M120 136a4 4 0 0 0-4-4H92a4 4 0 0 0-4 4v4h32v-4zm-40 0a4 4 0 0 0-4-4H52a4 4 0 0 0-4 4v4h32v-4z" fill="#FF8A62"/><path fill="#F15F55" d="M52 172h78v40H52z"/><path d="M72 164h32c8.837 0 16 7.163 16 16v8c0 8.837-7.163 16-16 16H72c-8.837 0-16-7.163-16-16v-8c0-8.837 7.163-16 16-16z" fill="#F15F55"/><g transform="translate(64 172)"><mask id="b" fill="#fff"><use xlink:href="#a"/></mask><use fill="#3E3C5C" xlink:href="#a"/><path d="M8 0h8v4a4 4 0 1 1-8 0V0zm16 0h8v4a4 4 0 1 1-8 0V0zm16 0h8v4a4 4 0 1 1-8 0V0zM16 24h8v-4a4 4 0 1 0-8 0v4zM0 24h8v-4a4 4 0 1 0-8 0v4zm32 0h8v-4a4 4 0 1 0-8 0v4z" fill="#FFF" mask="url(#b)"/></g><path d="M80 148a8 8 0 0 1 8 8v8a8 8 0 1 1-16 0v-8a8 8 0 0 1 8-8z" fill="#FF8A62"/><path d="M56 156a8 8 0 1 0 0 16" fill="#FFE2A8"/><path d="M144 96c0-30.928-25.072-56-56-56S32 65.072 32 96v12.25h112V96z" fill="#3E3C5C"/><path d="M80 92c11.046 0 20-.954 20-12s-8.954-20-20-20-20 8.954-20 20 8.954 12 20 12z" fill="#FFF"/><circle fill="#3E3C5C" cx="72" cy="72" r="4"/><circle fill="#3E3C5C" cx="88" cy="72" r="4"/><path fill="#FFF" d="M68 84h24v16H68z"/><path fill="#3E3C5C" d="M64 148h8v8h-8z"/><circle fill="#FFC552" cx="64" cy="364" r="8"/><path d="M64 372a8 8 0 1 0 0-16" fill="#F09F2E"/><path fill="#48A8EF" d="M140 284h32v8h-32z"/><path fill="#3E3C5C" d="M140 292h32v16h-32z"/></g><path fill="#844840" d="M440 330H144v48h296z"/><path fill="#3E3C5C" d="M440 330H144v8h296z"/><path d="M480 298H96v24a8 8 0 0 0 8 8h368a8 8 0 0 0 8-8v-24z" fill="#844840"/><path fill="#8C5A46" d="M420 298v32H168v-32zm-316-8h368a8 8 0 0 1 8 8H96a8 8 0 0 1 8-8z"/><path d="M168 298h248a8 8 0 0 0 8-8H160a8 8 0 0 0 8 8z" fill="#A1674F"/><path d="M192 298h208a8 8 0 0 0 8-8H184a8 8 0 0 0 8 8z" fill="#D37739"/><path fill="#844840" d="M292 298v32h-4v-32z"/><path fill="#A1674F" d="M296 298v32h-4v-32z"/><path fill="#844840" d="M228 298v32h-4v-32z"/><path fill="#A1674F" d="M232 298v32h-4v-32z"/><path fill="#844840" d="M164 298v32h-4v-32z"/><path fill="#A1674F" d="M168 298v32h-4v-32z"/><path fill="#844840" d="M356 298v32h-4v-32z"/><path fill="#A1674F" d="M360 298v32h-4v-32z"/><path fill="#844840" d="M420 298v32h-4v-32z"/><path fill="#A1674F" d="M424 298v32h-4v-32zm-132-8v8h-4v-8z"/><path fill="#F09F2E" d="M296 290v8h-4v-8z"/><path fill="#A1674F" d="M228 290v8h-4v-8z"/><path fill="#F09F2E" d="M232 290v8h-4v-8z"/><path fill="#844840" d="M164 290v8h-4v-8z"/><path fill="#A1674F" d="M168 290v8h-4v-8zm188 0v8h-4v-8z"/><path fill="#F09F2E" d="M360 290v8h-4v-8z"/><path fill="#844840" d="M420 290v8h-4v-8z"/><path fill="#A1674F" d="M424 290v8h-4v-8z"/><g transform="translate(264 226)"><circle fill="#FF8A62" cx="16" cy="16" r="16"/><circle fill="#FFC552" cx="16" cy="16" r="12"/><circle fill="#FFE2A8" cx="16" cy="16" r="8"/><circle fill="#FFF" cx="16" cy="16" r="4"/><path fill="#FFF" d="M16 0l4 16h-8z"/></g><path d="M276 250h8a4 4 0 0 1 4 4v36h-16v-36a4 4 0 0 1 4-4zm20 40h-8v-8a8 8 0 0 0 8 8zm-32 0h8v-8a8 8 0 0 1-8 8z" fill="#FFF"/><g transform="translate(288 242)"><circle fill="#FF8A62" cx="16" cy="16" r="16"/><circle fill="#FFC552" cx="16" cy="16" r="12"/><circle fill="#FFE2A8" cx="16" cy="16" r="8"/><circle fill="#FFF" cx="16" cy="16" r="4"/><path fill="#FFF" d="M16 0l4 16h-8z"/></g><path d="M300 266h8a4 4 0 0 1 4 4v20h-16v-20a4 4 0 0 1 4-4zm20 24h-8v-8a8 8 0 0 0 8 8zm-32 0h8v-8a8 8 0 0 1-8 8z" fill="#FFF"/><path fill="#F09F2E" d="M248 218h-48l-8 72h64z"/><path fill="#F09F2E" d="M224 218h-24l-8 72h32z"/><path d="M248 218h-48a4 4 0 0 0-4 4v4h56v-4a4 4 0 0 0-4-4z" fill="#FFC552"/><path d="M216 218c0-8.837 7.163-16 16-16s16 7.163 16 16m-40 0a8 8 0 1 1 16 0" fill="#FFF"/><path d="M256 282h-64a4 4 0 0 0-4 4v4h72v-4a4 4 0 0 0-4-4z" fill="#FFC552"/><path d="M176 250v8a4 4 0 0 0 4 4h8a4 4 0 0 0 4-4v-8a4 4 0 0 0-4-4h-8a4 4 0 0 0-4 4z" fill="#E7C391"/><path d="M168 270c0 11.046 8.954 20 20 20h4c8.837 0 16-7.163 16-16v-16a8 8 0 0 0-8-8h-12c-11.046 0-20 8.954-20 20z" fill="#FFE2A8"/><path fill="#FFE2A8" d="M172 268v22h20v-22z"/><path fill="#48A8EF" d="M168 250v40h8v-40z"/><path fill="#3E3C5C" d="M128 250v40h40v-40z"/></g><path d="M464 282c35.346 0 64-28.654 64-64 0-35.346-28.654-64-64-64" stroke="#A1674F" stroke-width="24" stroke-dasharray="4,8"/></g></svg>