<?xml version="1.0" encoding="UTF-8" standalone="no"?>
<svg width="640px" height="384px" viewBox="0 0 640 384" version="1.1" xmlns="http://www.w3.org/2000/svg" xmlns:xlink="http://www.w3.org/1999/xlink">
    <!-- Generator: Sketch 47.1 (45422) - http://www.bohemiancoding.com/sketch -->
    <title>capitan+cannon</title>
    <desc>Created with Sketch.</desc>
    <defs>
        <rect id="path-1" x="0" y="0" width="640" height="384"></rect>
        <path d="M0,32 C0,14.326888 14.326888,0 32,0 C49.673112,0 64,14.326888 64,32 L3.55271368e-15,32 Z" id="path-2"></path>
        <path d="M0,0 C0,17.673112 14.326888,32 32,32 C49.673112,32 64,17.673112 64,0 L0,0 Z" id="path-4"></path>
        <circle id="path-6" cx="32" cy="32" r="32"></circle>
        <path d="M13.7770167,0 L144.222983,0 L144.222983,3.55271368e-15 C148.133697,1.67279717e-14 151.471217,2.82730434 152.114135,6.6848081 L157.447468,38.6848081 L157.447468,38.6848081 C158.173828,43.0429707 155.229671,47.164791 150.871509,47.8911514 C150.436857,47.9635933 149.996964,48 149.556317,48 L8.44368337,48 L8.44368337,48 C4.02540538,48 0.443683374,44.418278 0.443683374,40 C0.443683374,39.5593531 0.480090082,39.1194595 0.552531983,38.6848081 L5.88586532,6.6848081 L5.88586532,6.6848081 C6.52878261,2.82730434 9.86630348,2.4947432e-15 13.7770167,1.77635684e-15 Z" id="path-8"></path>
        <path d="M13.7770167,0 L144.222983,0 L144.222983,3.55271368e-15 C148.133697,1.67279717e-14 151.471217,2.82730434 152.114135,6.6848081 L157.447468,38.6848081 L157.447468,38.6848081 C158.173828,43.0429707 155.229671,47.164791 150.871509,47.8911514 C150.436857,47.9635933 149.996964,48 149.556317,48 L8.44368337,48 L8.44368337,48 C4.02540538,48 0.443683374,44.418278 0.443683374,40 C0.443683374,39.5593531 0.480090082,39.1194595 0.552531983,38.6848081 L5.88586532,6.6848081 L5.88586532,6.6848081 C6.52878261,2.82730434 9.86630348,2.4947432e-15 13.7770167,1.77635684e-15 Z" id="path-10"></path>
        <path d="M13.7770167,-2.66453526e-15 L144.222983,-2.66453526e-15 L144.222983,-1.77635684e-15 C148.133697,-2.4947432e-15 151.471217,2.82730434 152.114135,6.6848081 L157.447468,38.6848081 L157.447468,38.6848081 C158.173828,43.0429707 155.229671,47.164791 150.871509,47.8911514 C150.436857,47.9635933 149.996964,48 149.556317,48 L8.44368337,48 L8.44368337,48 C4.02540538,48 0.443683374,44.418278 0.443683374,40 C0.443683374,39.5593531 0.480090082,39.1194595 0.552531983,38.6848081 L5.88586532,6.6848081 L5.88586532,6.6848081 C6.52878261,2.82730434 9.86630348,-4.61068415e-15 13.7770167,-5.32907052e-15 Z" id="path-12"></path>
        <path d="M0,32 C0,14.326888 14.326888,0 32,0 C49.673112,0 64,14.326888 64,32 L3.55271368e-15,32 Z" id="path-14"></path>
        <path d="M0,0 C0,17.673112 14.326888,32 32,32 C49.673112,32 64,17.673112 64,0 L0,0 Z" id="path-16"></path>
        <circle id="path-18" cx="32" cy="32" r="32"></circle>
        <path d="M0,32 C0,14.326888 14.326888,0 32,0 C49.673112,0 64,14.326888 64,32 L3.55271368e-15,32 Z" id="path-20"></path>
        <path d="M0,0 C0,17.673112 14.326888,32 32,32 C49.673112,32 64,17.673112 64,0 L0,0 Z" id="path-22"></path>
        <circle id="path-24" cx="32" cy="32" r="32"></circle>
        <path d="M101.766074,0 L114.233926,0 L114.233926,3.55271368e-15 C117.67737,2.92016341e-15 120.73448,2.20344076 121.823393,5.47017787 L128,24 L88,24 L94.1766074,5.47017787 L94.1766074,5.47017787 C95.2655197,2.20344076 98.3226305,6.32550266e-16 101.766074,0 Z" id="path-26"></path>
        <path d="M13.7660738,0 L32,0 L32,0 C36.418278,-8.11624501e-16 40,3.581722 40,8 L40,16 L40,16 C40,20.418278 36.418278,24 32,24 L0,24 L6.17660738,5.47017787 L6.17660738,5.47017787 C7.26551975,2.20344076 10.3226305,6.32550266e-16 13.7660738,0 Z" id="path-28"></path>
        <path d="M13.7660738,0 L26.2339262,0 L26.2339262,3.55271368e-15 C29.6773695,2.92016341e-15 32.7344803,2.20344076 33.8233926,5.47017787 L40,24 L0,24 L6.17660738,5.47017787 L6.17660738,5.47017787 C7.26551975,2.20344076 10.3226305,-2.92016341e-15 13.7660738,-3.55271368e-15 Z" id="path-30"></path>
    </defs>
    <g id="Symbols" stroke="none" stroke-width="1" fill="none" fill-rule="evenodd">
        <g id="capitan+cannon">
            <g transform="translate(320.000000, 193.500000) scale(-1, 1) translate(-320.000000, -193.500000) ">
                <g id="size" opacity="0">
                    <use fill="#D8D8D8" fill-rule="evenodd" xlink:href="#path-1"></use>
                    <rect stroke="#979797" stroke-width="1" x="0.5" y="0.5" width="639" height="383"></rect>
                </g>
                <g id="pirate" transform="translate(308.000000, 210.000000) scale(-1, 1) translate(-308.000000, -210.000000) translate(108.000000, 44.000000)">
                    <path d="M277.675137,35.3572185 C273.81007,40.0708815 274.078021,47.0397785 278.47899,51.4407473 C280.761421,53.7231783 283.795484,54.9542426 286.959596,54.9554651 C289.168735,54.9563186 290.958904,56.7478714 290.958051,58.9570102 C290.957197,61.166149 289.165644,62.956318 286.956506,62.9554645 C281.692749,62.9534308 276.619509,60.8949748 272.822136,57.0976016 C265.490592,49.7660577 265.041019,38.1586053 271.473417,30.3026607 C270.308467,31.8687938 270.436616,34.0934705 271.857864,35.5147186 C273.419962,37.0768158 275.952621,37.0768158 277.514719,35.5147186 C277.567788,35.4616494 277.621263,35.4091486 277.675137,35.3572185 L277.675137,35.3572185 Z" id="Combined-Shape" fill="#844840" fill-rule="nonzero"></path>
                    <g id="Group-37" transform="translate(0.000000, 328.000000)" fill="#D5E9F6">
                        <rect id="Rectangle-23" x="220" y="0" width="128" height="4" rx="2"></rect>
                        <rect id="Rectangle-23" x="0" y="0" width="296" height="4" rx="2"></rect>
                    </g>
                    <g id="Group-3" transform="translate(356.000000, 220.000000)">
                        <g id="Group-16">
                            <rect id="Rectangle-17" fill="#E7C391" x="0" y="8" width="16" height="16" rx="8"></rect>
                            <path d="M24,0 L24,0 L24,0 C35.045695,-2.02906125e-15 44,8.954305 44,20 L44,24 L44,24 C44,32.836556 36.836556,40 28,40 L12,40 L12,40 C7.581722,40 4,36.418278 4,32 L4,20 L4,20 C4,8.954305 12.954305,2.02906125e-15 24,0 Z" id="Rectangle-17" fill="#FFE2A8"></path>
                        </g>
                    </g>
                    <path d="M380,56 C380,89.137085 353.137085,116 320,116 L240,116 C206.862915,116 180,89.137085 180,56 L380,56 Z M372,56 L324,56 C324,62.627417 334.745166,68 348,68 C361.254834,68 372,62.627417 372,56 Z M212,56 L188,56 C188,62.627417 193.372583,68 200,68 C206.627417,68 212,62.627417 212,56 Z" id="Combined-Shape" fill="#3E3C5C"></path>
                    <circle id="Oval-6" stroke="#FFC552" stroke-width="5" cx="318" cy="126" r="7.5"></circle>
                    <path d="M188,56 C188,53.790861 186.209139,52 184,52 C181.790861,52 180,53.790861 180,56" id="Oval-5" fill="#3E3C5C"></path>
                    <g id="body" transform="translate(220.000000, 156.000000)">
                        <g id="Group-2" fill="#C94848">
                            <path d="M24,0 L104,0 L104,0 C117.254834,-2.4348735e-15 128,10.745166 128,24 L128,96 L0,96 L0,24 L0,24 C-1.623249e-15,10.745166 10.745166,2.4348735e-15 24,0 Z" id="Rectangle-8"></path>
                        </g>
                        <rect id="Rectangle-9" fill="#FFFFFF" x="0" y="72" width="128" height="8"></rect>
                        <rect id="Rectangle-9" fill="#FFFFFF" x="0" y="88" width="128" height="8"></rect>
                        <rect id="Rectangle-9" fill="#3E3C5C" x="0" y="96" width="128" height="16"></rect>
                        <rect id="Rectangle-9" fill="#F09F2E" x="32" y="96" width="24" height="16"></rect>
                        <path d="M0,112 L128,112 L128,112 L128,112 C128,125.254834 117.254834,136 104,136 L24,136 L24,136 C10.745166,136 1.623249e-15,125.254834 0,112 L0,112 Z" id="Rectangle-9" fill="#34A362"></path>
                        <rect id="Rectangle-9" fill="#FFFFFF" x="0" y="56" width="128" height="8"></rect>
                        <rect id="Rectangle-9" fill="#FFFFFF" x="0" y="40" width="128" height="8"></rect>
                        <rect id="Rectangle-9" fill="#FFFFFF" x="0" y="24" width="128" height="8"></rect>
                        <rect id="Rectangle-16" fill="#34A362" x="16" y="128" width="16" height="16"></rect>
                        <rect id="Rectangle-16" fill="#31825C" x="24" y="136" width="8" height="8"></rect>
                        <polygon id="Rectangle-16" fill="#FFC552" points="16 144 32 144 24 176"></polygon>
                        <polygon id="Rectangle-16" fill="#F09F2E" points="24 144 32 144 24 176"></polygon>
                    </g>
                    <path d="M212,156 L212,156 L212,156 C220.836556,156 228,163.163444 228,172 L228,284 L212,284 L212,156 Z" id="Rectangle-11" fill="#3E3C5C" transform="translate(220.000000, 220.000000) scale(-1, 1) translate(-220.000000, -220.000000) "></path>
                    <path d="M172,148 C172,170.09139 189.90861,188 212,188 L212,188" id="Oval-12" stroke="#3E3C5C" stroke-width="32"></path>
                    <path d="M300,156 L324,156 L324,156 C337.254834,156 348,166.745166 348,180 L348,284 L300,284 L300,156 Z" id="Rectangle-11" fill="#3E3C5C"></path>
                    <path d="M340,188 C340,210.09139 357.90861,228 380,228 L380,228" id="Oval-12" stroke="#3E3C5C" stroke-width="32" transform="translate(360.000000, 208.000000) scale(-1, -1) translate(-360.000000, -208.000000) "></path>
                    <path d="M324,176 L340,176 L340,204 L340,204 L340,204 C331.163444,204 324,196.836556 324,188 L324,176 Z" id="Rectangle-20" fill="#3E3C5C"></path>
                    <rect id="Rectangle-16-Copy" fill="#34A362" x="308" y="292" width="16" height="16"></rect>
                    <rect id="Rectangle-16-Copy" fill="#31825C" x="316" y="292" width="8" height="16"></rect>
                    <g id="Group-18" transform="translate(284.000000, 300.000000)">
                        <rect id="Rectangle-16-Copy" fill="#3E3C5C" x="24" y="8" width="16" height="20"></rect>
                        <polygon id="Rectangle-19" fill="#48A8EF" transform="translate(32.000000, 4.000000) scale(1, -1) translate(-32.000000, -4.000000) " points="16 0 48 0 40 8 24 8"></polygon>
                        <polygon id="Rectangle-19-Copy" fill="#2F3242" transform="translate(24.000000, 24.000000) scale(-1, -1) translate(-24.000000, -24.000000) " points="0 16 48 16 24 32 8 32"></polygon>
                        <polygon id="Rectangle-16-Copy" fill="#3E3C5C" points="0 32 16 32 32 16 24 16"></polygon>
                        <rect id="Rectangle-10" fill="#2F3242" x="32" y="8" width="8" height="8"></rect>
                    </g>
                    <path d="M380,56 C380,53.790861 378.209139,52 376,52 C373.790861,52 372,53.790861 372,56" id="Oval-5-Copy" fill="#3E3C5C"></path>
                    <rect id="Rectangle-3" fill="#F15F55" x="220" y="124" width="104" height="40" rx="16"></rect>
                    <rect id="Rectangle-3" fill="#F15F55" x="204" y="148" width="104" height="48" rx="24"></rect>
                    <rect id="Rectangle-3" fill="#F15F55" x="229" y="140" width="104" height="64" rx="32"></rect>
                    <rect id="Rectangle-3" fill="#F15F55" x="212" y="140" width="96" height="96" rx="48"></rect>
                    <path d="M260,92 L284,92 L284,92 C297.254834,92 308,102.745166 308,116 L308,140 L308,140 C308,148.836556 300.836556,156 292,156 L252,156 L252,156 C243.163444,156 236,148.836556 236,140 L236,116 L236,116 C236,102.745166 246.745166,92 260,92 Z" id="Rectangle" fill="#FFE2A8"></path>
                    <path d="M316,116 C311.581722,116 308,119.581722 308,124 C308,128.418278 311.581722,132 316,132 L316,132" id="Oval-4-Copy" fill="#FFE2A8" transform="translate(312.000000, 124.000000) scale(-1, 1) translate(-312.000000, -124.000000) "></path>
                    <rect id="Rectangle-14" fill="#3E3C5C" transform="translate(279.142136, 108.142136) rotate(45.000000) translate(-279.142136, -108.142136) " x="243.142136" y="106.142136" width="72" height="4"></rect>
                    <circle id="Oval" fill="#3E3C5C" cx="284" cy="112" r="12"></circle>
                    <rect id="Rectangle-5" fill="#F15F55" x="268" y="92" width="32" height="16" rx="4"></rect>
                    <path d="M300,96 C300,93.790861 298.209139,92 296,92 L272,92 C269.790861,92 268,93.790861 268,96 L268,100 L300,100 L300,96 Z" id="Combined-Shape" fill="#FF8A62"></path>
                    <rect id="Rectangle-5-Copy" fill="#F15F55" x="228" y="92" width="32" height="16" rx="4"></rect>
                    <path d="M260,96 C260,93.790861 258.209139,92 256,92 L232,92 C229.790861,92 228,93.790861 228,96 L228,100 L260,100 L260,96 Z" id="Combined-Shape" fill="#FF8A62"></path>
                    <rect id="Rectangle-3" fill="#F15F55" x="232" y="132" width="78" height="40"></rect>
                    <rect id="Rectangle-3" fill="#F15F55" x="236" y="124" width="64" height="40" rx="16"></rect>
                    <rect id="Rectangle-2" fill="#FF8A62" x="252" y="108" width="16" height="24" rx="8"></rect>
                    <path d="M236,116 C231.581722,116 228,119.581722 228,124 C228,128.418278 231.581722,132 236,132 L236,132" id="Oval-4" fill="#FFE2A8"></path>
                    <path d="M324,56 C324,25.072054 298.927946,0 268,0 C237.072054,0 212,25.072054 212,56 L212,66.947843 L324,66.947843 L324,56 Z" id="Oval-7" fill="#3E3C5C"></path>
                    <g id="Group-11" transform="translate(240.000000, 20.000000)">
                        <path d="M20,32 C31.045695,32 40,31.045695 40,20 C40,8.954305 31.045695,0 20,0 C8.954305,0 0,8.954305 0,20 C0,31.045695 8.954305,32 20,32 Z" id="Oval-8" fill="#FFFFFF"></path>
                        <circle id="Oval-9" fill="#3E3C5C" cx="12" cy="12" r="4"></circle>
                        <circle id="Oval-10" fill="#3E3C5C" cx="28" cy="12" r="4"></circle>
                        <rect id="Rectangle-12" fill="#FFFFFF" x="8" y="24" width="24" height="16"></rect>
                    </g>
                    <rect id="Rectangle-15" fill="#3E3C5C" x="244" y="108" width="8" height="8"></rect>
                    <circle id="Oval-11" fill="#FFC552" cx="244" cy="324" r="8"></circle>
                    <path d="M244,332 C248.418278,332 252,328.418278 252,324 C252,319.581722 248.418278,316 244,316" id="Oval-11" fill="#F09F2E"></path>
                    <rect id="Rectangle-24" fill="#48A8EF" x="320" y="244" width="32" height="8"></rect>
                    <rect id="Rectangle-24" fill="#3E3C5C" x="320" y="252" width="32" height="16"></rect>
                    <rect id="Rectangle-13" fill="#48A8EF" x="360" y="220" width="40" height="8"></rect>
                    <rect id="Rectangle-13-Copy" fill="#48A8EF" x="152" y="148" width="40" height="8"></rect>
                    <path d="M188,148 C188,139.163444 180.836556,132 172,132 C163.163444,132 156,139.163444 156,148" id="Oval-13" fill="#FFC552"></path>
                    <path d="M172,148 L188,148 C188,139.163444 180.836556,132 172,132 L172,148 Z" id="Combined-Shape" fill="#F09F2E"></path>
                    <path d="M177.707107,113.707107 L182.87868,118.87868 L182.87868,118.87868 C184.050253,120.050253 184.050253,121.949747 182.87868,123.12132 C182.316071,123.683929 181.553009,124 180.757359,124 L176,124 L176,114.414214 L176,114.414214 C176,113.861929 176.447715,113.414214 177,113.414214 C177.265216,113.414214 177.51957,113.51957 177.707107,113.707107 Z" id="Rectangle-25" fill="#F09F2E" transform="translate(182.000000, 118.000000) scale(-1, 1) rotate(90.000000) translate(-182.000000, -118.000000) "></path>
                    <path d="M170.343146,117.656854 C168.895431,116.209139 168,114.209139 168,112 C168,107.581722 171.581722,104 176,104 L176,100 C169.372583,100 164,105.372583 164,112 C164,115.313708 165.343146,118.313708 167.514719,120.485281 L170.343146,117.656854 Z" id="Combined-Shape" fill="#F09F2E"></path>
                    <path d="M164,112 C164,115.313708 165.343146,118.313708 167.514719,120.485281 L170.343146,117.656854 C168.895431,116.209139 168,114.209139 168,112 L164,112 Z" id="Combined-Shape" fill="#F09F2E"></path>
                    <path d="M170.348416,117.660004 C172.691562,120.003149 173.863135,123.074217 173.863135,126.145285 L169.863135,126.145285 C169.863135,124.097906 169.082086,122.050528 167.519989,120.488431 L170.348416,117.660004 Z" id="Combined-Shape-Copy" fill="#F09F2E"></path>
                    <path d="M188,112 C188,105.372583 182.627417,100 176,100 L176,104 C180.418278,104 184,107.581722 184,112 L188,112 Z" id="Combined-Shape" fill="#F09F2E"></path>
                    <path d="M170,126 L174,126 L174,132 L174,132 C174,133.104569 173.104569,134 172,134 L172,134 L172,134 C170.895431,134 170,133.104569 170,132 L170,126 Z" id="Rectangle-26" fill="#F09F2E"></path>
                </g>
                <g id="cannon" transform="translate(273.500000, 289.500000) scale(-1, 1) translate(-273.500000, -289.500000) translate(23.000000, 192.000000)">
                    <g id="Group-34-Copy">
                        <circle id="Oval-2" fill="#FF8A62" cx="228" cy="16" r="16"></circle>
                        <circle id="Oval-2" fill="#FFC552" cx="228" cy="16" r="12"></circle>
                        <circle id="Oval-2" fill="#FFE2A8" cx="228" cy="16" r="8"></circle>
                        <circle id="Oval-2" fill="#FFFFFF" cx="228" cy="16" r="4"></circle>
                        <g id="Group-32" transform="translate(0.000000, 16.000000)">
                            <g id="cannon-copy">
                                <g id="Group-16" transform="translate(20.000000, 104.000000)">
                                    <g id="whell">
                                        <g id="Group-26">
                                            <mask id="mask-3" fill="white">
                                                <use xlink:href="#path-2"></use>
                                            </mask>
                                            <use id="Combined-Shape" fill="#F09F2E" xlink:href="#path-2"></use>
                                            <rect id="Rectangle-12" fill="#D37739" mask="url(#mask-3)" x="1" y="7.75" width="27" height="3.5"></rect>
                                        </g>
                                        <g id="Group-27" transform="translate(0.000000, 32.000000)">
                                            <mask id="mask-5" fill="white">
                                                <use xlink:href="#path-4"></use>
                                            </mask>
                                            <use id="Combined-Shape-Copy-6" fill="#D37739" xlink:href="#path-4"></use>
                                            <rect id="Rectangle-12" fill="#A1674F" mask="url(#mask-5)" x="1" y="20.75" width="27" height="3.5"></rect>
                                        </g>
                                        <rect id="Rectangle" fill="#F09F2E" x="32" y="0" width="16" height="32"></rect>
                                        <rect id="Rectangle-Copy" fill="#D37739" x="32" y="32" width="16" height="32"></rect>
                                        <path d="M16,32 C16,14.326888 30.326888,0 48,0 C65.673112,0 80,14.326888 80,32 L16,32 Z" id="Combined-Shape" fill="#A1674F"></path>
                                        <path d="M16,64 C16,46.326888 30.326888,32 48,32 C65.673112,32 80,46.326888 80,64 L16,64 Z" id="Combined-Shape-Copy-8" fill="#8C5A46" transform="translate(48.000000, 48.000000) scale(1, -1) translate(-48.000000, -48.000000) "></path>
                                        <g id="Group-9" transform="translate(16.000000, 0.000000)">
                                            <g id="Group-23">
                                                <mask id="mask-7" fill="white">
                                                    <use xlink:href="#path-6"></use>
                                                </mask>
                                                <g id="Oval-26"></g>
                                                <path d="M36,12 L36,12 L36,20 L32,20 L32,16 L32,16 C32,13.790861 33.790861,12 36,12 Z" id="Rectangle-37" fill="#3E3C5C" mask="url(#mask-7)"></path>
                                                <path d="M40,12 L40,12 L40,20 L36,20 L36,16 L36,16 C36,13.790861 37.790861,12 40,12 Z" id="Rectangle-37" fill="#2F3242" mask="url(#mask-7)" transform="translate(38.000000, 16.000000) scale(-1, 1) translate(-38.000000, -16.000000) "></path>
                                                <path d="M36,40 L36,40 L36,40 C38.209139,40 40,41.790861 40,44 L40,48 L32,48 L32,44 L32,44 C32,41.790861 33.790861,40 36,40 Z" id="Rectangle-37" fill="#2F3242" mask="url(#mask-7)" transform="translate(36.000000, 44.000000) scale(1, -1) translate(-36.000000, -44.000000) "></path>
                                                <polygon id="Combined-Shape" fill="#8C5A46" fill-rule="nonzero" mask="url(#mask-7)" points="32 28.4644661 4.4408921e-16 -3.53553391 -3.53553391 3.99680289e-15 32 35.5355339 67.5355339 8.8817842e-16 64 -3.53553391"></polygon>
                                                <polygon id="Combined-Shape" fill="#844840" fill-rule="nonzero" mask="url(#mask-7)" points="67.5355339 64 32 28.4644661 -3.53553391 64 8.8817842e-16 67.5355339 32 35.5355339 64 67.5355339"></polygon>
                                            </g>
                                            <g id="Group-10" transform="translate(20.000000, 20.000000)">
                                                <path d="M0,12 C0,5.372583 5.372583,0 12,0 C18.627417,0 24,5.372583 24,12 L-1.77635684e-15,12 Z" id="Combined-Shape" fill="#48A8EF"></path>
                                                <path d="M0,24 C0,17.372583 5.372583,12 12,12 C18.627417,12 24,17.372583 24,24 L-1.77635684e-15,24 Z" id="Combined-Shape-Copy-6" fill="#3E3C5C" transform="translate(12.000000, 18.000000) scale(1, -1) translate(-12.000000, -18.000000) "></path>
                                                <rect id="Rectangle-Copy" fill="#3E3C5C" x="12" y="12" width="6" height="12"></rect>
                                                <rect id="Rectangle-Copy" fill="#48A8EF" x="12" y="0" width="6" height="12"></rect>
                                                <path d="M8,12 C8,18.627417 13.372583,24 20,24 C26.627417,24 32,18.627417 32,12 L8,12 L8,12 Z" id="Combined-Shape" fill="#2F3242"></path>
                                                <path d="M8,0 C8,6.627417 13.372583,12 20,12 C26.627417,12 32,6.627417 32,0 L8,0 L8,0 Z" id="Combined-Shape-Copy-7" fill="#3E3C5C" transform="translate(20.000000, 6.000000) scale(1, -1) translate(-20.000000, -6.000000) "></path>
                                            </g>
                                        </g>
                                    </g>
                                    <g id="Group" transform="translate(88.000000, 0.000000)">
                                        <path d="M0,32 C0,14.326888 14.326888,0 32,0 C49.673112,0 64,14.326888 64,32 L3.55271368e-15,32 Z" id="Combined-Shape" fill="#48A8EF"></path>
                                        <path d="M0,64 C0,46.326888 14.326888,32 32,32 C49.673112,32 64,46.326888 64,64 L3.55271368e-15,64 Z" id="Combined-Shape-Copy-6" fill="#844840" transform="translate(32.000000, 48.000000) scale(1, -1) translate(-32.000000, -48.000000) "></path>
                                        <rect id="Rectangle" fill="#48A8EF" x="32" y="0" width="16" height="32"></rect>
                                        <rect id="Rectangle-Copy" fill="#844840" x="32" y="32" width="16" height="32"></rect>
                                        <circle id="Oval-20-Copy" fill="#A1674F" cx="48" cy="32" r="32"></circle>
                                        <g id="Group-9" transform="translate(36.000000, 20.000000)">
                                            <g id="Group-10">
                                                <path d="M0,12 C0,5.372583 5.372583,0 12,0 C18.627417,0 24,5.372583 24,12 L-1.77635684e-15,12 Z" id="Combined-Shape" fill="#48A8EF"></path>
                                                <path d="M0,24 C0,17.372583 5.372583,12 12,12 C18.627417,12 24,17.372583 24,24 L-1.77635684e-15,24 Z" id="Combined-Shape-Copy-6" fill="#3E3C5C" transform="translate(12.000000, 18.000000) scale(1, -1) translate(-12.000000, -18.000000) "></path>
                                                <rect id="Rectangle-Copy" fill="#3E3C5C" x="12" y="12" width="6" height="12"></rect>
                                                <rect id="Rectangle-Copy" fill="#48A8EF" x="12" y="0" width="6" height="12"></rect>
                                                <path d="M8,12 C8,18.627417 13.372583,24 20,24 C26.627417,24 32,18.627417 32,12 L8,12 L8,12 Z" id="Combined-Shape" fill="#2F3242"></path>
                                                <path d="M8,0 C8,6.627417 13.372583,12 20,12 C26.627417,12 32,6.627417 32,0 L8,0 L8,0 Z" id="Combined-Shape-Copy-7" fill="#3E3C5C" transform="translate(20.000000, 6.000000) scale(1, -1) translate(-20.000000, -6.000000) "></path>
                                            </g>
                                        </g>
                                    </g>
                                </g>
                                <g id="Group-13" transform="translate(45.000000, 104.000000)">
                                    <g>
                                        <mask id="mask-9" fill="white">
                                            <use xlink:href="#path-8"></use>
                                        </mask>
                                        <use id="Rectangle-3" fill="#D37739" xlink:href="#path-8"></use>
                                        <rect id="Rectangle-11" fill="#A1674F" mask="url(#mask-9)" x="-9" y="16" width="160" height="4"></rect>
                                        <rect id="Rectangle-11" fill="#F09F2E" mask="url(#mask-9)" x="-9" y="20" width="160" height="4"></rect>
                                        <rect id="Rectangle-11" fill="#A1674F" mask="url(#mask-9)" x="-9" y="32" width="160" height="4"></rect>
                                        <rect id="Rectangle-11" fill="#F09F2E" mask="url(#mask-9)" x="-9" y="36" width="160" height="4"></rect>
                                        <rect id="Rectangle-6" fill="#F09F2E" mask="url(#mask-9)" x="-1" y="0" width="32" height="8"></rect>
                                    </g>
                                    <path d="M29.7770167,-8.8817842e-16 L160.222983,-8.8817842e-16 L160.222983,-5.32907052e-15 C164.133697,-6.04745688e-15 167.471217,2.82730434 168.114135,6.6848081 L173.447468,38.6848081 L173.447468,38.6848081 C174.173828,43.0429707 171.229671,47.164791 166.871509,47.8911514 C166.436857,47.9635933 165.996964,48 165.556317,48 L24.4436834,48 L24.4436834,48 C20.0254054,48 16.4436834,44.418278 16.4436834,40 C16.4436834,39.5593531 16.4800901,39.1194595 16.552532,38.6848081 L21.8858653,6.6848081 L21.8858653,6.6848081 C22.5287826,2.82730434 25.8663035,2.4947432e-15 29.7770167,1.77635684e-15 Z" id="Rectangle-3" fill="#844840"></path>
                                </g>
                                <g id="Group-21" transform="translate(268.000000, 68.000000)">
                                    <g id="Group-28">
                                        <path d="M24,12 C24,5.372583 18.627417,0 12,0 L12,12 L24,12 L24,12 Z" id="Combined-Shape" fill="#3E3C5C"></path>
                                        <path d="M24,24 C24,17.372583 18.627417,12 12,12 L12,24 L24,24 L24,24 Z" id="Combined-Shape-Copy-2" fill="#2F3242" transform="translate(18.000000, 18.000000) scale(1, -1) translate(-18.000000, -18.000000) "></path>
                                        <path d="M12,12 C12,5.372583 6.627417,0 0,0 L0,12 L12,12 L12,12 Z" id="Combined-Shape" fill="#3E3C5C" transform="translate(6.000000, 6.000000) scale(-1, 1) translate(-6.000000, -6.000000) "></path>
                                        <path d="M12,24 C12,17.372583 6.627417,12 0,12 L0,24 L12,24 L12,24 Z" id="Combined-Shape-Copy-2" fill="#2F3242" transform="translate(6.000000, 18.000000) scale(-1, -1) translate(-6.000000, -18.000000) "></path>
                                    </g>
                                </g>
                                <g id="Group-20" transform="translate(235.000000, 48.000000)">
                                    <path d="M37.5238095,32 C37.5238095,14.326888 23.1969215,0 5.52380952,0 C3.70667774,0 1.92492138,0.151460246 0.190476191,0.442445014 C15.3249473,2.98152817 26.8571429,16.1440198 26.8571429,32 L37.5238095,32 Z" id="Combined-Shape" fill="#48A8EF"></path>
                                    <path d="M37.5238095,64 C37.5238095,46.326888 23.1969215,32 5.52380952,32 C3.70667774,32 1.92492138,32.1514602 0.19047619,32.442445 C15.3249473,34.9815282 26.8571429,48.1440198 26.8571429,64 L37.5238095,64 Z" id="Combined-Shape-Copy-3" fill="#3E3C5C" transform="translate(18.857143, 48.000000) scale(1, -1) translate(-18.857143, -48.000000) "></path>
                                </g>
                                <g id="Group-19" transform="translate(0.000000, 16.000000)">
                                    <g id="Group-14">
                                        <g id="Group-4">
                                            <g id="Group-18" transform="translate(186.000000, 0.000000)">
                                                <path d="M14,0 L38,0 L38,0 C40.209139,-4.05812251e-16 42,1.790861 42,4 L42,24 L10,24 L10,4 L10,4 C10,1.790861 11.790861,4.05812251e-16 14,0 Z" id="Rectangle-35" fill="#2F3242"></path>
                                                <path d="M18,0 L34,0 L34,0 C36.209139,-4.05812251e-16 38,1.790861 38,4 L38,24 L14,24 L14,4 L14,4 C14,1.790861 15.790861,4.05812251e-16 18,0 Z" id="Rectangle-35" fill="#2F3242"></path>
                                                <path d="M30,0 L38,0 L38,0 C40.209139,-4.05812251e-16 42,1.790861 42,4 L42,24 L26,24 L26,4 L26,4 C26,1.790861 27.790861,4.05812251e-16 30,0 Z" id="Rectangle-35" fill="#2F3242"></path>
                                                <path d="M82,64 C82,37.490332 60.509668,16 34,16 L34,64 L82,64 L82,64 Z" id="Combined-Shape" fill="#3E3C5C"></path>
                                                <rect id="Rectangle-4" fill="#3E3C5C" x="0" y="16" width="34" height="50"></rect>
                                                <path d="M82,112 C82,85.490332 60.509668,64 34,64 L34,112 L82,112 L82,112 Z" id="Combined-Shape-Copy-2" fill="#2F3242" transform="translate(58.000000, 88.000000) scale(1, -1) translate(-58.000000, -88.000000) "></path>
                                            </g>
                                            <circle id="Oval-23" fill="#48A8EF" cx="164" cy="64" r="44"></circle>
                                            <path d="M108,64 C108,33.072054 133.072054,8 164,8 C194.927946,8 220,33.072054 220,64 L108,64 Z" id="Combined-Shape" fill="#48A8EF"></path>
                                            <path d="M108,120 C108,89.072054 133.072054,64 164,64 C194.927946,64 220,89.072054 220,120 L108,120 Z" id="Combined-Shape" fill="#3E3C5C" transform="translate(164.000000, 92.000000) scale(1, -1) translate(-164.000000, -92.000000) "></path>
                                            <g id="Group-2" transform="translate(0.000000, 8.000000)">
                                                <path d="M36,56 L36,67.8964844 L212,67.8964844 L212,56 C212,29.490332 190.509668,8 164,8 L36,24 L36,56 Z" id="Combined-Shape" fill="#3E3C5C"></path>
                                                <path d="M212,104 C212,77.490332 190.509668,56 164,56 L164,104 L212,104 L212,104 Z" id="Combined-Shape-Copy-2" fill="#2F3242" transform="translate(188.000000, 80.000000) scale(1, -1) translate(-188.000000, -80.000000) "></path>
                                                <polygon id="Combined-Shape-Copy" fill="#2F3242" transform="translate(100.000000, 80.000000) scale(1, -1) translate(-100.000000, -80.000000) " points="164 56 36 72 36 104 164 104"></polygon>
                                                <g id="Group-6" transform="translate(173.000000, 0.000000)">
                                                    <g id="Group-7">
                                                        <path d="M70.3333333,56 C70.3333333,25.072054 45.2612793,0 14.3333333,0 C11.1533527,0 8.03527909,0.265055431 5,0.774278775 C31.4853245,5.2176743 51.6666667,28.2520346 51.6666667,56 L70.3333333,56 Z" id="Combined-Shape" fill="#48A8EF"></path>
                                                        <path d="M70.3333333,112 C70.3333333,81.072054 45.2612793,56 14.3333333,56 C11.1533527,56 8.03527909,56.2650554 5,56.7742788 C31.4853245,61.2176743 51.6666667,84.2520346 51.6666667,112 L70.3333333,112 Z" id="Combined-Shape-Copy-3" fill="#3E3C5C" transform="translate(37.666667, 84.000000) scale(1, -1) translate(-37.666667, -84.000000) "></path>
                                                        <path d="M65.3333333,56 C65.3333333,25.072054 40.2612793,0 9.33333333,0 C6.1533527,0 3.03527909,0.265055431 -7.0667916e-12,0.774278775 C26.4853245,5.2176743 46.6666667,28.2520346 46.6666667,56 L65.3333333,56 Z" id="Combined-Shape" fill="#3E3C5C"></path>
                                                        <path d="M65.3333333,112 C65.3333333,81.072054 40.2612793,56 9.33333333,56 C6.1533527,56 3.03527909,56.2650554 -6.66133815e-15,56.7742788 C26.4853245,61.2176743 46.6666667,84.2520346 46.6666667,112 L65.3333333,112 Z" id="Combined-Shape-Copy-3" fill="#2F3242" transform="translate(32.666667, 84.000000) scale(1, -1) translate(-32.666667, -84.000000) "></path>
                                                    </g>
                                                </g>
                                                <g id="Group-5" transform="translate(171.000000, 8.000000)"></g>
                                                <path d="M1.99840144e-15,56 C1.99840144e-15,36.117749 16.117749,20 36,20 C55.882251,20 72,36.117749 72,56 L1.99840144e-15,56 Z" id="Combined-Shape" fill="#B6D8F0"></path>
                                                <path d="M1.99840144e-15,92 C1.99840144e-15,72.117749 16.117749,56 36,56 C55.882251,56 72,72.117749 72,92 L1.99840144e-15,92 Z" id="Combined-Shape-Copy-4" fill="#48A8EF" transform="translate(36.000000, 74.000000) scale(1, -1) translate(-36.000000, -74.000000) "></path>
                                                <g id="Group-17" transform="translate(8.000000, 28.000000)">
                                                    <path d="M3.55271368e-15,28 C3.55271368e-15,12.536027 12.536027,0 28,0 C43.463973,0 56,12.536027 56,28 L28,40.9589844 L3.55271368e-15,28 Z" id="Combined-Shape" fill="#2F3242"></path>
                                                    <path d="M0,56 C0,40.536027 12.536027,28 28,28 C43.463973,28 56,40.536027 56,56 L-1.77635684e-15,56 Z" id="Combined-Shape-Copy-5" fill="#3E3C5C" transform="translate(28.000000, 42.000000) scale(1, -1) translate(-28.000000, -42.000000) "></path>
                                                </g>
                                                <path d="M44,29.1595147 C55.5659558,32.6017115 64,43.3159175 64,56 C64,68.6840825 55.5659558,79.3982885 44,82.8404853 C32.4340442,79.3982885 24,68.6840825 24,56 C24,43.3159175 32.4340442,32.6017115 44,29.1595147 Z" id="Combined-Shape" fill="#2F3242"></path>
                                            </g>
                                        </g>
                                        <g id="Group-8" transform="translate(276.000000, 52.000000)"></g>
                                        <g id="Group-8" transform="translate(270.000000, 64.000000) scale(-1, 1) translate(-270.000000, -64.000000) translate(264.000000, 52.000000)"></g>
                                    </g>
                                    <g id="Group-15" transform="translate(42.000000, 28.000000)">
                                        <path d="M46,36 C46,16.117749 29.882251,0 10,0 C7.95572674,0 5.95125084,0.170392777 4,0.497750641 C21.02628,3.35421919 34,18.1620223 34,36 L46,36 Z" id="Combined-Shape" fill="#48A8EF"></path>
                                        <path d="M46,72 C46,52.117749 29.882251,36 10,36 C7.95572674,36 5.95125084,36.1703928 4,36.4977506 C21.02628,39.3542192 34,54.1620223 34,72 L46,72 Z" id="Combined-Shape-Copy-3" fill="#3E3C5C" transform="translate(25.000000, 54.000000) scale(1, -1) translate(-25.000000, -54.000000) "></path>
                                        <path d="M42,36 C42,16.117749 25.882251,0 6,0 C3.95572674,0 1.95125084,0.170392777 -1.71729297e-12,0.497750641 C17.02628,3.35421919 30,18.1620223 30,36 L42,36 Z" id="Combined-Shape" fill="#3E3C5C"></path>
                                        <path d="M42,72 C42,52.117749 25.882251,36 6,36 C3.95572674,36 1.95125084,36.1703928 4.35589342e-11,36.4977506 C17.02628,39.3542192 30,54.1620223 30,72 L42,72 Z" id="Combined-Shape-Copy-3" fill="#2F3242" transform="translate(21.000000, 54.000000) scale(1, -1) translate(-21.000000, -54.000000) "></path>
                                    </g>
                                </g>
                                <g id="Group-9" transform="translate(168.000000, 68.000000)">
                                    <g id="Group-11">
                                        <path d="M0,16 C0,7.163444 7.163444,0 16,0 C24.836556,0 32,7.163444 32,16 L4.4408921e-15,16 Z" id="Combined-Shape" fill="#48A8EF"></path>
                                        <path d="M0,32 C0,23.163444 7.163444,16 16,16 C24.836556,16 32,23.163444 32,32 L4.4408921e-15,32 Z" id="Combined-Shape-Copy-6" fill="#3E3C5C" transform="translate(16.000000, 24.000000) scale(1, -1) translate(-16.000000, -24.000000) "></path>
                                        <rect id="Rectangle-Copy" fill="#3E3C5C" x="16" y="16" width="8" height="16"></rect>
                                        <rect id="Rectangle-Copy" fill="#48A8EF" x="16" y="0" width="8" height="16"></rect>
                                    </g>
                                    <path d="M6.66666667,16 C6.66666667,24.836556 13.8301107,32 22.6666667,32 C31.5032227,32 38.6666667,24.836556 38.6666667,16 L6.66666667,16 L6.66666667,16 Z" id="Combined-Shape" fill="#2F3242"></path>
                                    <path d="M6.66666667,0 C6.66666667,8.836556 13.8301107,16 22.6666667,16 C31.5032227,16 38.6666667,8.836556 38.6666667,0 L6.66666667,0 L6.66666667,0 Z" id="Combined-Shape-Copy-7" fill="#2F3242" transform="translate(22.666667, 8.000000) scale(1, -1) translate(-22.666667, -8.000000) "></path>
                                </g>
                                <g id="Group-13" transform="translate(101.000000, 104.000000)">
                                    <mask id="mask-11" fill="white">
                                        <use xlink:href="#path-10"></use>
                                    </mask>
                                    <use id="Rectangle-3" fill="#D37739" xlink:href="#path-10"></use>
                                    <rect id="Rectangle-11" fill="#A1674F" mask="url(#mask-11)" x="-9" y="16" width="160" height="4"></rect>
                                    <rect id="Rectangle-11" fill="#F09F2E" mask="url(#mask-11)" x="-9" y="20" width="160" height="4"></rect>
                                    <rect id="Rectangle-11" fill="#A1674F" mask="url(#mask-11)" x="-9" y="32" width="160" height="4"></rect>
                                    <rect id="Rectangle-11" fill="#F09F2E" mask="url(#mask-11)" x="-9" y="36" width="160" height="4"></rect>
                                    <rect id="Rectangle-6" fill="#F09F2E" mask="url(#mask-11)" x="-1" y="0" width="32" height="8"></rect>
                                </g>
                                <g id="Group-22" transform="translate(117.000000, 104.000000)">
                                    <mask id="mask-13" fill="white">
                                        <use xlink:href="#path-12"></use>
                                    </mask>
                                    <use id="Rectangle-3" fill="#8C5A46" xlink:href="#path-12"></use>
                                    <rect id="Rectangle-11" fill="#844840" mask="url(#mask-13)" x="-1" y="32" width="160" height="4"></rect>
                                    <rect id="Rectangle-11" fill="#A1674F" mask="url(#mask-13)" x="-1" y="36" width="160" height="4"></rect>
                                    <rect id="Rectangle-11" fill="#844840" mask="url(#mask-13)" x="-1" y="16" width="160" height="4"></rect>
                                    <rect id="Rectangle-11" fill="#A1674F" mask="url(#mask-13)" x="-1" y="20" width="160" height="4"></rect>
                                    <rect id="Rectangle-11" fill="#844840" mask="url(#mask-13)" x="-1" y="0" width="160" height="4"></rect>
                                    <rect id="Rectangle-11" fill="#A1674F" mask="url(#mask-13)" x="-1" y="4" width="160" height="4"></rect>
                                </g>
                                <g id="whell" transform="translate(124.000000, 104.000000)">
                                    <g id="Group-26">
                                        <mask id="mask-15" fill="white">
                                            <use xlink:href="#path-14"></use>
                                        </mask>
                                        <use id="Combined-Shape" fill="#F09F2E" xlink:href="#path-14"></use>
                                        <rect id="Rectangle-12" fill="#D37739" mask="url(#mask-15)" x="1" y="7.75" width="27" height="3.5"></rect>
                                    </g>
                                    <g id="Group-27" transform="translate(0.000000, 32.000000)">
                                        <mask id="mask-17" fill="white">
                                            <use xlink:href="#path-16"></use>
                                        </mask>
                                        <use id="Combined-Shape-Copy-6" fill="#D37739" xlink:href="#path-16"></use>
                                        <rect id="Rectangle-12" fill="#A1674F" mask="url(#mask-17)" x="1" y="20.75" width="27" height="3.5"></rect>
                                    </g>
                                    <rect id="Rectangle" fill="#F09F2E" x="32" y="0" width="16" height="32"></rect>
                                    <rect id="Rectangle-Copy" fill="#D37739" x="32" y="32" width="16" height="32"></rect>
                                    <path d="M16,32 C16,14.326888 30.326888,0 48,0 C65.673112,0 80,14.326888 80,32 L16,32 Z" id="Combined-Shape" fill="#A1674F"></path>
                                    <path d="M16,64 C16,46.326888 30.326888,32 48,32 C65.673112,32 80,46.326888 80,64 L16,64 Z" id="Combined-Shape-Copy-8" fill="#8C5A46" transform="translate(48.000000, 48.000000) scale(1, -1) translate(-48.000000, -48.000000) "></path>
                                    <g id="Group-9" transform="translate(16.000000, 0.000000)">
                                        <g id="Group-23">
                                            <mask id="mask-19" fill="white">
                                                <use xlink:href="#path-18"></use>
                                            </mask>
                                            <g id="Oval-26"></g>
                                            <path d="M36,12 L36,12 L36,20 L32,20 L32,16 L32,16 C32,13.790861 33.790861,12 36,12 Z" id="Rectangle-37" fill="#3E3C5C" mask="url(#mask-19)"></path>
                                            <path d="M40,12 L40,12 L40,20 L36,20 L36,16 L36,16 C36,13.790861 37.790861,12 40,12 Z" id="Rectangle-37" fill="#2F3242" mask="url(#mask-19)" transform="translate(38.000000, 16.000000) scale(-1, 1) translate(-38.000000, -16.000000) "></path>
                                            <path d="M36,40 L36,40 L36,40 C38.209139,40 40,41.790861 40,44 L40,48 L32,48 L32,44 L32,44 C32,41.790861 33.790861,40 36,40 Z" id="Rectangle-37" fill="#2F3242" mask="url(#mask-19)" transform="translate(36.000000, 44.000000) scale(1, -1) translate(-36.000000, -44.000000) "></path>
                                            <polygon id="Combined-Shape" fill="#8C5A46" fill-rule="nonzero" mask="url(#mask-19)" points="32 28.4644661 4.4408921e-16 -3.53553391 -3.53553391 3.99680289e-15 32 35.5355339 67.5355339 8.8817842e-16 64 -3.53553391"></polygon>
                                            <polygon id="Combined-Shape" fill="#844840" fill-rule="nonzero" mask="url(#mask-19)" points="67.5355339 64 32 28.4644661 -3.53553391 64 8.8817842e-16 67.5355339 32 35.5355339 64 67.5355339"></polygon>
                                        </g>
                                        <g id="Group-10" transform="translate(20.000000, 20.000000)">
                                            <path d="M0,12 C0,5.372583 5.372583,0 12,0 C18.627417,0 24,5.372583 24,12 L-1.77635684e-15,12 Z" id="Combined-Shape" fill="#48A8EF"></path>
                                            <path d="M0,24 C0,17.372583 5.372583,12 12,12 C18.627417,12 24,17.372583 24,24 L-1.77635684e-15,24 Z" id="Combined-Shape-Copy-6" fill="#3E3C5C" transform="translate(12.000000, 18.000000) scale(1, -1) translate(-12.000000, -18.000000) "></path>
                                            <rect id="Rectangle-Copy" fill="#3E3C5C" x="12" y="12" width="6" height="12"></rect>
                                            <rect id="Rectangle-Copy" fill="#48A8EF" x="12" y="0" width="6" height="12"></rect>
                                            <path d="M8,12 C8,18.627417 13.372583,24 20,24 C26.627417,24 32,18.627417 32,12 L8,12 L8,12 Z" id="Combined-Shape" fill="#2F3242"></path>
                                            <path d="M8,0 C8,6.627417 13.372583,12 20,12 C26.627417,12 32,6.627417 32,0 L8,0 L8,0 Z" id="Combined-Shape-Copy-7" fill="#3E3C5C" transform="translate(20.000000, 6.000000) scale(1, -1) translate(-20.000000, -6.000000) "></path>
                                        </g>
                                    </g>
                                </g>
                                <g id="whell" transform="translate(212.000000, 104.000000)">
                                    <g id="Group-26">
                                        <mask id="mask-21" fill="white">
                                            <use xlink:href="#path-20"></use>
                                        </mask>
                                        <use id="Combined-Shape" fill="#F09F2E" xlink:href="#path-20"></use>
                                        <rect id="Rectangle-12" fill="#D37739" mask="url(#mask-21)" x="1" y="7.75" width="27" height="3.5"></rect>
                                    </g>
                                    <g id="Group-27" transform="translate(0.000000, 32.000000)">
                                        <mask id="mask-23" fill="white">
                                            <use xlink:href="#path-22"></use>
                                        </mask>
                                        <use id="Combined-Shape-Copy-6" fill="#D37739" xlink:href="#path-22"></use>
                                        <rect id="Rectangle-12" fill="#A1674F" mask="url(#mask-23)" x="1" y="20.75" width="27" height="3.5"></rect>
                                    </g>
                                    <rect id="Rectangle" fill="#F09F2E" x="32" y="0" width="16" height="32"></rect>
                                    <rect id="Rectangle-Copy" fill="#D37739" x="32" y="32" width="16" height="32"></rect>
                                    <path d="M16,32 C16,14.326888 30.326888,0 48,0 C65.673112,0 80,14.326888 80,32 L16,32 Z" id="Combined-Shape" fill="#A1674F"></path>
                                    <path d="M16,64 C16,46.326888 30.326888,32 48,32 C65.673112,32 80,46.326888 80,64 L16,64 Z" id="Combined-Shape-Copy-8" fill="#8C5A46" transform="translate(48.000000, 48.000000) scale(1, -1) translate(-48.000000, -48.000000) "></path>
                                    <g id="Group-9" transform="translate(16.000000, 0.000000)">
                                        <g id="Group-23">
                                            <mask id="mask-25" fill="white">
                                                <use xlink:href="#path-24"></use>
                                            </mask>
                                            <g id="Oval-26"></g>
                                            <path d="M36,12 L36,12 L36,20 L32,20 L32,16 L32,16 C32,13.790861 33.790861,12 36,12 Z" id="Rectangle-37" fill="#3E3C5C" mask="url(#mask-25)"></path>
                                            <path d="M40,12 L40,12 L40,20 L36,20 L36,16 L36,16 C36,13.790861 37.790861,12 40,12 Z" id="Rectangle-37" fill="#2F3242" mask="url(#mask-25)" transform="translate(38.000000, 16.000000) scale(-1, 1) translate(-38.000000, -16.000000) "></path>
                                            <path d="M36,40 L36,40 L36,40 C38.209139,40 40,41.790861 40,44 L40,48 L32,48 L32,44 L32,44 C32,41.790861 33.790861,40 36,40 Z" id="Rectangle-37" fill="#2F3242" mask="url(#mask-25)" transform="translate(36.000000, 44.000000) scale(1, -1) translate(-36.000000, -44.000000) "></path>
                                            <polygon id="Combined-Shape" fill="#8C5A46" fill-rule="nonzero" mask="url(#mask-25)" points="32 28.4644661 4.4408921e-16 -3.53553391 -3.53553391 3.99680289e-15 32 35.5355339 67.5355339 8.8817842e-16 64 -3.53553391"></polygon>
                                            <polygon id="Combined-Shape" fill="#844840" fill-rule="nonzero" mask="url(#mask-25)" points="67.5355339 64 32 28.4644661 -3.53553391 64 8.8817842e-16 67.5355339 32 35.5355339 64 67.5355339"></polygon>
                                        </g>
                                        <g id="Group-10" transform="translate(20.000000, 20.000000)">
                                            <path d="M0,12 C0,5.372583 5.372583,0 12,0 C18.627417,0 24,5.372583 24,12 L-1.77635684e-15,12 Z" id="Combined-Shape" fill="#48A8EF"></path>
                                            <path d="M0,24 C0,17.372583 5.372583,12 12,12 C18.627417,12 24,17.372583 24,24 L-1.77635684e-15,24 Z" id="Combined-Shape-Copy-6" fill="#3E3C5C" transform="translate(12.000000, 18.000000) scale(1, -1) translate(-12.000000, -18.000000) "></path>
                                            <rect id="Rectangle-Copy" fill="#3E3C5C" x="12" y="12" width="6" height="12"></rect>
                                            <rect id="Rectangle-Copy" fill="#48A8EF" x="12" y="0" width="6" height="12"></rect>
                                            <path d="M8,12 C8,18.627417 13.372583,24 20,24 C26.627417,24 32,18.627417 32,12 L8,12 L8,12 Z" id="Combined-Shape" fill="#2F3242"></path>
                                            <path d="M8,0 C8,6.627417 13.372583,12 20,12 C26.627417,12 32,6.627417 32,0 L8,0 L8,0 Z" id="Combined-Shape-Copy-7" fill="#3E3C5C" transform="translate(20.000000, 6.000000) scale(1, -1) translate(-20.000000, -6.000000) "></path>
                                        </g>
                                    </g>
                                </g>
                                <g id="Group-3" transform="translate(116.000000, 72.000000)">
                                    <path d="M85.7660738,8 L104,8 L104,8 C108.418278,8 112,11.581722 112,16 L112,24 L112,24 C112,28.418278 108.418278,32 104,32 L72,32 L78.1766074,13.4701779 L78.1766074,13.4701779 C79.2655197,10.2034408 82.3226305,8 85.7660738,8 Z" id="Rectangle-3" fill="#D37739"></path>
                                    <g id="Group-25" transform="translate(0.000000, 8.000000)">
                                        <mask id="mask-27" fill="white">
                                            <use xlink:href="#path-26"></use>
                                        </mask>
                                        <use id="Rectangle-3" fill="#8C5A46" xlink:href="#path-26"></use>
                                        <rect id="Rectangle-11" fill="#844840" mask="url(#mask-27)" x="0" y="8" width="160" height="4"></rect>
                                        <rect id="Rectangle-11" fill="#A1674F" mask="url(#mask-27)" x="0" y="12" width="160" height="4"></rect>
                                    </g>
                                    <rect id="Rectangle-2" fill="#8C5A46" x="64" y="20" width="30" height="12"></rect>
                                    <g id="Group-9" transform="translate(64.000000, 0.000000)">
                                        <g id="Group-10">
                                            <path d="M0,12 C0,5.372583 5.372583,0 12,0 C18.627417,0 24,5.372583 24,12 L-1.77635684e-15,12 Z" id="Combined-Shape" fill="#48A8EF"></path>
                                            <path d="M0,24 C0,17.372583 5.372583,12 12,12 C18.627417,12 24,17.372583 24,24 L-1.77635684e-15,24 Z" id="Combined-Shape-Copy-6" fill="#3E3C5C" transform="translate(12.000000, 18.000000) scale(1, -1) translate(-12.000000, -18.000000) "></path>
                                            <rect id="Rectangle-Copy" fill="#3E3C5C" x="12" y="12" width="14" height="12"></rect>
                                            <rect id="Rectangle-Copy" fill="#48A8EF" x="12" y="0" width="14" height="12"></rect>
                                            <path d="M16,12 C16,18.627417 21.372583,24 28,24 C34.627417,24 40,18.627417 40,12 L16,12 L16,12 Z" id="Combined-Shape" fill="#2F3242"></path>
                                            <path d="M16,0 C16,6.627417 21.372583,12 28,12 C34.627417,12 40,6.627417 40,0 L16,0 L16,0 Z" id="Combined-Shape-Copy-7" fill="#3E3C5C" transform="translate(28.000000, 6.000000) scale(1, -1) translate(-28.000000, -6.000000) "></path>
                                        </g>
                                    </g>
                                    <g id="Group-12" transform="translate(16.000000, 8.000000)">
                                        <mask id="mask-29" fill="white">
                                            <use xlink:href="#path-28"></use>
                                        </mask>
                                        <use id="Rectangle-3" fill="#D37739" xlink:href="#path-28"></use>
                                        <rect id="Rectangle-11" fill="#A1674F" mask="url(#mask-29)" x="-16" y="8" width="160" height="4"></rect>
                                        <rect id="Rectangle-11" fill="#F09F2E" mask="url(#mask-29)" x="-16" y="12" width="160" height="4"></rect>
                                        <rect id="Rectangle-10" fill="#F09F2E" mask="url(#mask-29)" x="0" y="0" width="32" height="8"></rect>
                                    </g>
                                    <g id="Group-24" transform="translate(32.000000, 8.000000)">
                                        <mask id="mask-31" fill="white">
                                            <use xlink:href="#path-30"></use>
                                        </mask>
                                        <use id="Rectangle-3" fill="#8C5A46" xlink:href="#path-30"></use>
                                        <rect id="Rectangle-11" fill="#844840" mask="url(#mask-31)" x="-32" y="8" width="160" height="4"></rect>
                                        <rect id="Rectangle-11" fill="#A1674F" mask="url(#mask-31)" x="-32" y="12" width="160" height="4"></rect>
                                    </g>
                                </g>
                                <path d="M228,0 C219.163444,0 212,7.163444 212,16" id="Oval-25" stroke="#D37739" stroke-width="4"></path>
                            </g>
                        </g>
                    </g>
                    <g id="Group-44" transform="translate(197.000000, 176.000000)" fill="#FFE2A8">
                        <path d="M0,8 C1.64734563,3.33923051 6.09230186,0 11.3171772,0 C16.5420525,0 20.9870087,3.33923051 22.6343543,8 L0,8 Z" id="Combined-Shape"></path>
                    </g>
                </g>
            </g>
        </g>
    </g>
</svg>