<?xml version="1.0" encoding="UTF-8" standalone="no"?>
<svg width="640px" height="384px" viewBox="0 0 640 384" version="1.1" xmlns="http://www.w3.org/2000/svg" xmlns:xlink="http://www.w3.org/1999/xlink">
    <!-- Generator: Sketch 47.1 (45422) - http://www.bohemiancoding.com/sketch -->
    <title>character-pirate-party</title>
    <desc>Created with Sketch.</desc>
    <defs>
        <path d="M8,0 L40,0 C44.418278,-8.11624501e-16 48,3.581722 48,8 L48,16 C48,20.418278 44.418278,24 40,24 L8,24 C3.581722,24 5.41083001e-16,20.418278 0,16 L0,8 C-5.41083001e-16,3.581722 3.581722,8.11624501e-16 8,0 Z" id="path-1"></path>
    </defs>
    <g id="Symbols" stroke="none" stroke-width="1" fill="none" fill-rule="evenodd">
        <g id="character-pirate-party">
            <g transform="translate(72.000000, 6.000000)">
                <g id="ship-boy" transform="translate(192.000000, 55.000000)">
                    <path d="M0,189 L48,189 L48,197 L48,197 C48,201.418278 44.418278,205 40,205 L0,205 L0,189 Z" id="Rectangle-43-Copy" fill="#3E3C5C"></path>
                    <path d="M7.5,204.5 L7.5,235.564449" id="Line" stroke="#A1674F" stroke-width="24" stroke-dasharray="4,8"></path>
                    <path d="M8,205 L48,205 L48,205 C52.418278,205 56,208.581722 56,213 L56,233 L56,233 C56,241.836556 48.836556,249 40,249 L8,249 L8,249 C3.581722,249 5.41083001e-16,245.418278 0,241 L2.51547035e-15,213 L3.55271368e-15,213 C3.01163068e-15,208.581722 3.581722,205 8,205 Z" id="Rectangle-17" fill="#FFE2A8" transform="translate(28.000000, 227.000000) scale(-1, 1) translate(-28.000000, -227.000000) "></path>
                    <path d="M38,205 L40,205 L40,229 L40,229 C40,231.209139 38.209139,233 36,233 L28,233 L28,233 C25.790861,233 24,231.209139 24,229 L24,219 L24,219 C24,211.268014 30.2680135,205 38,205 Z" id="Rectangle-17" fill="#E7C391" transform="translate(32.000000, 219.000000) scale(-1, 1) translate(-32.000000, -219.000000) "></path>
                    <path d="M24,109 C24,153.18278 59.81722,189 104,189 L104,189" id="Oval-12" stroke="#FFE2A8" stroke-width="48" transform="translate(64.000000, 149.000000) scale(1, -1) translate(-64.000000, -149.000000) "></path>
                    <path d="M40,125 C40,160.346224 68.653776,189 104,189 L104,189" id="Oval-12" stroke="#E7C391" stroke-width="16" transform="translate(72.000000, 157.000000) scale(1, -1) translate(-72.000000, -157.000000) "></path>
                    <g id="Group-25" transform="translate(56.000000, 261.000000)">
                        <g id="Group-19" transform="translate(0.000000, 8.000000)">
                            <g id="Group-17" transform="translate(16.000000, 0.000000)">
                                <polygon id="Rectangle-16-Copy" fill="#A1674F" points="0 0 16 0 24 24 8 24"></polygon>
                                <polygon id="Rectangle-16-Copy" fill="#844840" points="16 0 32 0 40 24 24 24"></polygon>
                            </g>
                            <g id="Group-18" transform="translate(0.000000, 24.000000)">
                                <polygon id="Rectangle-19-Copy" fill="#2F3242" transform="translate(40.000000, 16.000000) scale(-1, -1) translate(-40.000000, -16.000000) " points="16 8 64 8 40 24 24 24"></polygon>
                                <rect id="Rectangle-16-Copy" fill="#3E3C5C" x="24" y="0" width="16" height="8"></rect>
                                <polygon id="Rectangle-16-Copy" fill="#3E3C5C" points="0 24 24 24 40 8 24 8"></polygon>
                                <rect id="Rectangle-10" fill="#2F3242" x="40" y="0" width="16" height="8"></rect>
                            </g>
                        </g>
                        <circle id="Oval-31" fill="#A1674F" cx="24" cy="16" r="16"></circle>
                        <circle id="Oval-31" fill="#844840" cx="52" cy="12" r="12"></circle>
                    </g>
                    <g id="Group-26" transform="translate(160.000000, 261.000000)">
                        <g id="Group-20" transform="translate(0.000000, 8.000000)">
                            <g id="Group-17" transform="translate(16.000000, 0.000000)">
                                <polygon id="Rectangle-16-Copy" fill="#A1674F" points="0 0 16 0 24 24 8 24"></polygon>
                                <polygon id="Rectangle-16-Copy" fill="#844840" points="16 0 32 0 40 24 24 24"></polygon>
                            </g>
                            <g id="Group-18-Copy" transform="translate(0.000000, 24.000000)">
                                <polygon id="Rectangle-19-Copy" fill="#2F3242" transform="translate(40.000000, 16.000000) scale(-1, -1) translate(-40.000000, -16.000000) " points="16 8 64 8 40 24 24 24"></polygon>
                                <rect id="Rectangle-16-Copy" fill="#3E3C5C" x="24" y="0" width="16" height="8"></rect>
                                <polygon id="Rectangle-16-Copy" fill="#3E3C5C" points="0 24 24 24 40 8 24 8"></polygon>
                                <rect id="Rectangle-10" fill="#2F3242" x="40" y="0" width="16" height="8"></rect>
                            </g>
                        </g>
                        <circle id="Oval-31-Copy" fill="#A1674F" cx="24" cy="16" r="16"></circle>
                        <circle id="Oval-31-Copy" fill="#844840" cx="52" cy="12" r="12"></circle>
                    </g>
                    <polygon id="Rectangle-19" fill="#48A8EF" transform="translate(96.000000, 297.000000) scale(1, -1) translate(-96.000000, -297.000000) " points="72 293 120 293 112 301 80 301"></polygon>
                    <polygon id="Rectangle-19" fill="#48A8EF" transform="translate(200.000000, 297.000000) scale(1, -1) translate(-200.000000, -297.000000) " points="176 293 224 293 216 301 184 301"></polygon>
                    <g id="Group-21" transform="translate(200.000000, 101.000000)"></g>
                    <g id="Group-16" transform="translate(248.000000, 213.000000)"></g>
                    <g id="Group-24" transform="translate(8.000000, 0.000000)">
                        <g id="Group-15">
                            <path d="M112,85 L176,85 L176,85 C211.346224,85 240,113.653776 240,149 L240,213 L48,213 L48,149 L48,149 C48,113.653776 76.653776,85 112,85 Z" id="Rectangle-22" fill="#E7C391"></path>
                            <path d="M112,85 L160,85 L160,85 C195.346224,85 224,113.653776 224,149 L224,213 L48,213 L48,149 L48,149 C48,113.653776 76.653776,85 112,85 Z" id="Rectangle-22" fill="#FFE2A8"></path>
                            <rect id="Rectangle-4" fill="#FFE2A8" x="106" y="85" width="86" height="48"></rect>
                            <path d="M80,157 L80,157 L80,205 L32,205 L32,205 L32,205 C32,178.490332 53.490332,157 80,157 Z" id="Rectangle-29" fill="#FFE2A8"></path>
                            <path d="M241,149 L241,149 L241,197 L193,197 L193,197 L193,197 C193,170.490332 214.490332,149 241,149 Z" id="Rectangle-29" fill="#E7C391"></path>
                            <g id="Group-23" transform="translate(192.000000, 93.000000)"></g>
                            <g id="Group-22" transform="translate(0.000000, 93.000000)" stroke="#A1674F" stroke-width="24" stroke-dasharray="4,8">
                                <path d="M0,0 C0,53.019336 42.980664,96 96,96 L96,96" id="Oval-12" transform="translate(48.000000, 48.000000) scale(1, -1) translate(-48.000000, -48.000000) "></path>
                            </g>
                            <circle id="Oval-15" stroke="#FF8A62" stroke-width="5" cx="72" cy="157" r="5.5"></circle>
                            <circle id="Oval-15-Copy" stroke="#FF8A62" stroke-width="5" cx="176" cy="157" r="5.5"></circle>
                            <path d="M88,221 L192,221 L192,221 C218.509668,221 240,242.490332 240,269 L240,277 L32,277 L32,277 L32,277 C32,246.072054 57.072054,221 88,221 Z" id="Rectangle-22-Copy" fill="#A1674F" transform="translate(136.000000, 249.000000) scale(1, -1) translate(-136.000000, -249.000000) "></path>
                            <rect id="Rectangle-9" fill="#3E3C5C" x="32" y="197" width="208" height="24"></rect>
                            <g id="Group-14" transform="translate(80.000000, 0.000000)">
                                <g id="Group-13" transform="translate(116.000000, 36.500000) scale(-1, 1) rotate(45.000000) translate(-116.000000, -36.500000) translate(94.000000, 8.000000)">
                                    <path d="M-0.972594648,29.6617597 C2.32209662,20.3402207 11.2120091,13.6617597 21.6617597,13.6617597 C32.1115103,13.6617597 41.0014228,20.3402207 44.296114,29.6617597 L-0.972594648,29.6617597 Z" id="Combined-Shape-Copy" fill="#34A362" transform="translate(21.661760, 21.661760) rotate(-45.000000) translate(-21.661760, -21.661760) "></path>
                                    <path d="M12.685653,41.9443519 C15.9803442,32.6228129 24.8702567,25.9443519 35.3200073,25.9443519 C45.7697579,25.9443519 54.6596704,32.6228129 57.9543617,41.9443519 L12.685653,41.9443519 Z" id="Combined-Shape-Copy-2" fill="#31825C" transform="translate(35.320007, 33.944352) scale(-1, 1) rotate(90.000000) translate(-35.320007, -33.944352) "></path>
                                </g>
                                <circle id="Oval-14" fill="#34A362" cx="56" cy="45" r="40"></circle>
                                <g id="Group-12" transform="translate(0.000000, 25.000000)">
                                    <circle id="Oval-6" stroke="#FFC552" stroke-width="5" cx="98" cy="42" r="7.5"></circle>
                                    <rect id="Rectangle-3" fill="#3E3C5C" x="0" y="40" width="104" height="76" rx="16"></rect>
                                    <path d="M40,8 L64,8 L64,8 C77.254834,8 88,18.745166 88,32 L88,56 L88,56 C88,64.836556 80.836556,72 72,72 L32,72 L32,72 C23.163444,72 16,64.836556 16,56 L16,32 L16,32 C16,18.745166 26.745166,8 40,8 Z" id="Rectangle" fill="#FFE2A8"></path>
                                    <path d="M40,0 L64,0 L64,0 C77.254834,-2.4348735e-15 88,10.745166 88,24 L88,48 L88,48 C88,56.836556 80.836556,64 72,64 L32,64 L32,64 C23.163444,64 16,56.836556 16,48 L16,24 L16,24 C16,10.745166 26.745166,2.4348735e-15 40,0 Z" id="Rectangle" fill="#FFE2A8"></path>
                                    <rect id="Rectangle-15" fill="#3E3C5C" x="24" y="24" width="8" height="8"></rect>
                                    <rect id="Rectangle-15" fill="#34A362" x="56" y="24" width="8" height="8"></rect>
                                    <path d="M96,32 C91.581722,32 88,35.581722 88,40 C88,44.418278 91.581722,48 96,48 L96,48" id="Oval-4-Copy" fill="#FFE2A8" transform="translate(92.000000, 40.000000) scale(-1, 1) translate(-92.000000, -40.000000) "></path>
                                    <rect id="Rectangle-5" fill="#3E3C5C" x="48" y="12" width="32" height="16" rx="4"></rect>
                                    <rect id="Rectangle-3" fill="#3E3C5C" x="12" y="48" width="78" height="40"></rect>
                                    <rect id="Rectangle-3" fill="#3E3C5C" x="16" y="40" width="64" height="40" rx="16"></rect>
                                    <rect id="Rectangle-3" fill="#3E3C5C" x="16" y="64" width="56" height="40" rx="16"></rect>
                                    <path d="M16,32 C11.581722,32 8,35.581722 8,40 C8,44.418278 11.581722,48 16,48 L16,48" id="Oval-4" fill="#FFE2A8"></path>
                                    <rect id="Rectangle-15" fill="#34A362" x="24" y="24" width="8" height="8"></rect>
                                    <rect id="Rectangle-5-Copy" fill="#3E3C5C" x="8" y="12" width="32" height="16" rx="4"></rect>
                                    <rect id="Rectangle-2" fill="#FF8A62" x="32" y="24" width="16" height="24" rx="8"></rect>
                                </g>
                            </g>
                        </g>
                    </g>
                    <circle id="Oval-30" stroke="#FFC552" stroke-width="8" cx="124" cy="209" r="16"></circle>
                    <polyline id="Line-2" stroke="#A1674F" stroke-width="3" stroke-linecap="square" points="96 172 104 164 112 172 120 164 128 172 136 164 144 172 152 164 160 172"></polyline>
                    <polyline id="Line-2" stroke="#A1674F" stroke-width="3" stroke-linecap="square" points="96 156 104 148 112 156 120 148 128 156 136 148 144 156 152 148 160 156"></polyline>
                </g>
                <g id="Group-27" transform="translate(392.000000, 164.000000)" stroke="#FFE2A8" stroke-width="48">
                    <path d="M0,0 C0,26.509668 21.490332,48 48,48 L48,48" id="Oval-12" transform="translate(24.000000, 24.000000) scale(-1, -1) translate(-24.000000, -24.000000) "></path>
                </g>
                <path d="M368,212 L368,212 L368,240 L368,240 C368,242.209139 366.209139,244 364,244 L356,244 L356,244 C353.790861,244 352,242.209139 352,240 L352,228 L352,228 C352,219.163444 359.163444,212 368,212 Z" id="Rectangle-17" fill="#E7C391" transform="translate(360.000000, 228.000000) rotate(90.000000) translate(-360.000000, -228.000000) "></path>
                <g id="mug" transform="translate(284.000000, 196.000000)">
                    <polygon id="Rectangle-54" fill="#F09F2E" points="12 16 60 16 68 88 4 88"></polygon>
                    <path d="M12,16 L60,16 L60,16 C62.209139,16 64,17.790861 64,20 L64,24 L8,24 L8,20 L8,20 C8,17.790861 9.790861,16 12,16 Z" id="Rectangle-23" fill="#FFC552"></path>
                    <path d="M44,16 C44,7.163444 36.836556,0 28,0 C19.163444,0 12,7.163444 12,16" id="Oval-33" fill="#FFFFFF"></path>
                    <path d="M52,16 C52,11.581722 48.418278,8 44,8 C39.581722,8 36,11.581722 36,16" id="Oval-33-Copy" fill="#FFFFFF"></path>
                    <path d="M4,80 L68,80 L68,80 C70.209139,80 72,81.790861 72,84 L72,88 L0,88 L0,84 L0,84 C-2.705415e-16,81.790861 1.790861,80 4,80 Z" id="Rectangle-25" fill="#FFC552"></path>
                </g>
                <g id="Group-27" transform="translate(386.000000, 248.000000) rotate(90.000000) translate(-386.000000, -248.000000) translate(350.000000, 194.000000)">
                    <path d="M0,0 C0,26.509668 21.490332,48 48,48 L48,48" id="Oval-12" stroke="#FFE2A8" stroke-width="48" transform="translate(24.000000, 24.000000) scale(-1, -1) translate(-24.000000, -24.000000) "></path>
                    <g id="Group-29" transform="translate(16.000000, 48.000000)">
                        <path d="M8,16 L48,16 L48,16 C52.418278,16 56,19.581722 56,24 L56,44 L56,44 C56,52.836556 48.836556,60 40,60 L8,60 L8,60 C3.581722,60 5.41083001e-16,56.418278 0,52 L2.51547035e-15,24 L3.55271368e-15,24 C3.01163068e-15,19.581722 3.581722,16 8,16 Z" id="Rectangle-17" fill="#FFE2A8"></path>
                        <path d="M47.5,15.5 L47.5,46.5644491" id="Line" stroke="#A1674F" stroke-width="24" stroke-dasharray="4,8"></path>
                        <rect id="Rectangle-43" fill="#3E3C5C" x="8" y="5.68434189e-14" width="48" height="16"></rect>
                    </g>
                </g>
                <g id="capitan+cannon-copy-2" stroke-dasharray="4,8">
                    <g id="capitan" transform="translate(104.000000, 186.000000) scale(-1, 1) translate(-104.000000, -186.000000) ">
                        <g id="Group-10" transform="translate(80.000000, 0.000000)">
                            <g id="Group-10-Copy" transform="translate(16.200000, 0.800000)">
                                <path d="M15.8,83.2 C20.218278,83.2 23.8,86.781722 23.8,91.2 L23.8,111.2 C23.8,115.618278 20.218278,119.2 15.8,119.2 C11.381722,119.2 7.8,115.618278 7.8,111.2 L7.8,91.2 C7.8,86.781722 11.381722,83.2 15.8,83.2 Z" id="Rectangle-2-Copy-3" fill="#A1674F"></path>
                                <polygon id="Combined-Shape" fill="#844840" points="73.041668 55.2 87.8 55.2 87.8 116.2 39.8 116.2 39.8 85.5888542 41.2264069 87.0152611"></polygon>
                                <path d="M15.4751374,46.5572185 C11.6100704,51.2708815 11.8780213,58.2397785 16.2789902,62.6407473 C18.5614211,64.9231783 21.5954836,66.1542426 24.7595964,66.1554651 C26.9687353,66.1563186 28.7589042,67.9478714 28.7580507,70.1570102 C28.7571972,72.366149 26.9656444,74.156318 24.7565056,74.1554645 C19.4927486,74.1534308 14.4195092,72.0949748 10.6221359,68.2976016 C3.29059203,60.9660577 2.84101899,49.3586053 9.27341683,41.5026607 C8.1084671,43.0687938 8.23661628,45.2934705 9.65786438,46.7147186 C11.2199615,48.2768158 13.7526215,48.2768158 15.3147186,46.7147186 C15.3677878,46.6616494 15.4212634,46.6091486 15.4751374,46.5572185 L15.4751374,46.5572185 Z" id="Combined-Shape" fill="#844840" fill-rule="nonzero"></path>
                                <path d="M39.5978451,93.4050436 C39.7305999,92.6902686 39.8,91.9532389 39.8,91.2 L39.8,83.2 C39.8,76.572583 34.427417,71.2 27.8,71.2 C21.172583,71.2 15.8,76.572583 15.8,83.2 L15.8,91.2 C15.8,96.4248753 19.1392305,100.869832 23.8,102.517177 L23.8,95.2 C23.8,90.781722 27.381722,87.2 31.8,87.2 C35.6011446,87.2 38.7831081,89.8510296 39.5978451,93.4050436 L39.5978451,93.4050436 Z" id="Combined-Shape" fill="#844840"></path>
                                <polygon id="Rectangle-7" fill="#844840" points="23.8 71.2 27.8 71.2 27.8 76.8 23.8 76.8"></polygon>
                                <path d="M79.8,84 C84.218278,84 87.8,87.581722 87.8,92 L87.8,110.4 C87.8,114.818278 84.218278,118.4 79.8,118.4 C75.381722,118.4 71.8,114.818278 71.8,110.4 L71.8,92 C71.8,87.581722 75.381722,84 79.8,84 Z" id="Rectangle-2-Copy" fill="#A1674F"></path>
                                <g id="Group-5" transform="translate(36.600000, 94.800000)">
                                    <path d="M7.09332419,4.76982075 C10.8805276,2.49423935 15.7953858,3.71965113 18.0709672,7.50685455 L34.1401551,34.2504743 C36.4157365,38.0376778 35.1903248,42.9525359 31.4031213,45.2281173 C27.6159179,47.5036987 22.7010597,46.278287 20.4254783,42.4910835 L4.35629039,15.7474638 C2.08070899,11.9602603 3.30612077,7.04540214 7.09332419,4.76982075 Z" id="Rectangle-2-Copy" fill="#844840"></path>
                                    <path d="M27.2,31.6 C31.618278,31.6 35.2,35.181722 35.2,39.6 L35.2,48.4 C35.2,52.818278 31.618278,56.4 27.2,56.4 C22.781722,56.4 19.2,52.818278 19.2,48.4 L19.2,39.6 C19.2,35.181722 22.781722,31.6 27.2,31.6 Z" id="Rectangle-2-Copy" fill="#A1674F"></path>
                                </g>
                                <path d="M23.8,71.2 C28.218278,71.2 31.8,74.781722 31.8,79.2 L31.8,95.2 C31.8,99.618278 28.218278,103.2 23.8,103.2 C19.381722,103.2 15.8,99.618278 15.8,95.2 L15.8,79.2 C15.8,74.781722 19.381722,71.2 23.8,71.2 Z" id="Rectangle-2-Copy-3" fill="#844840"></path>
                                <g id="head" transform="translate(68.600000, 51.200000)">
                                    <g id="Group-4">
                                        <circle id="Oval-2" fill="#844840" cx="14.4" cy="14.4" r="14.4"></circle>
                                        <path d="M9.6,0.819387397 C15.1929234,2.79620216 19.2,8.13014963 19.2,14.4 C19.2,20.6698504 15.1929234,26.0037978 9.6,27.9806126 C4.00707661,26.0037978 0,20.6698504 0,14.4 C0,8.13014963 4.00707661,2.79620216 9.6,0.819387397 L9.6,0.819387397 Z" id="Combined-Shape" fill="#A1674F"></path>
                                    </g>
                                    <g id="Group-8" transform="translate(9.600000, 9.600000)">
                                        <g id="Group-9">
                                            <path d="M8.8,0 L3.2,0 C2.79052429,2.22044605e-16 2.38104858,0.0781048584 1.99583694,0.234314575 C0.80588745,0.7372583 -1.623249e-16,1.8745166 0,3.2 C5.41083001e-17,3.6418278 0.08954305,4.0627417 0.251471863,4.44558441 C0.390524292,4.7893747 0.624838867,5.15032227 0.9372583,5.4627417 L4.89705627,9.42253967 L8.8,5.51959595 L8.8,0 Z" id="Combined-Shape" fill="#FFC552"></path>
                                            <path d="M8.8,0 L14.4,0 C14.8094757,2.22044605e-16 15.2189514,0.0781048584 15.6041631,0.234314575 C16.7941125,0.7372583 17.6,1.8745166 17.6,3.2 C17.6,3.6418278 17.5104569,4.0627417 17.3485281,4.44558441 C17.2094757,4.7893747 16.9751611,5.15032227 16.6627417,5.4627417 L12.7029437,9.42253967 L8.8,5.51959595 L8.8,0 Z" id="Combined-Shape" fill="#F09F2E"></path>
                                            <path d="M8.8,3.2 C5.7072054,3.2 3.2,5.7072054 3.2,8.8 L3.2,9.6 C3.2,12.6927946 5.7072054,15.2 8.8,15.2 C11.8927946,15.2 14.4,12.6927946 14.4,9.6 L14.4,8.8 C14.4,5.7072054 11.8927946,3.2 8.8,3.2 Z" id="Combined-Shape" fill="#FFC552"></path>
                                        </g>
                                    </g>
                                    <g id="Group-6" transform="translate(1.600000, 9.600000)" fill="#FFC552">
                                        <path d="M3.2,6.4 C1.4326888,6.4 0,4.9673112 0,3.2 C0,1.4326888 1.4326888,0 3.2,0 C3.6418278,-8.11624501e-17 4,0.3581722 4,0.8 L4,5.6 C4,6.0418278 3.6418278,6.4 3.2,6.4 Z" id="Combined-Shape"></path>
                                    </g>
                                    <path d="M27.2,9.6 C28.9673112,9.6 30.4,11.0326888 30.4,12.8 C30.4,14.5673112 28.9673112,16 27.2,16 L27.2,9.6 Z" id="Combined-Shape" fill="#844840"></path>
                                </g>
                            </g>
                        </g>
                        <path d="M97.6751374,75.3572185 C93.8100704,80.0708815 94.0780213,87.0397785 98.4789902,91.4407473 C100.761421,93.7231783 103.795484,94.9542426 106.959596,94.9554651 C109.168735,94.9563186 110.958904,96.7478714 110.958051,98.9570102 C110.957197,101.166149 109.165644,102.956318 106.956506,102.955464 C101.692749,102.953431 96.6195092,100.894975 92.8221359,97.0976016 C85.490592,89.7660577 85.041019,78.1586053 91.4734168,70.3026607 C90.3084671,71.8687938 90.4366163,74.0934705 91.8578644,75.5147186 C93.4199615,77.0768158 95.9526215,77.0768158 97.5147186,75.5147186 C97.5677878,75.4616494 97.6212634,75.4091486 97.6751374,75.3572185 L97.6751374,75.3572185 Z" id="Combined-Shape" fill="#844840" fill-rule="nonzero"></path>
                        <path d="M106,72 C102.834272,72 99.7983004,73.2311369 97.5147186,75.5147186 C95.9526215,77.0768158 93.4199615,77.0768158 91.8578644,75.5147186 C90.2957672,73.9526215 90.2957672,71.4199615 91.8578644,69.8578644 C95.6571581,66.0585706 100.733573,64 106,64 L138,64 C138.20206,64 138.40062,64.0149822 138.594631,64.0438963 C141.300749,63.7631097 143.846955,62.5742286 145.827316,60.5938682 C150.513607,55.9075767 150.513607,48.309597 145.827316,43.6233055 C141.141024,38.937014 133.543045,38.937014 128.856753,43.6233055 C127.294656,45.1854027 124.761996,45.1854027 123.199899,43.6233055 C121.637802,42.0612083 121.637802,39.5285484 123.199899,37.9664512 C131.010385,30.1559654 143.673684,30.1559654 151.48417,37.9664512 C159.294656,45.7769371 159.294656,58.4402367 151.48417,66.2507225 C147.688832,70.0460605 142.618957,72.1043938 137.35803,72.1085805 C137.036883,72.1088361 136.724544,72.0712381 136.425235,72 L106,72 L106,72 Z" id="Combined-Shape" fill="#844840" fill-rule="nonzero"></path>
                        <path d="M200,96 C200,129.137085 173.137085,156 140,156 L60,156 C26.862915,156 0,129.137085 0,96 L200,96 Z M192,96 L144,96 C144,102.627417 154.745166,108 168,108 C181.254834,108 192,102.627417 192,96 Z M32,96 L8,96 C8,102.627417 13.372583,108 20,108 C26.627417,108 32,102.627417 32,96 Z" id="Combined-Shape" fill="#3E3C5C"></path>
                        <path d="M138,171 C140.761424,171 143,168.761424 143,166 C143,163.238576 140.761424,161 138,161 C135.238576,161 133,163.238576 133,166 C133,168.761424 135.238576,171 138,171 Z M138,176 C132.477153,176 128,171.522847 128,166 C128,160.477153 132.477153,156 138,156 C143.522847,156 148,160.477153 148,166 C148,171.522847 143.522847,176 138,176 Z" id="Oval-6" fill="#FFC552" fill-rule="nonzero"></path>
                        <path d="M8,96 C8,93.790861 6.209139,92 4,92 C1.790861,92 0,93.790861 0,96" id="Oval-5" fill="#3E3C5C"></path>
                        <g id="body" transform="translate(40.000000, 196.000000)">
                            <g id="Group-2" fill="#C94848">
                                <path d="M24,0 L104,0 C117.254834,-2.4348735e-15 128,10.745166 128,24 L128,96 L0,96 L0,24 C-1.623249e-15,10.745166 10.745166,2.4348735e-15 24,0 Z" id="Rectangle-8"></path>
                            </g>
                            <polygon id="Rectangle-9" fill="#FFFFFF" points="0 72 128 72 128 80 0 80"></polygon>
                            <polygon id="Rectangle-9" fill="#FFFFFF" points="0 88 128 88 128 96 0 96"></polygon>
                            <polygon id="Rectangle-9" fill="#3E3C5C" points="0 96 128 96 128 112 0 112"></polygon>
                            <polygon id="Rectangle-9" fill="#F09F2E" points="32 96 56 96 56 112 32 112"></polygon>
                            <path d="M0,112 L128,112 C128,125.254834 117.254834,136 104,136 L24,136 C10.745166,136 1.623249e-15,125.254834 0,112 Z" id="Rectangle-9" fill="#34A362"></path>
                            <polygon id="Rectangle-9" fill="#FFFFFF" points="0 56 128 56 128 64 0 64"></polygon>
                            <polygon id="Rectangle-9" fill="#FFFFFF" points="0 40 128 40 128 48 0 48"></polygon>
                            <polygon id="Rectangle-9" fill="#FFFFFF" points="0 24 128 24 128 32 0 32"></polygon>
                            <polygon id="Rectangle-16" fill="#34A362" points="16 128 32 128 32 144 16 144"></polygon>
                            <polygon id="Rectangle-16" fill="#31825C" points="24 136 32 136 32 144 24 144"></polygon>
                            <polygon id="Rectangle-16" fill="#FFC552" points="16 144 32 144 24 176"></polygon>
                            <polygon id="Rectangle-16" fill="#F09F2E" points="24 144 32 144 24 176"></polygon>
                        </g>
                        <path d="M48,196 C39.163444,196 32,203.163444 32,212 L32,324 L48,324 L48,196 Z" id="Rectangle-11" fill="#3E3C5C"></path>
                        <path d="M120,196 L144,196 C157.254834,196 168,206.745166 168,220 L168,324 L120,324 L120,196 Z" id="Rectangle-11" fill="#3E3C5C"></path>
                        <circle id="Oval-34" fill="#3E3C5C" cx="136" cy="248" r="52"></circle>
                        <polygon id="Rectangle-16-Copy" fill="#34A362" points="128 332 144 332 144 348 128 348"></polygon>
                        <polygon id="Rectangle-16-Copy" fill="#31825C" points="136 332 144 332 144 348 136 348"></polygon>
                        <polygon id="Rectangle-16-Copy" fill="#3E3C5C" points="128 348 144 348 144 372 128 372"></polygon>
                        <polygon id="Rectangle-19" fill="#48A8EF" points="120 348 152 348 144 340 128 340"></polygon>
                        <polygon id="Rectangle-19-Copy" fill="#2F3242" points="152 372 104 372 128 356 144 356"></polygon>
                        <polygon id="Rectangle-16-Copy" fill="#3E3C5C" points="104 372 120 372 136 356 128 356"></polygon>
                        <polygon id="Rectangle-10" fill="#2F3242" points="136 348 144 348 144 364 136 364"></polygon>
                        <path d="M200,96 C200,93.790861 198.209139,92 196,92 C193.790861,92 192,93.790861 192,96" id="Oval-5-Copy" fill="#3E3C5C"></path>
                        <path d="M56,164 L128,164 C136.836556,164 144,171.163444 144,180 L144,188 C144,196.836556 136.836556,204 128,204 L56,204 C47.163444,204 40,196.836556 40,188 L40,180 C40,171.163444 47.163444,164 56,164 Z" id="Rectangle-3" fill="#F15F55"></path>
                        <path d="M48,188 L104,188 C117.254834,188 128,198.745166 128,212 C128,225.254834 117.254834,236 104,236 L48,236 C34.745166,236 24,225.254834 24,212 C24,198.745166 34.745166,188 48,188 Z" id="Rectangle-3" fill="#F15F55"></path>
                        <path d="M81,180 L121,180 C138.673112,180 153,194.326888 153,212 C153,229.673112 138.673112,244 121,244 L81,244 C63.326888,244 49,229.673112 49,212 C49,194.326888 63.326888,180 81,180 Z" id="Rectangle-3" fill="#F15F55"></path>
                        <path d="M80,180 C106.509668,180 128,201.490332 128,228 C128,254.509668 106.509668,276 80,276 C53.490332,276 32,254.509668 32,228 C32,201.490332 53.490332,180 80,180 Z" id="Rectangle-3" fill="#F15F55"></path>
                        <path d="M80,132 L104,132 C117.254834,132 128,142.745166 128,156 L128,180 C128,188.836556 120.836556,196 112,196 L72,196 C63.163444,196 56,188.836556 56,180 L56,156 C56,142.745166 66.745166,132 80,132 Z" id="Rectangle" fill="#FFE2A8"></path>
                        <path d="M128,156 C132.418278,156 136,159.581722 136,164 C136,168.418278 132.418278,172 128,172 L128,156 Z" id="Oval-4-Copy" fill="#FFE2A8"></path>
                        <polygon id="Rectangle-14" fill="#3E3C5C" points="75.1005051 121.272078 126.012193 172.183766 123.183766 175.012193 72.2720779 124.100505"></polygon>
                        <circle id="Oval" fill="#3E3C5C" cx="104" cy="152" r="12"></circle>
                        <path d="M92,132 L116,132 C118.209139,132 120,133.790861 120,136 L120,144 C120,146.209139 118.209139,148 116,148 L92,148 C89.790861,148 88,146.209139 88,144 L88,136 C88,133.790861 89.790861,132 92,132 Z" id="Rectangle-5" fill="#F15F55"></path>
                        <path d="M52,132 L76,132 C78.209139,132 80,133.790861 80,136 L80,144 C80,146.209139 78.209139,148 76,148 L52,148 C49.790861,148 48,146.209139 48,144 L48,136 C48,133.790861 49.790861,132 52,132 Z" id="Rectangle-5-Copy" fill="#F15F55"></path>
                        <path d="M120,136 C120,133.790861 118.209139,132 116,132 L92,132 C89.790861,132 88,133.790861 88,136 L88,140 L120,140 L120,136 Z" id="Combined-Shape" fill="#FF8A62"></path>
                        <path d="M80,136 C80,133.790861 78.209139,132 76,132 L52,132 C49.790861,132 48,133.790861 48,136 L48,140 L80,140 L80,136 Z" id="Combined-Shape-Copy-18" fill="#FF8A62"></path>
                        <polygon id="Rectangle-3" fill="#F15F55" points="52 172 130 172 130 212 52 212"></polygon>
                        <path d="M72,164 L104,164 C112.836556,164 120,171.163444 120,180 L120,188 C120,196.836556 112.836556,204 104,204 L72,204 C63.163444,204 56,196.836556 56,188 L56,180 C56,171.163444 63.163444,164 72,164 Z" id="Rectangle-3" fill="#F15F55"></path>
                        <g id="Group" transform="translate(64.000000, 172.000000)">
                            <mask id="mask-2" fill="white">
                                <use xlink:href="#path-1"></use>
                            </mask>
                            <use id="Rectangle-3" fill="#3E3C5C" xlink:href="#path-1"></use>
                            <path d="M8,0 L16,0 L16,4 C16,6.209139 14.209139,8 12,8 C9.790861,8 8,6.209139 8,4 L8,0 Z" id="Rectangle-6" fill="#FFFFFF" mask="url(#mask-2)"></path>
                            <path d="M24,0 L32,0 L32,4 C32,6.209139 30.209139,8 28,8 C25.790861,8 24,6.209139 24,4 L24,0 Z" id="Rectangle-6-Copy" fill="#FFFFFF" mask="url(#mask-2)"></path>
                            <path d="M40,0 L48,0 L48,4 C48,6.209139 46.209139,8 44,8 C41.790861,8 40,6.209139 40,4 L40,0 Z" id="Rectangle-6-Copy" fill="#FFFFFF" mask="url(#mask-2)"></path>
                            <path d="M16,24 L24,24 L24,20 C24,17.790861 22.209139,16 20,16 C17.790861,16 16,17.790861 16,20 L16,24 Z" id="Rectangle-6" fill="#FFFFFF" mask="url(#mask-2)"></path>
                            <path d="M0,24 L8,24 L8,20 C8,17.790861 6.209139,16 4,16 C1.790861,16 2.705415e-16,17.790861 0,20 L0,24 Z" id="Rectangle-6" fill="#FFFFFF" mask="url(#mask-2)"></path>
                            <path d="M32,24 L40,24 L40,20 C40,17.790861 38.209139,16 36,16 C33.790861,16 32,17.790861 32,20 L32,24 Z" id="Rectangle-6-Copy" fill="#FFFFFF" mask="url(#mask-2)"></path>
                        </g>
                        <path d="M80,148 C84.418278,148 88,151.581722 88,156 L88,164 C88,168.418278 84.418278,172 80,172 C75.581722,172 72,168.418278 72,164 L72,156 C72,151.581722 75.581722,148 80,148 Z" id="Rectangle-2" fill="#FF8A62"></path>
                        <path d="M56,156 C51.581722,156 48,159.581722 48,164 C48,168.418278 51.581722,172 56,172 L56,172" id="Oval-4" fill="#FFE2A8"></path>
                        <path d="M144,96 C144,65.072054 118.927946,40 88,40 C57.072054,40 32,65.072054 32,96 L32,108.249964 L144,108.249964 L144,96 Z" id="Oval-7" fill="#3E3C5C"></path>
                        <path d="M80,92 C91.045695,92 100,91.045695 100,80 C100,68.954305 91.045695,60 80,60 C68.954305,60 60,68.954305 60,80 C60,91.045695 68.954305,92 80,92 Z" id="Oval-8" fill="#FFFFFF"></path>
                        <circle id="Oval-9" fill="#3E3C5C" cx="72" cy="72" r="4"></circle>
                        <circle id="Oval-10" fill="#3E3C5C" cx="88" cy="72" r="4"></circle>
                        <polygon id="Rectangle-12" fill="#FFFFFF" points="68 84 92 84 92 100 68 100"></polygon>
                        <polygon id="Rectangle-15" fill="#3E3C5C" points="64 148 72 148 72 156 64 156"></polygon>
                        <circle id="Oval-11" fill="#FFC552" cx="64" cy="364" r="8"></circle>
                        <path d="M64,372 C68.418278,372 72,368.418278 72,364 C72,359.581722 68.418278,356 64,356" id="Oval-11" fill="#F09F2E"></path>
                        <polygon id="Rectangle-24" fill="#48A8EF" points="140 284 172 284 172 292 140 292"></polygon>
                        <polygon id="Rectangle-24" fill="#3E3C5C" points="140 292 172 292 172 308 140 308"></polygon>
                    </g>
                    <g id="Group-11" transform="translate(24.000000, 220.000000)">
                        <polygon id="Rectangle-6" fill="#844840" transform="translate(196.000000, 128.000000) scale(-1, 1) translate(-196.000000, -128.000000) " points="48 104 344 104 344 152 48 152"></polygon>
                        <polygon id="Rectangle-6" fill="#3E3C5C" transform="translate(196.000000, 108.000000) scale(-1, 1) translate(-196.000000, -108.000000) " points="48 104 344 104 344 112 48 112"></polygon>
                        <g id="Group-28">
                            <path d="M1.0658141e-15,72 L384,72 L384,96 L384,96 C384,100.418278 380.418278,104 376,104 L8,104 L8,104 C3.581722,104 5.41083001e-16,100.418278 0,96 L1.0658141e-15,72 Z" id="Rectangle-6" fill="#844840" transform="translate(192.000000, 88.000000) scale(-1, 1) translate(-192.000000, -88.000000) "></path>
                            <polygon id="Rectangle-11" fill="#8C5A46" points="324 72 324 104 72 104 72 72"></polygon>
                            <path d="M8,64 L376,64 L376,64 C380.418278,64 384,67.581722 384,72 L384,72 L0,72 L0,72 L0,72 C-5.41083001e-16,67.581722 3.581722,64 8,64 Z" id="Rectangle-20" fill="#8C5A46"></path>
                            <path d="M72,64 L320,64 L320,64 C324.418278,64 328,67.581722 328,72 L328,72 L64,72 L64,72 L64,72 C64,67.581722 67.581722,64 72,64 Z" id="Rectangle-20" fill="#A1674F" transform="translate(196.000000, 68.000000) scale(1, -1) translate(-196.000000, -68.000000) "></path>
                            <path d="M96,64 L304,64 L304,64 C308.418278,64 312,67.581722 312,72 L312,72 L88,72 L88,72 L88,72 C88,67.581722 91.581722,64 96,64 Z" id="Rectangle-20" fill="#D37739" transform="translate(200.000000, 68.000000) scale(1, -1) translate(-200.000000, -68.000000) "></path>
                            <polygon id="Rectangle-11" fill="#844840" points="196 72 196 104 192 104 192 72"></polygon>
                            <polygon id="Rectangle-11" fill="#A1674F" points="200 72 200 104 196 104 196 72"></polygon>
                            <polygon id="Rectangle-11" fill="#844840" points="132 72 132 104 128 104 128 72"></polygon>
                            <polygon id="Rectangle-11" fill="#A1674F" points="136 72 136 104 132 104 132 72"></polygon>
                            <polygon id="Rectangle-11" fill="#844840" points="68 72 68 104 64 104 64 72"></polygon>
                            <polygon id="Rectangle-11" fill="#A1674F" points="72 72 72 104 68 104 68 72"></polygon>
                            <polygon id="Rectangle-11" fill="#844840" points="260 72 260 104 256 104 256 72"></polygon>
                            <polygon id="Rectangle-11" fill="#A1674F" points="264 72 264 104 260 104 260 72"></polygon>
                            <polygon id="Rectangle-11" fill="#844840" points="324 72 324 104 320 104 320 72"></polygon>
                            <polygon id="Rectangle-11" fill="#A1674F" points="328 72 328 104 324 104 324 72"></polygon>
                            <polygon id="Rectangle-11" fill="#A1674F" points="196 64 196 72 192 72 192 64"></polygon>
                            <polygon id="Rectangle-11" fill="#F09F2E" points="200 64 200 72 196 72 196 64"></polygon>
                            <polygon id="Rectangle-11" fill="#A1674F" points="132 64 132 72 128 72 128 64"></polygon>
                            <polygon id="Rectangle-11" fill="#F09F2E" points="136 64 136 72 132 72 132 64"></polygon>
                            <polygon id="Rectangle-11" fill="#844840" points="68 64 68 72 64 72 64 64"></polygon>
                            <polygon id="Rectangle-11" fill="#A1674F" points="72 64 72 72 68 72 68 64"></polygon>
                            <polygon id="Rectangle-11" fill="#A1674F" points="260 64 260 72 256 72 256 64"></polygon>
                            <polygon id="Rectangle-11" fill="#F09F2E" points="264 64 264 72 260 72 260 64"></polygon>
                            <polygon id="Rectangle-11" fill="#844840" points="324 64 324 72 320 72 320 64"></polygon>
                            <polygon id="Rectangle-11" fill="#A1674F" points="328 64 328 72 324 72 324 64"></polygon>
                            <g id="Group-7" transform="translate(168.000000, 0.000000)">
                                <g id="Group-33">
                                    <circle id="Oval-2" fill="#FF8A62" cx="16" cy="16" r="16"></circle>
                                    <circle id="Oval-2" fill="#FFC552" cx="16" cy="16" r="12"></circle>
                                    <circle id="Oval-2" fill="#FFE2A8" cx="16" cy="16" r="8"></circle>
                                    <circle id="Oval-2" fill="#FFFFFF" cx="16" cy="16" r="4"></circle>
                                    <polygon id="Rectangle-18" fill="#FFFFFF" points="16 0 20 16 12 16"></polygon>
                                </g>
                                <path d="M12,24 L20,24 L20,24 C22.209139,24 24,25.790861 24,28 L24,64 L8,64 L8,28 L8,28 C8,25.790861 9.790861,24 12,24 Z" id="Rectangle-53" fill="#FFFFFF"></path>
                                <path d="M32,64 L24,64 L24,56 L24,56 L24,56 C24,60.418278 27.581722,64 32,64 Z" id="Combined-Shape" fill="#FFFFFF"></path>
                                <path d="M8,64 L0,64 L0,56 L0,56 L0,56 C5.41083001e-16,60.418278 3.581722,64 8,64 Z" id="Combined-Shape" fill="#FFFFFF" transform="translate(4.000000, 60.000000) scale(-1, 1) translate(-4.000000, -60.000000) "></path>
                            </g>
                            <g id="Group-7" transform="translate(192.000000, 16.000000)">
                                <g id="Group-33">
                                    <circle id="Oval-2" fill="#FF8A62" cx="16" cy="16" r="16"></circle>
                                    <circle id="Oval-2" fill="#FFC552" cx="16" cy="16" r="12"></circle>
                                    <circle id="Oval-2" fill="#FFE2A8" cx="16" cy="16" r="8"></circle>
                                    <circle id="Oval-2" fill="#FFFFFF" cx="16" cy="16" r="4"></circle>
                                    <polygon id="Rectangle-18" fill="#FFFFFF" points="16 0 20 16 12 16"></polygon>
                                </g>
                                <path d="M12,24 L20,24 L20,24 C22.209139,24 24,25.790861 24,28 L24,48 L8,48 L8,28 L8,28 C8,25.790861 9.790861,24 12,24 Z" id="Rectangle-53" fill="#FFFFFF"></path>
                                <path d="M32,48 L24,48 L24,40 L24,40 L24,40 C24,44.418278 27.581722,48 32,48 Z" id="Combined-Shape" fill="#FFFFFF"></path>
                                <path d="M8,48 L0,48 L0,40 L0,40 L0,40 C5.41083001e-16,44.418278 3.581722,48 8,48 Z" id="Combined-Shape" fill="#FFFFFF" transform="translate(4.000000, 44.000000) scale(-1, 1) translate(-4.000000, -44.000000) "></path>
                            </g>
                        </g>
                    </g>
                    <g id="mug" transform="translate(152.000000, 240.000000) scale(-1, 1) translate(-152.000000, -240.000000) translate(116.000000, 196.000000)">
                        <polygon id="Rectangle-54" fill="#F09F2E" points="12 16 60 16 68 88 4 88"></polygon>
                        <polygon id="Rectangle-54" fill="#F09F2E" points="36 16 60 16 68 88 36 88"></polygon>
                        <path d="M12,16 L60,16 L60,16 C62.209139,16 64,17.790861 64,20 L64,24 L8,24 L8,20 L8,20 C8,17.790861 9.790861,16 12,16 Z" id="Rectangle-23" fill="#FFC552"></path>
                        <path d="M44,16 C44,7.163444 36.836556,0 28,0 C19.163444,0 12,7.163444 12,16" id="Oval-33" fill="#FFFFFF"></path>
                        <path d="M52,16 C52,11.581722 48.418278,8 44,8 C39.581722,8 36,11.581722 36,16" id="Oval-33-Copy" fill="#FFFFFF"></path>
                        <path d="M4,80 L68,80 L68,80 C70.209139,80 72,81.790861 72,84 L72,88 L0,88 L0,84 L0,84 C-2.705415e-16,81.790861 1.790861,80 4,80 Z" id="Rectangle-25" fill="#FFC552"></path>
                    </g>
                    <g id="Group-3" transform="translate(96.000000, 262.000000) scale(1, -1) rotate(-90.000000) translate(-96.000000, -262.000000) translate(74.000000, 222.000000)">
                        <g id="Group-30">
                            <path d="M4,48 L12,48 C14.209139,48 16,49.790861 16,52 L16,60 C16,62.209139 14.209139,64 12,64 L4,64 C1.790861,64 2.705415e-16,62.209139 0,60 L0,52 C-2.705415e-16,49.790861 1.790861,48 4,48 Z" id="Rectangle-17" fill="#E7C391"></path>
                            <path d="M24,40 C35.045695,40 44,48.954305 44,60 L44,64 C44,72.836556 36.836556,80 28,80 L12,80 C7.581722,80 4,76.418278 4,72 L4,60 C4,48.954305 12.954305,40 24,40 Z" id="Rectangle-17" fill="#FFE2A8"></path>
                            <rect id="Rectangle-26" fill="#FFE2A8" x="22" y="44" width="22" height="20"></rect>
                            <polygon id="Rectangle-13" fill="#48A8EF" points="4 40 44 40 44 48 4 48"></polygon>
                            <polygon id="Rectangle-13" fill="#3E3C5C" points="4 0 44 0 44 40 4 40"></polygon>
                        </g>
                    </g>
                </g>
                <path d="M392,276 L392,276 C427.346224,276 456,247.346224 456,212 C456,176.653776 427.346224,148 392,148" id="Oval-16" stroke="#A1674F" stroke-width="24" stroke-dasharray="4,8"></path>
            </g>
        </g>
    </g>
</svg>