<?xml version="1.0" encoding="UTF-8" standalone="no"?>
<svg width="640px" height="384px" viewBox="0 0 640 384" version="1.1" xmlns="http://www.w3.org/2000/svg" xmlns:xlink="http://www.w3.org/1999/xlink">
    <!-- Generator: Sketch 47.1 (45422) - http://www.bohemiancoding.com/sketch -->
    <title>treasure</title>
    <desc>Created with Sketch.</desc>
    <defs>
        <rect id="path-1" x="0" y="0" width="640" height="384"></rect>
        <rect id="path-2" x="0" y="0" width="501" height="168"></rect>
        <path d="M80,-1.13686838e-13 L0,-5.68434189e-14 L0,56 L136,56 C136,25.072054 110.927946,-1.13686838e-13 80,-1.13686838e-13 Z" id="path-4"></path>
        <path d="M0,48 C0,21.490332 21.490332,0 48,0 C74.509668,0 96,21.490332 96,48 L0,48 Z" id="path-6"></path>
        <path d="M68,80 L188,80 L188,80 C190.209139,80 192,78.209139 192,76 L192,64 C192,28.653776 163.346224,0 128,0 L112,0 C147.346224,0 176,28.653776 176,64 L80,64 C80,28.653776 51.346224,0 16,0 L0,0 C35.346224,0 64,28.653776 64,64 L64,76 L64,76 C64,78.209139 65.790861,80 68,80 Z" id="path-8"></path>
        <path d="M28,29.6701554 C35.0636191,25.3494383 40,15.4817866 40,4 C40,2.64191464 39.9309373,1.30641194 39.7974604,-5.68434189e-14 L1.11790785e-13,-5.32907052e-14 C7.51592076e-14,1.76127643 5.68434189e-14,3.09460976 5.68434189e-14,4 C5.68434189e-14,19.463973 8.954305,32 20,32 L28,32 L28,29.6701554 Z" id="path-10"></path>
        <path d="M28,16 L32,16 C32,7.163444 24.836556,0 16,0 C7.163444,0 0,7.163444 0,16 L4,16 C4,9.372583 9.372583,4 16,4 C22.627417,4 28,9.372583 28,16 Z" id="path-12"></path>
        <path d="M0,0 L10,0 C12.209139,0 14,1.790861 14,4 L14,12 C14,14.209139 12.209139,16 10,16 L0,16 L2,16 C4.209139,16 6,14.209139 6,12 L6,4 C6,1.790861 4.209139,0 2,0 L0,0 Z" id="path-14"></path>
    </defs>
    <g id="Symbols" stroke="none" stroke-width="1" fill="none" fill-rule="evenodd">
        <g id="treasure">
            <g>
                <g id="size" opacity="0">
                    <use fill="#D8D8D8" fill-rule="evenodd" xlink:href="#path-1"></use>
                    <rect stroke="#979797" stroke-width="1" x="0.5" y="0.5" width="639" height="383"></rect>
                </g>
                <g transform="translate(94.000000, 208.000000)">
                    <mask id="mask-3" fill="white">
                        <use xlink:href="#path-2"></use>
                    </mask>
                    <use id="Rectangle-7" fill="#00AAFF" opacity="0" xlink:href="#path-2"></use>
                    <g id="Group-16" mask="url(#mask-3)">
                        <g transform="translate(7.000000, 0.000000)">
                            <g id="Group-39" transform="translate(0.000000, 21.000000)">
                                <g id="Group-2-Copy-5">
                                    <g id="Group">
                                        <path d="M66.4248058,63.6785304 C73.0141883,45.0354524 90.7940133,31.6785304 111.693514,31.6785304 C132.593016,31.6785304 150.372841,45.0354524 156.962223,63.6785304 L66.4248058,63.6785304 Z" id="Combined-Shape-Copy" fill="#B64C4C" transform="translate(111.693514, 47.678530) rotate(-45.000000) translate(-111.693514, -47.678530) "></path>
                                        <path d="M91,91 C97.5893825,72.356922 115.369207,59 136.268709,59 C157.16821,59 174.948035,72.356922 181.537417,91 L91,91 Z" id="Combined-Shape" fill="#34A362"></path>
                                        <path d="M66.4248058,63.6785304 C73.0141883,45.0354524 90.7940133,31.6785304 111.693514,31.6785304 C132.593016,31.6785304 150.372841,45.0354524 156.962223,63.6785304 L66.4248058,63.6785304 Z" id="Combined-Shape-Copy" fill="#31825C" transform="translate(111.693514, 47.678530) rotate(-45.000000) translate(-111.693514, -47.678530) "></path>
                                        <path d="M29.7312913,61.7287001 C36.3206739,43.0856222 54.1004988,29.7287001 75,29.7287001 C95.8995012,29.7287001 113.679326,43.0856222 120.268709,61.7287001 L29.7312913,61.7287001 Z" id="Combined-Shape-Copy-2" fill="#34A362" transform="translate(75.000000, 45.728700) scale(-1, 1) rotate(90.000000) translate(-75.000000, -45.728700) "></path>
                                        <path d="M2.41479605,127.703524 C9.00417858,109.060446 26.7840035,95.7035243 47.6835047,95.7035243 C68.583006,95.7035243 86.3628309,109.060446 92.9522134,127.703524 L2.41479605,127.703524 Z" id="Combined-Shape-Copy" fill="#34A362" transform="translate(47.683505, 111.703524) rotate(-45.000000) translate(-47.683505, -111.703524) "></path>
                                        <path d="M29.7312913,152.268709 C36.3206739,133.625631 54.1004988,120.268709 75,120.268709 C95.8995012,120.268709 113.679326,133.625631 120.268709,152.268709 L29.7312913,152.268709 Z" id="Combined-Shape-Copy-2" fill="#31825C" transform="translate(75.000000, 136.268709) scale(-1, 1) rotate(90.000000) translate(-75.000000, -136.268709) "></path>
                                        <path d="M0.460021973,91 C7.0494045,72.356922 24.8292294,59 45.7287306,59 C66.6282319,59 84.4080568,72.356922 90.9974393,91 L0.460021973,91 Z" id="Combined-Shape" fill="#31825C"></path>
                                    </g>
                                </g>
                                <g id="Group-2-Copy-5" transform="translate(323.000000, 99.000000) scale(-1, 1) translate(-323.000000, -99.000000) translate(232.000000, 8.000000)">
                                    <g id="Group">
                                        <path d="M66.4248058,63.6785304 C73.0141883,45.0354524 90.7940133,31.6785304 111.693514,31.6785304 C132.593016,31.6785304 150.372841,45.0354524 156.962223,63.6785304 L66.4248058,63.6785304 Z" id="Combined-Shape-Copy" fill="#B64C4C" transform="translate(111.693514, 47.678530) rotate(-45.000000) translate(-111.693514, -47.678530) "></path>
                                        <path d="M91,91 C97.5893825,72.356922 115.369207,59 136.268709,59 C157.16821,59 174.948035,72.356922 181.537417,91 L91,91 Z" id="Combined-Shape" fill="#34A362"></path>
                                        <path d="M66.4248058,63.6785304 C73.0141883,45.0354524 90.7940133,31.6785304 111.693514,31.6785304 C132.593016,31.6785304 150.372841,45.0354524 156.962223,63.6785304 L66.4248058,63.6785304 Z" id="Combined-Shape-Copy" fill="#31825C" transform="translate(111.693514, 47.678530) rotate(-45.000000) translate(-111.693514, -47.678530) "></path>
                                        <path d="M29.7312913,61.7287001 C36.3206739,43.0856222 54.1004988,29.7287001 75,29.7287001 C95.8995012,29.7287001 113.679326,43.0856222 120.268709,61.7287001 L29.7312913,61.7287001 Z" id="Combined-Shape-Copy-2" fill="#34A362" transform="translate(75.000000, 45.728700) scale(-1, 1) rotate(90.000000) translate(-75.000000, -45.728700) "></path>
                                        <path d="M2.41479605,127.703524 C9.00417858,109.060446 26.7840035,95.7035243 47.6835047,95.7035243 C68.583006,95.7035243 86.3628309,109.060446 92.9522134,127.703524 L2.41479605,127.703524 Z" id="Combined-Shape-Copy" fill="#34A362" transform="translate(47.683505, 111.703524) rotate(-45.000000) translate(-47.683505, -111.703524) "></path>
                                        <path d="M29.7312913,152.268709 C36.3206739,133.625631 54.1004988,120.268709 75,120.268709 C95.8995012,120.268709 113.679326,133.625631 120.268709,152.268709 L29.7312913,152.268709 Z" id="Combined-Shape-Copy-2" fill="#31825C" transform="translate(75.000000, 136.268709) scale(-1, 1) rotate(90.000000) translate(-75.000000, -136.268709) "></path>
                                        <path d="M0.460021973,91 C7.0494045,72.356922 24.8292294,59 45.7287306,59 C66.6282319,59 84.4080568,72.356922 90.9974393,91 L0.460021973,91 Z" id="Combined-Shape" fill="#31825C"></path>
                                    </g>
                                </g>
                                <g id="Group-13" transform="translate(3.000000, 94.000000)" fill="#34A362">
                                    <rect id="Rectangle-36" transform="translate(4.000000, 82.000000) rotate(90.000000) translate(-4.000000, -82.000000) " x="-35" y="78" width="78" height="8" rx="4"></rect>
                                    <rect id="Rectangle-36-Copy-3" transform="translate(20.000000, 76.000000) rotate(90.000000) translate(-20.000000, -76.000000) " x="-19" y="72" width="78" height="8" rx="4"></rect>
                                    <g id="Group-12" transform="translate(8.000000, 24.000000)">
                                        <path d="M-29,29 L37,29 L37,37 L-25,37 L-7,37 C-4.790861,37 -3,35.209139 -3,33 L-3,33 C-3,30.790861 -4.790861,29 -7,29 L-29,29 Z" id="Combined-Shape-Copy" transform="translate(4.000000, 33.000000) scale(-1, 1) rotate(90.000000) translate(-4.000000, -33.000000) "></path>
                                    </g>
                                    <rect id="Rectangle-36-Copy-3" transform="translate(36.000000, 52.000000) rotate(90.000000) translate(-36.000000, -52.000000) " x="-3" y="48" width="78" height="8" rx="4"></rect>
                                    <g id="Group-12" transform="translate(24.000000, 8.000000)">
                                        <path d="M-29,29 L37,29 L37,37 L-25,37 L-7,37 C-4.790861,37 -3,35.209139 -3,33 L-3,33 C-3,30.790861 -4.790861,29 -7,29 L-29,29 Z" id="Combined-Shape-Copy" transform="translate(4.000000, 33.000000) scale(-1, 1) rotate(90.000000) translate(-4.000000, -33.000000) "></path>
                                    </g>
                                    <rect id="Rectangle-36" transform="translate(52.000000, 52.000000) rotate(90.000000) translate(-52.000000, -52.000000) " x="13" y="48" width="78" height="8" rx="4"></rect>
                                    <rect id="Rectangle-36-Copy-3" transform="translate(68.000000, 60.000000) rotate(90.000000) translate(-68.000000, -60.000000) " x="29" y="56" width="78" height="8" rx="4"></rect>
                                    <g id="Group-12" transform="translate(56.000000, 1.000000)">
                                        <path d="M-29,29 L37,29 L37,37 L-25,37 L-7,37 C-4.790861,37 -3,35.209139 -3,33 L-3,33 C-3,30.790861 -4.790861,29 -7,29 L-29,29 Z" id="Combined-Shape-Copy" transform="translate(4.000000, 33.000000) scale(-1, 1) rotate(90.000000) translate(-4.000000, -33.000000) "></path>
                                    </g>
                                    <g id="Group-12" transform="translate(40.000000, 0.000000)">
                                        <path d="M-29,29 L37,29 L37,37 L-25,37 L-7,37 C-4.790861,37 -3,35.209139 -3,33 L-3,33 C-3,30.790861 -4.790861,29 -7,29 L-29,29 Z" id="Combined-Shape-Copy" transform="translate(4.000000, 33.000000) scale(-1, 1) rotate(90.000000) translate(-4.000000, -33.000000) "></path>
                                    </g>
                                    <rect id="Rectangle-36-Copy-3" transform="translate(84.000000, 52.000000) rotate(90.000000) translate(-84.000000, -52.000000) " x="45" y="48" width="78" height="8" rx="4"></rect>
                                    <g id="Group-12" transform="translate(72.000000, 8.000000)">
                                        <path d="M-29,29 L37,29 L37,37 L-25,37 L-7,37 C-4.790861,37 -3,35.209139 -3,33 L-3,33 C-3,30.790861 -4.790861,29 -7,29 L-29,29 Z" id="Combined-Shape-Copy" transform="translate(4.000000, 33.000000) scale(-1, 1) rotate(90.000000) translate(-4.000000, -33.000000) "></path>
                                    </g>
                                </g>
                                <g id="Group-13-Copy" transform="translate(347.000000, 94.000000)" fill="#34A362">
                                    <rect id="Rectangle-36" transform="translate(12.000000, 52.000000) rotate(90.000000) translate(-12.000000, -52.000000) " x="-27" y="48" width="78" height="8" rx="4"></rect>
                                    <rect id="Rectangle-36-Copy-3" transform="translate(28.000000, 60.000000) rotate(90.000000) translate(-28.000000, -60.000000) " x="-11" y="56" width="78" height="8" rx="4"></rect>
                                    <g id="Group-12" transform="translate(16.000000, 16.000000)">
                                        <path d="M-29,29 L37,29 L37,37 L-25,37 L-7,37 C-4.790861,37 -3,35.209139 -3,33 L-3,33 C-3,30.790861 -4.790861,29 -7,29 L-29,29 Z" id="Combined-Shape-Copy" transform="translate(4.000000, 33.000000) scale(-1, 1) rotate(90.000000) translate(-4.000000, -33.000000) "></path>
                                    </g>
                                    <g id="Group-12">
                                        <path d="M-29,29 L37,29 L37,37 L-25,37 L-7,37 C-4.790861,37 -3,35.209139 -3,33 L-3,33 C-3,30.790861 -4.790861,29 -7,29 L-29,29 Z" id="Combined-Shape-Copy" transform="translate(4.000000, 33.000000) scale(-1, 1) rotate(90.000000) translate(-4.000000, -33.000000) "></path>
                                    </g>
                                    <rect id="Rectangle-36-Copy-3" transform="translate(44.000000, 60.000000) rotate(90.000000) translate(-44.000000, -60.000000) " x="5" y="56" width="78" height="8" rx="4"></rect>
                                    <g id="Group-12" transform="translate(32.000000, 8.000000)">
                                        <path d="M-29,29 L37,29 L37,37 L-25,37 L-7,37 C-4.790861,37 -3,35.209139 -3,33 L-3,33 C-3,30.790861 -4.790861,29 -7,29 L-29,29 Z" id="Combined-Shape-Copy" transform="translate(4.000000, 33.000000) scale(-1, 1) rotate(90.000000) translate(-4.000000, -33.000000) "></path>
                                    </g>
                                    <rect id="Rectangle-36" transform="translate(60.000000, 52.000000) rotate(90.000000) translate(-60.000000, -52.000000) " x="21" y="48" width="78" height="8" rx="4"></rect>
                                    <rect id="Rectangle-36-Copy-3" transform="translate(76.000000, 60.000000) rotate(90.000000) translate(-76.000000, -60.000000) " x="37" y="56" width="78" height="8" rx="4"></rect>
                                    <g id="Group-12" transform="translate(64.000000, 16.000000)">
                                        <path d="M-29,29 L37,29 L37,37 L-25,37 L-7,37 C-4.790861,37 -3,35.209139 -3,33 L-3,33 C-3,30.790861 -4.790861,29 -7,29 L-29,29 Z" id="Combined-Shape-Copy" transform="translate(4.000000, 33.000000) scale(-1, 1) rotate(90.000000) translate(-4.000000, -33.000000) "></path>
                                    </g>
                                    <g id="Group-12" transform="translate(48.000000, 8.000000)">
                                        <path d="M-29,29 L37,29 L37,37 L-25,37 L-7,37 C-4.790861,37 -3,35.209139 -3,33 L-3,33 C-3,30.790861 -4.790861,29 -7,29 L-29,29 Z" id="Combined-Shape-Copy" transform="translate(4.000000, 33.000000) scale(-1, 1) rotate(90.000000) translate(-4.000000, -33.000000) "></path>
                                    </g>
                                    <rect id="Rectangle-36-Copy-3" transform="translate(92.000000, 84.000000) rotate(90.000000) translate(-92.000000, -84.000000) " x="53" y="80" width="78" height="8" rx="4"></rect>
                                    <g id="Group-12" transform="translate(80.000000, 24.000000)">
                                        <path d="M-29,29 L37,29 L37,37 L-25,37 L-7,37 C-4.790861,37 -3,35.209139 -3,33 L-3,33 C-3,30.790861 -4.790861,29 -7,29 L-29,29 Z" id="Combined-Shape-Copy" transform="translate(4.000000, 33.000000) scale(-1, 1) rotate(90.000000) translate(-4.000000, -33.000000) "></path>
                                    </g>
                                </g>
                                <g id="Group-17" transform="translate(339.000000, 106.000000)">
                                    <circle id="Oval-28" fill="#F15F55" cx="12" cy="12" r="12"></circle>
                                    <circle id="Oval-28" fill="#FF8A62" cx="12" cy="12" r="4"></circle>
                                </g>
                                <g id="Group-17" transform="translate(73.000000, 26.000000)">
                                    <circle id="Oval-28" fill="#F15F55" cx="12" cy="12" r="12"></circle>
                                    <circle id="Oval-28" fill="#FF8A62" cx="12" cy="12" r="4"></circle>
                                </g>
                                <circle id="Oval-28" fill="#F15F55" cx="359" cy="134" r="4"></circle>
                                <circle id="Oval-28" fill="#F15F55" cx="439" cy="127" r="4"></circle>
                                <circle id="Oval-28" fill="#34A362" cx="423" cy="103" r="4"></circle>
                                <circle id="Oval-28-Copy-2" fill="#48A8EF" cx="375" cy="127" r="4"></circle>
                                <circle id="Oval-28-Copy-2" fill="#FFFFFF" cx="391" cy="135" r="4"></circle>
                                <circle id="Oval-28-Copy-2" fill="#FFC552" cx="383" cy="87" r="4"></circle>
                                <circle id="Oval-28-Copy" fill="#F15F55" cx="55" cy="95" r="4"></circle>
                                <circle id="Oval-28-Copy" fill="#FFC552" cx="71" cy="103" r="4"></circle>
                                <circle id="Oval-28-Copy" fill="#48A8EF" cx="79" cy="87" r="4"></circle>
                                <circle id="Oval-28-Copy" fill="#F15F55" cx="71" cy="55" r="4"></circle>
                                <circle id="Oval-28-Copy" fill="#F15F55" cx="7" cy="127" r="4"></circle>
                                <circle id="Oval-28-Copy" fill="#FFC552" cx="23" cy="103" r="4"></circle>
                                <circle id="Oval-28-Copy" fill="#FFFFFF" cx="39" cy="119" r="4"></circle>
                            </g>
                            <g id="Group-15" transform="translate(27.000000, 0.000000)">
                                <g id="Group-14-Copy">
                                    <g id="Group-13-Copy-2" transform="translate(224.000000, 115.000000)" fill="#34A362">
                                        <rect id="Rectangle-36" transform="translate(12.000000, 52.000000) rotate(90.000000) translate(-12.000000, -52.000000) " x="-27" y="48" width="78" height="8" rx="4"></rect>
                                        <rect id="Rectangle-36-Copy-3" transform="translate(28.000000, 60.000000) rotate(90.000000) translate(-28.000000, -60.000000) " x="-11" y="56" width="78" height="8" rx="4"></rect>
                                        <g id="Group-12" transform="translate(16.000000, 16.000000)">
                                            <path d="M-29,29 L37,29 L37,37 L-25,37 L-7,37 C-4.790861,37 -3,35.209139 -3,33 L-3,33 C-3,30.790861 -4.790861,29 -7,29 L-29,29 Z" id="Combined-Shape-Copy" transform="translate(4.000000, 33.000000) scale(-1, 1) rotate(90.000000) translate(-4.000000, -33.000000) "></path>
                                        </g>
                                        <g id="Group-12">
                                            <path d="M-29,29 L37,29 L37,37 L-25,37 L-7,37 C-4.790861,37 -3,35.209139 -3,33 L-3,33 C-3,30.790861 -4.790861,29 -7,29 L-29,29 Z" id="Combined-Shape-Copy" transform="translate(4.000000, 33.000000) scale(-1, 1) rotate(90.000000) translate(-4.000000, -33.000000) "></path>
                                        </g>
                                        <rect id="Rectangle-36-Copy-3" transform="translate(44.000000, 52.000000) rotate(90.000000) translate(-44.000000, -52.000000) " x="5" y="48" width="78" height="8" rx="4"></rect>
                                        <g id="Group-12" transform="translate(32.000000, 8.000000)">
                                            <path d="M-29,29 L37,29 L37,37 L-25,37 L-7,37 C-4.790861,37 -3,35.209139 -3,33 L-3,33 C-3,30.790861 -4.790861,29 -7,29 L-29,29 Z" id="Combined-Shape-Copy" transform="translate(4.000000, 33.000000) scale(-1, 1) rotate(90.000000) translate(-4.000000, -33.000000) "></path>
                                        </g>
                                        <rect id="Rectangle-36" transform="translate(60.000000, 52.000000) rotate(90.000000) translate(-60.000000, -52.000000) " x="21" y="48" width="78" height="8" rx="4"></rect>
                                        <rect id="Rectangle-36-Copy-3" transform="translate(76.000000, 60.000000) rotate(90.000000) translate(-76.000000, -60.000000) " x="37" y="56" width="78" height="8" rx="4"></rect>
                                        <g id="Group-12" transform="translate(64.000000, 16.000000)">
                                            <path d="M-29,29 L37,29 L37,37 L-25,37 L-7,37 C-4.790861,37 -3,35.209139 -3,33 L-3,33 C-3,30.790861 -4.790861,29 -7,29 L-29,29 Z" id="Combined-Shape-Copy" transform="translate(4.000000, 33.000000) scale(-1, 1) rotate(90.000000) translate(-4.000000, -33.000000) "></path>
                                        </g>
                                        <g id="Group-12" transform="translate(48.000000, 0.000000)">
                                            <path d="M-29,29 L37,29 L37,37 L-25,37 L-7,37 C-4.790861,37 -3,35.209139 -3,33 L-3,33 C-3,30.790861 -4.790861,29 -7,29 L-29,29 Z" id="Combined-Shape-Copy" transform="translate(4.000000, 33.000000) scale(-1, 1) rotate(90.000000) translate(-4.000000, -33.000000) "></path>
                                        </g>
                                        <rect id="Rectangle-36-Copy-3" transform="translate(92.000000, 52.000000) rotate(90.000000) translate(-92.000000, -52.000000) " x="53" y="48" width="78" height="8" rx="4"></rect>
                                        <g id="Group-12" transform="translate(80.000000, 8.000000)">
                                            <path d="M-29,29 L37,29 L37,37 L-25,37 L-7,37 C-4.790861,37 -3,35.209139 -3,33 L-3,33 C-3,30.790861 -4.790861,29 -7,29 L-29,29 Z" id="Combined-Shape-Copy" transform="translate(4.000000, 33.000000) scale(-1, 1) rotate(90.000000) translate(-4.000000, -33.000000) "></path>
                                        </g>
                                    </g>
                                    <path d="M68,84 L192,84 L192,168 L64,168 L64,88 L64,88 C64,85.790861 65.790861,84 68,84 Z" id="Rectangle-42-Copy-2" fill="#8C5A46"></path>
                                    <g id="Group-11" transform="translate(64.000000, 0.000000)">
                                        <path d="M4,88 L124,88 L124,88 C126.209139,88 128,89.790861 128,92 L128,164 L128,164 C128,166.209139 126.209139,168 124,168 L0,168 L0,92 L0,92 C-2.705415e-16,89.790861 1.790861,88 4,88 Z" id="Rectangle-39" fill="#844840"></path>
                                        <path d="M128,84 L252,84 L252,84 C254.209139,84 256,85.790861 256,88 L256,164 L256,164 C256,166.209139 254.209139,168 252,168 L128,168 L128,84 Z" id="Rectangle-42-Copy" fill="#F3F9FC"></path>
                                        <path d="M132,88 L252,88 L252,88 C254.209139,88 256,89.790861 256,92 L256,164 L256,164 C256,166.209139 254.209139,168 252,168 L132,168 L132,168 C129.790861,168 128,166.209139 128,164 L128,92 L128,92 C128,89.790861 129.790861,88 132,88 Z" id="Rectangle-39-Copy" fill="#FFE2A8"></path>
                                        <rect id="Rectangle" fill="#A1674F" x="16" y="104" width="96" height="48"></rect>
                                        <rect id="Rectangle-Copy" fill="#F09F2E" x="144" y="104" width="96" height="48"></rect>
                                        <path d="M176,8 L144.991946,7.99999795 C154.177944,2.90269578 164.749991,0 176,0 C211.346224,0 240,28.653776 240,64 L232,64 C232,33.072054 206.927946,8 176,8 Z" id="Combined-Shape" fill="#FFBA00"></path>
                                        <g id="Group" transform="translate(96.000000, 8.000000)">
                                            <mask id="mask-5" fill="white">
                                                <use xlink:href="#path-4"></use>
                                            </mask>
                                            <use id="Combined-Shape" fill="#FFC552" xlink:href="#path-4"></use>
                                            <rect id="Rectangle-43-Copy-5" fill="#F09F2E" mask="url(#mask-5)" x="24" y="40" width="120" height="4"></rect>
                                            <rect id="Rectangle-43-Copy-5" fill="#F09F2E" mask="url(#mask-5)" x="24" y="24" width="120" height="4"></rect>
                                            <rect id="Rectangle-43-Copy-4" fill="#FFC552" mask="url(#mask-5)" x="24" y="12" width="120" height="12"></rect>
                                            <rect id="Rectangle-43-Copy-5" fill="#F09F2E" mask="url(#mask-5)" x="24" y="8" width="120" height="4"></rect>
                                            <rect id="Rectangle-43-Copy-4" fill="#FFC552" mask="url(#mask-5)" x="0" y="-4" width="120" height="4"></rect>
                                            <rect id="Rectangle-43-Copy-5" fill="#D37739" mask="url(#mask-5)" x="0" y="-8" width="120" height="4"></rect>
                                        </g>
                                        <path d="M0,76 L128,76 L128,84 L4,84 L4,84 C1.790861,84 2.705415e-16,82.209139 0,80 L0,76 Z" id="Rectangle-42" fill="#2F3242"></path>
                                        <path d="M1.13686838e-13,64 C1.13686838e-13,28.653776 28.653776,0 64,0 C99.346224,0 128,28.653776 128,64 L128,76 L128,76 C128,78.209139 126.209139,80 124,80 L4,80 L4,80 C1.790861,80 1.93005259e-13,78.209139 1.92734717e-13,76 L1.13686838e-13,64 Z" id="Combined-Shape" fill="#844840"></path>
                                        <g id="Group-2" transform="translate(16.000000, 16.000000)">
                                            <mask id="mask-7" fill="white">
                                                <use xlink:href="#path-6"></use>
                                            </mask>
                                            <use id="Combined-Shape" fill="#A1674F" xlink:href="#path-6"></use>
                                            <rect id="Rectangle-43-Copy-5" fill="#8C5A46" mask="url(#mask-7)" x="0" y="0" width="96" height="4"></rect>
                                            <rect id="Rectangle-43-Copy-5" fill="#8C5A46" mask="url(#mask-7)" x="0" y="16" width="96" height="4"></rect>
                                            <rect id="Rectangle-43-Copy-5" fill="#8C5A46" mask="url(#mask-7)" x="0" y="32" width="96" height="4"></rect>
                                        </g>
                                        <path d="M128,76 L256,76 L256,80 L256,80 C256,82.209139 254.209139,84 252,84 L128,84 L128,76 Z" id="Rectangle-42-Copy" fill="#3E3C5C"></path>
                                        <g id="Group-3" transform="translate(64.000000, 0.000000)">
                                            <mask id="mask-9" fill="white">
                                                <use xlink:href="#path-8"></use>
                                            </mask>
                                            <use id="Combined-Shape" fill="#FFE2A8" xlink:href="#path-8"></use>
                                        </g>
                                        <path d="M68,16.1642951 C66.6810665,16.0554853 65.3470129,16 64,16 C37.490332,16 16,37.490332 16,64 L24,64 C24,38.8373449 43.3618779,18.1968987 68,16.1642951 L68,16.1642951 Z" id="Combined-Shape" fill="#2F3242"></path>
                                        <polygon id="Rectangle-40" fill="#2F3242" points="16 104 24 112 24 152 16 152"></polygon>
                                        <polygon id="Rectangle-40" fill="#2F3242" points="16 104 24 104 24 112"></polygon>
                                        <rect id="Rectangle-40-Copy" fill="#A1674F" x="232" y="104" width="8" height="48"></rect>
                                        <polygon id="Rectangle-40-Copy-2" fill="#3E3C5C" transform="translate(236.000000, 108.000000) scale(-1, 1) translate(-236.000000, -108.000000) " points="232 104 240 104 240 112"></polygon>
                                        <path d="M176,8 L144.991946,7.99999795 C154.177944,2.90269578 164.749991,0 176,0 C211.346224,0 240,28.653776 240,64 L232,64 C232,33.072054 206.927946,8 176,8 Z" id="Combined-Shape" fill="#A1674F"></path>
                                        <rect id="Rectangle-43-Copy" fill="#D37739" x="144" y="104" width="88" height="8"></rect>
                                        <rect id="Rectangle-43-Copy-3" fill="#D37739" x="144" y="124" width="88" height="4"></rect>
                                        <rect id="Rectangle-43-Copy-5" fill="#D37739" x="144" y="140" width="88" height="4"></rect>
                                        <rect id="Rectangle-43-Copy" fill="#844840" x="24" y="104" width="88" height="8"></rect>
                                        <rect id="Rectangle-43-Copy-3" fill="#8C5A46" x="24" y="124" width="88" height="4"></rect>
                                        <rect id="Rectangle-43-Copy-5" fill="#8C5A46" x="24" y="140" width="88" height="4"></rect>
                                        <g id="Group-10" transform="translate(176.000000, 76.000000)">
                                            <g id="Group-7" transform="translate(0.000000, 4.000000)">
                                                <g id="Group-4">
                                                    <g id="Group-6" transform="translate(0.000000, 24.000000)">
                                                        <mask id="mask-11" fill="white">
                                                            <use xlink:href="#path-10"></use>
                                                        </mask>
                                                        <use id="Combined-Shape" fill="#8C5A46" xlink:href="#path-10"></use>
                                                        <rect id="Rectangle-5" fill="#8C5A46" mask="url(#mask-11)" x="2" y="24" width="33" height="8"></rect>
                                                    </g>
                                                    <path d="M8,16 L32,16 L32,16 C36.418278,16 40,19.581722 40,24 L40,24 L0,24 L0,24 L0,24 C-5.41083001e-16,19.581722 3.581722,16 8,16 Z" id="Rectangle-41" fill="#8C5A46"></path>
                                                    <g id="Group-5" transform="translate(8.000000, 0.000000)">
                                                        <path d="M5.62900421e-14,24 L40,24 C40,25.7612764 40,27.0946098 40,28 C40,43.463973 31.045695,56 20,56 C8.954305,56 2.84217094e-14,43.463973 2.84217094e-14,28 C2.84217094e-14,27.0946098 3.77111536e-14,25.7612764 5.62900421e-14,24 Z M8,16 L32,16 C36.418278,16 40,19.581722 40,24 L40,24 L0,24 L0,24 C-5.41083001e-16,19.581722 3.581722,16 8,16 L8,16 Z" id="Combined-Shape" fill="#FFC552"></path>
                                                        <mask id="mask-13" fill="white">
                                                            <use xlink:href="#path-12"></use>
                                                        </mask>
                                                        <use id="Combined-Shape" fill="#A1674F" xlink:href="#path-12"></use>
                                                        <rect id="Rectangle-3" fill="#844840" mask="url(#mask-13)" x="16" y="2" width="24" height="10"></rect>
                                                    </g>
                                                    <path d="M40,16 L44,16 C44,7.163444 36.836556,0 28,0 C19.163444,0 12,7.163444 12,16 L16,16 C16,9.372583 21.372583,4 28,4 C34.627417,4 40,9.372583 40,16 Z" id="Combined-Shape" fill="#FFC552"></path>
                                                </g>
                                                <path d="M24.9049064,35.1411228 C23.1640737,34.0908423 22,32.1813632 22,30 C22,26.6862915 24.6862915,24 28,24 C31.3137085,24 34,26.6862915 34,30 C34,32.1813632 32.8359263,34.0908423 31.0950936,35.1411228 L32,46 L24,46 L24.9049064,35.1411228 Z" id="Combined-Shape" fill="#A1674F"></path>
                                                <path d="M26,24.3414114 C23.6696153,25.1650842 22,27.3875623 22,30 C22,32.1813632 23.1640737,34.0908423 24.9049064,35.1411228 L24,46 L26,46 L28,46 L27.0950936,35.1411228 C28.8359263,34.0908423 30,32.1813632 30,30 C30,27.3875623 28.3303847,25.1650842 26,24.3414114 Z" id="Combined-Shape" fill="#3E3C5C"></path>
                                            </g>
                                            <g id="Group-9" transform="translate(16.000000, 0.000000)">
                                                <g id="Group-8" transform="translate(6.000000, 0.000000)">
                                                    <mask id="mask-15" fill="white">
                                                        <use xlink:href="#path-14"></use>
                                                    </mask>
                                                    <use id="Combined-Shape" fill="#B6D8F0" xlink:href="#path-14"></use>
                                                    <rect id="Rectangle-6" fill="#FFFFFF" mask="url(#mask-15)" x="-3" y="0" width="20" height="4"></rect>
                                                    <rect id="Rectangle-6" fill="#3E3C5C" mask="url(#mask-15)" x="-3" y="12" width="20" height="4"></rect>
                                                </g>
                                                <path d="M3,12 C1.84399414,13.4348958 1.0863444,14.7682292 0.727050781,16 L8,16 C10.209139,16 12,14.209139 12,12 L12,4 C12,1.790861 10.209139,0 8,0 L0,0 L0,4 L7,4 C7.55228475,4 8,4.44771525 8,5 L8,11 C8,11.5522847 7.55228475,12 7,12 L3,12 Z" id="Combined-Shape" fill="#3E3C5C"></path>
                                            </g>
                                        </g>
                                    </g>
                                    <path d="M32,160 C22.8343341,165.054778 11.8318361,168 0,168 L128,168 C116.168164,168 105.165666,165.054778 96,160 C86.8343341,154.945222 75.8318361,152 64,152 C52.1681639,152 41.1656659,154.945222 32,160 Z" id="Combined-Shape" fill="#FFE2A8"></path>
                                </g>
                            </g>
                        </g>
                    </g>
                </g>
            </g>
        </g>
    </g>
</svg>