<?xml version="1.0" encoding="UTF-8" standalone="no"?>
<svg width="787px" height="102px" viewBox="0 0 787 102" version="1.1" xmlns="http://www.w3.org/2000/svg" xmlns:xlink="http://www.w3.org/1999/xlink">
    <!-- Generator: Sketch 47.1 (45422) - http://www.bohemiancoding.com/sketch -->
    <title>dario-flaccovio-editore-logo</title>
    <desc>Created with Sketch.</desc>
    <defs>
        <polygon id="path-1" points="104.928484 101.94 0 101.94 0 0.12 52.4642421 0.12 104.928484 0.12"></polygon>
    </defs>
    <g id="Page-1" stroke="none" stroke-width="1" fill="none" fill-rule="evenodd">
        <g id="dario-flaccovio-editore-logo">
            <g id="Group-3">
                <g id="Fill-1-Clipped">
                    <mask id="mask-2" fill="white">
                        <use xlink:href="#path-1"></use>
                    </mask>
                    <g id="path-1"></g>
                    <path d="M52.179,101.513 C52.179,101.513 53.401,101.439 55.692,101.299 C56.263,101.249 56.907,101.259 57.603,101.149 C58.299,101.035 59.058,100.911 59.879,100.777 C60.697,100.635 61.585,100.523 62.508,100.291 C63.423,100.029 64.395,99.75 65.422,99.456 C69.48,98.203 74.33,96.169 79.045,92.629 C83.784,89.165 88.461,84.373 92.169,78.323 C93.917,75.243 95.668,71.995 96.852,68.387 C97.156,67.49 97.463,66.587 97.771,65.675 C98,64.741 98.23,63.799 98.463,62.85 C98.58,62.377 98.697,61.901 98.815,61.424 C98.928,60.947 98.959,60.472 99.037,59.994 C99.175,59.041 99.312,58.08 99.452,57.113 C99.547,56.65 99.546,56.1 99.57,55.57 C99.592,55.039 99.613,54.505 99.635,53.969 C99.656,53.434 99.678,52.897 99.699,52.358 L99.731,51.548 C99.734,51.398 99.732,51.64 99.729,51.58 L99.724,51.484 L99.711,51.292 L99.686,50.906 C99.545,48.854 99.582,46.758 99.166,44.687 C98.675,40.495 97.319,36.373 95.7,32.316 C95.238,31.322 94.773,30.324 94.307,29.323 C93.831,28.326 93.203,27.404 92.656,26.433 L91.807,24.988 C91.491,24.527 91.15,24.081 90.823,23.625 C90.147,22.728 89.528,21.778 88.804,20.91 C85.928,17.403 82.48,14.327 78.714,11.624 C77.733,11.003 76.751,10.381 75.767,9.758 C75.519,9.605 75.279,9.438 75.025,9.295 L74.244,8.902 L72.68,8.108 L71.117,7.299 C70.588,7.045 70.031,6.857 69.488,6.632 C68.39,6.215 67.31,5.726 66.189,5.359 L62.782,4.358 L61.926,4.108 L61.066,3.947 L59.341,3.621 L57.609,3.29 C57.04,3.159 56.395,3.165 55.791,3.096 L52.179,2.788 C47.387,2.762 42.563,3.233 37.902,4.482 C33.294,5.865 28.856,7.819 24.861,10.448 C23.862,11.098 22.932,11.849 21.98,12.559 C21.514,12.927 21.02,13.259 20.578,13.653 L19.273,14.858 L17.971,16.059 L17.322,16.658 C17.117,16.869 16.927,17.094 16.729,17.312 C15.958,18.197 15.189,19.081 14.422,19.962 C13.683,20.863 13.052,21.847 12.366,22.777 C12.033,23.251 11.685,23.712 11.372,24.195 L10.526,25.702 C9.984,26.713 9.361,27.674 8.891,28.709 C8.437,29.75 7.985,30.786 7.535,31.818 L7.199,32.589 L6.431,34.983 C6.108,36.047 5.698,37.076 5.516,38.166 C5.285,39.238 5.055,40.305 4.827,41.367 C4.61,42.426 4.57,43.482 4.418,44.522 C4.067,46.539 4.153,48.816 4.076,50.97 L4.056,51.58 L4.053,51.681 C4.05,51.738 4.061,51.552 4.06,51.677 L4.226,53.998 C4.323,55.021 4.312,56.046 4.493,57.045 C5.548,65.089 8.405,72.327 12.09,78.389 C15.864,84.412 20.549,89.192 25.286,92.668 C26.505,93.484 27.674,94.308 28.835,95.054 C30.054,95.704 31.228,96.331 32.357,96.934 C32.912,97.262 33.507,97.465 34.072,97.708 C34.641,97.943 35.198,98.172 35.742,98.397 C36.29,98.614 36.826,98.826 37.348,99.033 C37.888,99.189 38.413,99.34 38.926,99.488 C39.954,99.781 40.927,100.058 41.843,100.319 C42.766,100.548 43.65,100.66 44.467,100.804 C45.285,100.94 46.043,101.066 46.737,101.181 C47.432,101.294 48.084,101.28 48.658,101.325 C50.962,101.448 52.191,101.514 52.191,101.514 L52.179,101.513 Z M52.166,102 C52.166,102 50.937,101.941 48.632,101.832 C48.056,101.788 47.412,101.806 46.704,101.714 C45.997,101.615 45.224,101.507 44.389,101.391 C43.558,101.256 42.647,101.184 41.699,101.002 C40.757,100.786 39.756,100.555 38.699,100.312 C38.169,100.188 37.625,100.06 37.068,99.93 C36.526,99.747 35.97,99.559 35.401,99.367 C34.828,99.183 34.241,98.995 33.642,98.802 C33.045,98.601 32.416,98.439 31.824,98.151 C30.614,97.627 29.354,97.082 28.048,96.516 C26.78,95.87 25.492,95.141 24.14,94.414 C18.887,91.298 13.34,86.809 8.875,80.541 C4.402,74.313 1.201,66.301 0.247,57.524 C0.097,56.431 0.141,55.315 0.08,54.202 C0.062,53.645 0.045,53.086 0.027,52.525 L0.001,51.683 C-0.001,51.74 -1.35525272e-20,51.487 0.003,51.476 L0.011,51.375 L0.024,51.172 L0.053,50.767 C0.248,48.591 0.299,46.455 0.815,44.101 C1.534,39.443 3.164,35.066 5.165,30.766 C5.716,29.72 6.269,28.669 6.825,27.614 C7.388,26.566 8.104,25.6 8.739,24.587 L9.721,23.084 L10.829,21.663 C11.583,20.727 12.283,19.741 13.087,18.841 C16.299,15.223 19.988,12 24.039,9.211 C25.086,8.567 26.136,7.922 27.187,7.275 C27.451,7.117 27.709,6.945 27.98,6.797 L28.812,6.39 L30.478,5.57 L32.142,4.736 C32.705,4.474 33.296,4.279 33.873,4.047 C35.039,3.617 36.186,3.117 37.376,2.743 C42.128,1.178 47.128,0.377 52.179,0.12 L55.939,0.185 C56.56,0.214 57.155,0.165 57.799,0.258 L59.713,0.482 L61.633,0.712 L62.595,0.83 L63.524,1.033 L67.246,1.865 C72.125,3.283 76.836,5.306 81.099,8.036 C85.308,10.83 89.141,14.132 92.4,17.893 C93.219,18.827 93.931,19.845 94.695,20.816 C95.067,21.309 95.453,21.793 95.812,22.292 L96.792,23.856 C97.424,24.909 98.134,25.915 98.69,27 C99.233,28.094 99.775,29.183 100.314,30.268 C102.269,34.691 103.745,39.293 104.314,43.935 C104.766,46.235 104.767,48.554 104.898,50.831 L104.915,51.257 L104.924,51.471 L104.928,51.577 C104.931,51.585 104.919,51.895 104.921,51.812 L104.871,52.62 C104.839,53.158 104.806,53.695 104.773,54.23 C104.741,54.765 104.709,55.298 104.677,55.829 C104.64,56.363 104.633,56.877 104.521,57.455 C104.342,58.579 104.163,59.695 103.986,60.803 C103.887,61.352 103.826,61.917 103.692,62.445 C103.553,62.971 103.414,63.494 103.274,64.015 C102.995,65.057 102.718,66.09 102.442,67.115 C102.1,68.119 101.687,69.09 101.316,70.065 C100.635,72.04 99.615,73.828 98.72,75.622 C98.305,76.537 97.715,77.346 97.182,78.172 C96.642,78.992 96.108,79.803 95.58,80.607 C91.05,86.848 85.494,91.325 80.242,94.453 C78.888,95.18 77.599,95.909 76.329,96.554 C75.021,97.12 73.761,97.665 72.549,98.188 C71.957,98.475 71.327,98.637 70.729,98.838 C70.129,99.031 69.542,99.219 68.968,99.403 C68.398,99.594 67.842,99.781 67.299,99.963 C66.741,100.094 66.197,100.22 65.667,100.344 C64.609,100.586 63.607,100.815 62.664,101.031 C61.716,101.21 60.808,101.28 59.978,101.418 C59.145,101.536 58.374,101.646 57.668,101.746 C56.962,101.842 56.309,101.82 55.731,101.858 C53.414,101.951 52.179,102.001 52.179,102.001 L52.166,102 L52.166,102 Z" id="Fill-1" fill="#9E9DAD" fill-rule="nonzero" mask="url(#mask-2)"></path>
                </g>
            </g>
            <path d="M39.331,71.214 C38.481,71.924 36.879,72.504 35.771,72.504 L29.834,72.504 C28.726,72.504 27.82,71.598 27.82,70.49 L27.82,31.193 C27.82,30.086 28.726,29.179 29.834,29.179 L34.117,29.179 C35.225,29.179 36.514,30.001 36.982,31.005 L50.273,59.542 C50.741,60.546 50.428,61.949 49.577,62.659 L39.331,71.214 Z M42.233,19.31 C41.77,18.303 40.548,17.81 39.516,18.213 L19.917,25.877 C18.886,26.28 18.041,27.516 18.041,28.624 L18.041,68.213 C18.041,69.321 18.433,71.045 18.912,72.044 L22.687,79.914 C23.166,80.912 24.465,81.729 25.573,81.729 L39.758,81.729 C40.866,81.729 42.462,81.142 43.305,80.423 L61.192,65.174 C62.035,64.456 62.346,63.045 61.883,62.038 L42.233,19.31 L42.233,19.31 Z" id="Fill-4" fill="#9E9DAD" fill-rule="nonzero"></path>
            <path d="M76.727,37.548 C77.836,37.548 78.053,38.137 77.212,38.857 L69.578,45.386 C68.737,46.107 68.423,47.521 68.882,48.529 L81.484,76.251 C81.943,77.259 81.482,78.434 80.46,78.862 L75.468,80.952 C74.445,81.379 73.23,80.906 72.766,79.9 L44.837,19.309 C44.374,18.303 44.901,17.48 46.008,17.48 L79.453,17.48 C80.561,17.48 80.626,17.816 79.598,18.227 L60.585,25.827 C59.556,26.238 59.092,27.398 59.553,28.406 L62.9,35.716 C63.361,36.724 64.645,37.548 65.752,37.548 L76.727,37.548" id="Fill-5" fill="#9E9DAD" fill-rule="nonzero"></path>
            <path d="M159.954,68.79 L159.954,72.526 C159.954,73.732 159.964,74.831 159.985,75.828 C160.006,76.824 160.016,77.468 160.016,77.758 C160.639,77.8 161.387,77.842 162.259,77.883 C163.131,77.925 164.21,77.945 165.497,77.945 C170.189,77.945 173.905,76.347 176.646,73.15 C179.387,69.953 180.757,65.115 180.757,58.638 C180.757,56.064 180.414,53.759 179.729,51.724 C179.044,49.69 178.079,47.956 176.833,46.524 C175.587,45.091 174.093,43.991 172.348,43.223 C170.604,42.455 168.652,42.07 166.494,42.07 C164.999,42.07 163.784,42.102 162.85,42.164 C161.916,42.226 160.972,42.299 160.016,42.381 C160.016,42.673 160.006,43.316 159.985,44.313 C159.964,45.309 159.954,46.43 159.954,47.676 L159.954,68.79 Z M150.611,46.586 C150.528,43.908 150.403,41.22 150.238,38.52 C150.943,38.604 151.712,38.676 152.543,38.738 C153.373,38.8 154.306,38.832 155.346,38.832 C156.716,38.832 158.251,38.78 159.954,38.676 C161.656,38.573 163.878,38.52 166.618,38.52 C170.189,38.52 173.438,38.842 176.366,39.485 C179.293,40.13 181.815,41.22 183.933,42.755 C186.051,44.292 187.69,46.358 188.853,48.953 C190.015,51.548 190.598,54.818 190.598,58.762 C190.598,62.209 190.026,65.323 188.885,68.105 C187.742,70.887 186.185,73.264 184.214,75.236 C182.241,77.209 179.957,78.714 177.362,79.751 C174.766,80.79 171.995,81.308 169.048,81.308 C165.933,81.308 163.275,81.287 161.075,81.246 C158.874,81.204 156.965,81.184 155.346,81.184 C154.306,81.184 153.373,81.184 152.543,81.184 C151.712,81.184 150.943,81.225 150.238,81.308 C150.403,78.734 150.528,76.108 150.611,73.43 C150.694,70.752 150.736,67.69 150.736,64.243 L150.736,55.773 C150.736,52.327 150.694,49.264 150.611,46.586 L150.611,46.586 Z" id="Fill-6" fill="#9E9DAD" fill-rule="nonzero"></path>
            <path d="M212.054,67.762 C212.074,66.828 212.085,66.008 212.085,65.302 C211.213,65.8 210.288,66.205 209.313,66.516 C208.337,66.828 207.445,67.223 206.636,67.7 C205.826,68.177 205.161,68.832 204.642,69.662 C204.123,70.493 203.864,71.696 203.864,73.274 C203.864,74.811 204.184,75.983 204.829,76.793 C205.473,77.603 206.334,78.007 207.414,78.007 C208.784,78.007 209.894,77.489 210.746,76.45 C211.597,75.413 212.022,73.877 212.022,71.841 C212.022,70.057 212.032,68.696 212.054,67.762 Z M202.898,51.662 C204.912,50.915 206.916,50.541 208.908,50.541 C210.569,50.541 212.095,50.728 213.486,51.101 C214.877,51.475 216.081,52.066 217.098,52.877 C218.116,53.686 218.905,54.735 219.466,56.022 C220.026,57.309 220.306,58.866 220.306,60.693 C220.306,63.351 220.275,65.811 220.213,68.073 C220.15,70.337 220.119,72.589 220.119,74.831 C220.119,75.828 220.191,76.606 220.338,77.167 C220.482,77.727 220.7,78.153 220.991,78.443 C221.281,78.734 221.666,78.921 222.143,79.004 C222.621,79.087 223.172,79.128 223.794,79.128 L223.794,80.623 C222.59,81.122 221.572,81.495 220.742,81.744 C219.911,81.994 219.018,82.118 218.064,82.118 C216.527,82.118 215.282,81.744 214.327,80.997 C213.372,80.25 212.645,79.171 212.147,77.758 C211.191,79.087 210.081,80.147 208.815,80.935 C207.548,81.723 205.96,82.118 204.051,82.118 C202.473,82.118 201.123,81.91 200.002,81.495 C198.881,81.081 197.957,80.489 197.23,79.72 C196.504,78.952 195.974,78.081 195.642,77.104 C195.309,76.129 195.144,75.143 195.144,74.146 C195.144,72.775 195.362,71.592 195.798,70.596 C196.234,69.599 196.857,68.749 197.667,68.042 C198.476,67.337 199.441,66.745 200.562,66.267 C201.683,65.79 202.95,65.385 204.362,65.053 C206.105,64.638 207.485,64.274 208.504,63.962 C209.52,63.651 210.278,63.34 210.777,63.028 C211.275,62.717 211.597,62.375 211.742,62.001 C211.888,61.627 211.961,61.171 211.961,60.63 C211.961,59.136 211.431,57.859 210.372,56.8 C209.313,55.741 207.849,55.212 205.981,55.212 C205.274,55.212 204.549,55.305 203.802,55.492 C203.054,55.679 202.338,55.939 201.652,56.271 C200.968,56.604 200.345,56.966 199.784,57.361 C199.223,57.756 198.798,58.181 198.508,58.638 L198.071,58.638 L197.262,54.9 C199.006,53.489 200.884,52.409 202.898,51.662 L202.898,51.662 Z" id="Fill-7" fill="#9E9DAD" fill-rule="nonzero"></path>
            <path d="M236.998,59.073 C238.077,56.209 239.386,54.102 240.922,52.752 C242.458,51.403 244.285,50.728 246.402,50.728 C246.61,50.728 246.786,50.738 246.932,50.759 C247.077,50.78 247.233,50.79 247.399,50.79 C247.274,51.413 247.181,52.077 247.119,52.783 C247.056,53.489 247.025,54.319 247.025,55.275 L247.025,57.267 C247.025,57.6 247.025,57.952 247.025,58.326 C247.025,58.7 247.046,59.053 247.088,59.385 L246.527,59.883 C246.112,59.634 245.644,59.427 245.126,59.26 C244.606,59.095 244.014,59.011 243.351,59.011 C241.482,59.011 240.008,59.624 238.929,60.849 C237.848,62.074 237.309,63.517 237.309,65.177 L237.309,67.669 C237.309,70.202 237.341,72.589 237.403,74.831 C237.465,77.073 237.599,79.233 237.807,81.308 C237.268,81.225 236.598,81.184 235.795,81.184 C234.99,81.184 234.113,81.184 233.166,81.184 C232.218,81.184 231.351,81.184 230.568,81.184 C229.785,81.184 229.104,81.225 228.527,81.308 C228.709,79.233 228.827,77.073 228.882,74.831 C228.936,72.589 228.964,70.202 228.964,67.669 L228.964,65.177 C228.964,62.645 228.936,60.268 228.882,58.046 C228.827,55.825 228.709,53.592 228.527,51.35 C229.228,51.434 229.938,51.506 230.66,51.568 C231.381,51.631 232.093,51.662 232.793,51.662 C233.494,51.662 234.204,51.631 234.927,51.568 C235.647,51.506 236.359,51.434 237.06,51.35 L236.874,58.949 L236.998,59.073" id="Fill-8" fill="#9E9DAD" fill-rule="nonzero"></path>
            <path d="M253.409,58.046 C253.347,55.825 253.212,53.592 253.004,51.35 C253.585,51.434 254.27,51.506 255.059,51.568 C255.848,51.631 256.72,51.662 257.676,51.662 C259.627,51.662 261.183,51.559 262.347,51.35 C262.139,53.592 262.004,55.825 261.941,58.046 C261.88,60.268 261.848,62.645 261.848,65.177 L261.848,67.669 C261.848,70.202 261.88,72.589 261.941,74.831 C262.004,77.073 262.139,79.233 262.347,81.308 C261.806,81.225 261.132,81.184 260.322,81.184 C259.513,81.184 258.63,81.184 257.676,81.184 C256.72,81.184 255.848,81.184 255.059,81.184 C254.27,81.184 253.585,81.225 253.004,81.308 C253.212,79.233 253.347,77.073 253.409,74.831 C253.472,72.589 253.503,70.202 253.503,67.669 L253.503,65.177 C253.503,62.645 253.472,60.268 253.409,58.046 Z M254.187,36.091 C255.142,35.136 256.306,34.659 257.676,34.659 C259.046,34.659 260.208,35.136 261.163,36.091 C262.118,37.047 262.596,38.209 262.596,39.579 C262.596,40.949 262.118,42.112 261.163,43.067 C260.208,44.023 259.046,44.499 257.676,44.499 C256.306,44.499 255.142,44.023 254.187,43.067 C253.232,42.112 252.755,40.949 252.755,39.579 C252.755,38.209 253.232,37.047 254.187,36.091 L254.187,36.091 Z" id="Fill-9" fill="#9E9DAD" fill-rule="nonzero"></path>
            <path d="M288.318,56.364 C287.405,54.351 285.889,53.343 283.772,53.343 C281.862,53.343 280.356,54.464 279.257,56.707 C278.156,58.949 277.606,62.458 277.606,67.233 C277.606,68.977 277.709,70.596 277.917,72.09 C278.125,73.586 278.468,74.883 278.945,75.983 C279.422,77.084 280.045,77.945 280.813,78.568 C281.581,79.191 282.547,79.503 283.71,79.503 C287.696,79.503 289.688,74.624 289.688,64.866 C289.688,61.212 289.231,58.379 288.318,56.364 Z M269.665,59.883 C270.515,57.807 271.647,56.074 273.059,54.682 C274.471,53.292 276.1,52.254 277.948,51.568 C279.796,50.883 281.695,50.541 283.647,50.541 C288.506,50.541 292.263,51.911 294.921,54.651 C297.577,57.392 298.907,61.108 298.907,65.8 C298.907,68.333 298.533,70.617 297.786,72.651 C297.038,74.686 295.989,76.419 294.64,77.852 C293.291,79.284 291.681,80.354 289.813,81.059 C287.945,81.765 285.889,82.118 283.647,82.118 C281.779,82.118 279.941,81.869 278.136,81.371 C276.329,80.873 274.699,80.032 273.246,78.848 C271.792,77.665 270.62,76.119 269.727,74.208 C268.834,72.299 268.389,69.953 268.389,67.17 C268.389,64.389 268.813,61.96 269.665,59.883 L269.665,59.883 Z" id="Fill-10" fill="#9E9DAD" fill-rule="nonzero"></path>
            <path d="M323.135,46.586 C323.051,43.908 322.927,41.22 322.761,38.52 C324.629,38.562 326.476,38.625 328.304,38.707 C330.131,38.791 331.978,38.832 333.848,38.832 C336.92,38.832 339.649,38.8 342.037,38.738 C344.425,38.676 346.033,38.604 346.864,38.52 C346.698,39.185 346.615,40.057 346.615,41.136 C346.615,41.801 346.636,42.319 346.678,42.693 C346.719,43.067 346.78,43.483 346.864,43.939 C345.659,43.856 344.342,43.773 342.909,43.69 C341.476,43.607 340.085,43.525 338.736,43.441 C337.387,43.358 336.172,43.296 335.093,43.254 C334.013,43.213 333.245,43.191 332.788,43.191 C332.622,45.476 332.528,47.738 332.508,49.98 C332.487,52.222 332.477,54.486 332.477,56.769 C335.176,56.728 337.615,56.666 339.795,56.582 C341.975,56.5 344.248,56.395 346.615,56.271 C346.491,56.977 346.407,57.516 346.366,57.89 C346.324,58.264 346.304,58.659 346.304,59.073 C346.304,59.406 346.335,59.749 346.397,60.101 C346.46,60.454 346.531,60.963 346.615,61.627 C341.882,61.254 337.169,61.066 332.477,61.066 L332.477,64.243 C332.477,67.69 332.517,70.752 332.601,73.43 C332.684,76.108 332.808,78.734 332.975,81.308 C332.268,81.225 331.501,81.184 330.671,81.184 C329.84,81.184 328.905,81.184 327.868,81.184 C326.83,81.184 325.895,81.184 325.065,81.184 C324.234,81.184 323.467,81.225 322.761,81.308 C322.927,78.734 323.051,76.108 323.135,73.43 C323.218,70.752 323.259,67.69 323.259,64.243 L323.259,55.773 C323.259,52.327 323.218,49.264 323.135,46.586" id="Fill-11" fill="#9E9DAD" fill-rule="nonzero"></path>
            <path d="M353.777,44.686 C353.694,41.282 353.569,37.835 353.404,34.347 C353.943,34.431 354.628,34.503 355.459,34.565 C356.29,34.628 357.161,34.659 358.075,34.659 C358.988,34.659 359.86,34.628 360.691,34.565 C361.521,34.503 362.206,34.431 362.746,34.347 C362.58,37.835 362.456,41.282 362.373,44.686 C362.289,48.091 362.248,51.828 362.248,55.897 L362.248,59.945 C362.248,64.015 362.289,67.752 362.373,71.156 C362.456,74.562 362.58,77.945 362.746,81.308 C362.206,81.225 361.521,81.184 360.691,81.184 C359.86,81.184 358.988,81.184 358.075,81.184 C357.161,81.184 356.29,81.184 355.459,81.184 C354.628,81.184 353.943,81.225 353.404,81.308 C353.569,77.945 353.694,74.562 353.777,71.156 C353.86,67.752 353.902,64.015 353.902,59.945 L353.902,55.897 C353.902,51.828 353.86,48.091 353.777,44.686" id="Fill-12" fill="#9E9DAD" fill-rule="nonzero"></path>
            <path d="M385.138,67.762 C385.157,66.828 385.168,66.008 385.168,65.302 C384.296,65.8 383.372,66.205 382.396,66.516 C381.421,66.828 380.528,67.223 379.719,67.7 C378.909,68.177 378.244,68.832 377.725,69.662 C377.206,70.493 376.947,71.696 376.947,73.274 C376.947,74.811 377.268,75.983 377.912,76.793 C378.556,77.603 379.417,78.007 380.497,78.007 C381.867,78.007 382.977,77.489 383.829,76.45 C384.68,75.413 385.106,73.877 385.106,71.841 C385.106,70.057 385.116,68.696 385.138,67.762 Z M375.981,51.662 C377.995,50.915 379.999,50.541 381.992,50.541 C383.652,50.541 385.178,50.728 386.569,51.101 C387.96,51.475 389.164,52.066 390.181,52.877 C391.199,53.686 391.988,54.735 392.549,56.022 C393.109,57.309 393.389,58.866 393.389,60.693 C393.389,63.351 393.358,65.811 393.296,68.073 C393.234,70.337 393.203,72.589 393.203,74.831 C393.203,75.828 393.275,76.606 393.421,77.167 C393.565,77.727 393.784,78.153 394.074,78.443 C394.365,78.734 394.749,78.921 395.227,79.004 C395.704,79.087 396.255,79.128 396.877,79.128 L396.877,80.623 C395.673,81.122 394.655,81.495 393.826,81.744 C392.994,81.994 392.102,82.118 391.147,82.118 C389.611,82.118 388.365,81.744 387.41,80.997 C386.455,80.25 385.728,79.171 385.23,77.758 C384.275,79.087 383.165,80.147 381.898,80.935 C380.632,81.723 379.043,82.118 377.134,82.118 C375.556,82.118 374.207,81.91 373.085,81.495 C371.965,81.081 371.04,80.489 370.313,79.72 C369.587,78.952 369.057,78.081 368.725,77.104 C368.392,76.129 368.227,75.143 368.227,74.146 C368.227,72.775 368.445,71.592 368.882,70.596 C369.317,69.599 369.94,68.749 370.75,68.042 C371.559,67.337 372.525,66.745 373.646,66.267 C374.767,65.79 376.033,65.385 377.445,65.053 C379.189,64.638 380.569,64.274 381.587,63.962 C382.604,63.651 383.362,63.34 383.86,63.028 C384.358,62.717 384.68,62.375 384.826,62.001 C384.971,61.627 385.044,61.171 385.044,60.63 C385.044,59.136 384.514,57.859 383.456,56.8 C382.396,55.741 380.933,55.212 379.064,55.212 C378.358,55.212 377.632,55.305 376.885,55.492 C376.138,55.679 375.421,55.939 374.736,56.271 C374.051,56.604 373.428,56.966 372.867,57.361 C372.306,57.756 371.881,58.181 371.591,58.638 L371.154,58.638 L370.345,54.9 C372.089,53.489 373.967,52.409 375.981,51.662 L375.981,51.662 Z" id="Fill-13" fill="#9E9DAD" fill-rule="nonzero"></path>
            <path d="M421.884,55.43 C420.908,54.288 419.465,53.717 417.556,53.717 C415.064,53.717 413.196,54.849 411.95,57.111 C410.704,59.375 410.082,62.521 410.082,66.547 C410.082,70.326 410.87,73.222 412.448,75.236 C414.025,77.25 416.33,78.256 419.361,78.256 C420.648,78.256 421.893,77.956 423.098,77.354 C424.303,76.752 425.195,76.077 425.776,75.329 L426.524,75.952 C426.233,76.534 425.984,77.135 425.776,77.758 C425.568,78.381 425.361,79.004 425.154,79.627 C424.24,80.334 423.088,80.925 421.697,81.402 C420.306,81.879 418.655,82.118 416.746,82.118 C413.715,82.118 411.161,81.682 409.085,80.81 C407.008,79.938 405.338,78.755 404.071,77.26 C402.804,75.765 401.901,74.074 401.362,72.184 C400.822,70.295 400.553,68.396 400.553,66.485 C400.553,64.202 400.935,62.085 401.704,60.132 C402.473,58.181 403.573,56.5 405.006,55.087 C406.437,53.676 408.171,52.565 410.206,51.755 C412.24,50.945 414.504,50.541 416.995,50.541 C419.361,50.541 421.364,50.811 423.005,51.35 C424.645,51.891 426.213,52.596 427.707,53.468 C427.209,54.299 426.742,55.316 426.306,56.52 C425.87,57.725 425.548,58.866 425.341,59.945 L423.846,59.945 C423.513,58.077 422.859,56.572 421.884,55.43" id="Fill-14" fill="#9E9DAD" fill-rule="nonzero"></path>
            <path d="M453.025,55.43 C452.05,54.288 450.606,53.717 448.697,53.717 C446.206,53.717 444.337,54.849 443.092,57.111 C441.846,59.375 441.223,62.521 441.223,66.547 C441.223,70.326 442.012,73.222 443.59,75.236 C445.167,77.25 447.472,78.256 450.503,78.256 C451.79,78.256 453.035,77.956 454.24,77.354 C455.444,76.752 456.336,76.077 456.918,75.329 L457.666,75.952 C457.374,76.534 457.125,77.135 456.918,77.758 C456.71,78.381 456.503,79.004 456.296,79.627 C455.382,80.334 454.229,80.925 452.839,81.402 C451.447,81.879 449.797,82.118 447.888,82.118 C444.855,82.118 442.302,81.682 440.226,80.81 C438.149,79.938 436.478,78.755 435.213,77.26 C433.945,75.765 433.042,74.074 432.504,72.184 C431.963,70.295 431.693,68.396 431.693,66.485 C431.693,64.202 432.077,62.085 432.846,60.132 C433.613,58.181 434.714,56.5 436.146,55.087 C437.579,53.676 439.312,52.565 441.348,51.755 C443.382,50.945 445.644,50.541 448.136,50.541 C450.503,50.541 452.506,50.811 454.146,51.35 C455.786,51.891 457.354,52.596 458.848,53.468 C458.35,54.299 457.884,55.316 457.447,56.52 C457.012,57.725 456.689,58.866 456.482,59.945 L454.987,59.945 C454.654,58.077 454.001,56.572 453.025,55.43" id="Fill-15" fill="#9E9DAD" fill-rule="nonzero"></path>
            <path d="M482.142,56.364 C481.228,54.351 479.714,53.343 477.596,53.343 C475.685,53.343 474.181,54.464 473.08,56.707 C471.98,58.949 471.431,62.458 471.431,67.233 C471.431,68.977 471.533,70.596 471.741,72.09 C471.949,73.586 472.291,74.883 472.769,75.983 C473.246,77.084 473.869,77.945 474.638,78.568 C475.405,79.191 476.371,79.503 477.533,79.503 C481.519,79.503 483.513,74.624 483.513,64.866 C483.513,61.212 483.056,58.379 482.142,56.364 Z M463.489,59.883 C464.34,57.807 465.471,56.074 466.884,54.682 C468.295,53.292 469.925,52.254 471.772,51.568 C473.62,50.883 475.519,50.541 477.472,50.541 C482.33,50.541 486.087,51.911 488.744,54.651 C491.401,57.392 492.73,61.108 492.73,65.8 C492.73,68.333 492.357,70.617 491.609,72.651 C490.862,74.686 489.813,76.419 488.464,77.852 C487.114,79.284 485.506,80.354 483.638,81.059 C481.768,81.765 479.714,82.118 477.472,82.118 C475.603,82.118 473.765,81.869 471.959,81.371 C470.153,80.873 468.523,80.032 467.07,78.848 C465.616,77.665 464.443,76.119 463.551,74.208 C462.658,72.299 462.212,69.953 462.212,67.17 C462.212,64.389 462.638,61.96 463.489,59.883 L463.489,59.883 Z" id="Fill-16" fill="#9E9DAD" fill-rule="nonzero"></path>
            <path d="M515.433,62.25 C516.657,58.638 517.872,55.004 519.076,51.35 C519.533,51.434 519.969,51.506 520.385,51.568 C520.799,51.631 521.215,51.662 521.63,51.662 C522.045,51.662 522.46,51.631 522.876,51.568 C523.29,51.506 523.748,51.434 524.246,51.35 C523.581,52.97 522.771,54.849 521.817,56.987 C520.861,59.126 519.855,61.471 518.796,64.025 C517.737,66.579 516.657,69.319 515.557,72.246 C514.457,75.173 513.43,78.194 512.474,81.308 C511.892,81.225 511.332,81.184 510.793,81.184 C510.253,81.184 509.692,81.184 509.111,81.184 C508.529,81.184 507.969,81.184 507.43,81.184 C506.889,81.184 506.329,81.225 505.748,81.308 C504.917,78.941 503.994,76.326 502.976,73.461 C501.959,70.596 500.952,67.783 499.956,65.021 C498.959,62.261 498.024,59.676 497.153,57.267 C496.281,54.859 495.555,52.887 494.973,51.35 C495.845,51.434 496.685,51.506 497.496,51.568 C498.306,51.631 499.104,51.662 499.893,51.662 C500.681,51.662 501.46,51.631 502.228,51.568 C502.997,51.506 503.775,51.434 504.564,51.35 C505.685,55.004 506.816,58.638 507.959,62.25 C509.1,65.862 510.273,69.496 511.478,73.15 L511.602,73.15 C512.93,69.496 514.208,65.862 515.433,62.25" id="Fill-17" fill="#9E9DAD" fill-rule="nonzero"></path>
            <path d="M529.571,58.046 C529.509,55.825 529.374,53.592 529.166,51.35 C529.747,51.434 530.432,51.506 531.221,51.568 C532.01,51.631 532.882,51.662 533.838,51.662 C535.789,51.662 537.346,51.559 538.509,51.35 C538.301,53.592 538.166,55.825 538.104,58.046 C538.042,60.268 538.011,62.645 538.011,65.177 L538.011,67.669 C538.011,70.202 538.042,72.589 538.104,74.831 C538.166,77.073 538.301,79.233 538.509,81.308 C537.969,81.225 537.294,81.184 536.484,81.184 C535.675,81.184 534.792,81.184 533.838,81.184 C532.882,81.184 532.01,81.184 531.221,81.184 C530.432,81.184 529.747,81.225 529.166,81.308 C529.374,79.233 529.509,77.073 529.571,74.831 C529.634,72.589 529.665,70.202 529.665,67.669 L529.665,65.177 C529.665,62.645 529.634,60.268 529.571,58.046 Z M530.349,36.091 C531.305,35.136 532.468,34.659 533.838,34.659 C535.208,34.659 536.37,35.136 537.325,36.091 C538.28,37.047 538.758,38.209 538.758,39.579 C538.758,40.949 538.28,42.112 537.325,43.067 C536.37,44.023 535.208,44.499 533.838,44.499 C532.468,44.499 531.305,44.023 530.349,43.067 C529.394,42.112 528.917,40.949 528.917,39.579 C528.917,38.209 529.394,37.047 530.349,36.091 L530.349,36.091 Z" id="Fill-18" fill="#9E9DAD" fill-rule="nonzero"></path>
            <path d="M564.48,56.364 C563.567,54.351 562.052,53.343 559.934,53.343 C558.024,53.343 556.518,54.464 555.419,56.707 C554.318,58.949 553.768,62.458 553.768,67.233 C553.768,68.977 553.871,70.596 554.08,72.09 C554.287,73.586 554.63,74.883 555.107,75.983 C555.584,77.084 556.207,77.945 556.975,78.568 C557.744,79.191 558.709,79.503 559.872,79.503 C563.858,79.503 565.851,74.624 565.851,64.866 C565.851,61.212 565.393,58.379 564.48,56.364 Z M545.827,59.883 C546.678,57.807 547.809,56.074 549.221,54.682 C550.633,53.292 552.263,52.254 554.11,51.568 C555.958,50.883 557.857,50.541 559.809,50.541 C564.668,50.541 568.425,51.911 571.083,54.651 C573.739,57.392 575.069,61.108 575.069,65.8 C575.069,68.333 574.695,70.617 573.948,72.651 C573.2,74.686 572.151,76.419 570.803,77.852 C569.452,79.284 567.844,80.354 565.975,81.059 C564.107,81.765 562.052,82.118 559.809,82.118 C557.941,82.118 556.103,81.869 554.298,81.371 C552.491,80.873 550.861,80.032 549.408,78.848 C547.954,77.665 546.782,76.119 545.889,74.208 C544.996,72.299 544.551,69.953 544.551,67.17 C544.551,64.389 544.975,61.96 545.827,59.883 L545.827,59.883 Z" id="Fill-19" fill="#9E9DAD" fill-rule="nonzero"></path>
            <path d="M599.25,46.586 C599.177,43.908 599.068,41.22 598.923,38.52 C600.791,38.562 602.638,38.625 604.467,38.707 C606.293,38.791 608.14,38.832 610.01,38.832 C613.082,38.832 615.811,38.8 618.199,38.738 C620.587,38.676 622.195,38.604 623.026,38.52 C622.86,39.185 622.777,40.057 622.777,41.136 C622.777,41.801 622.798,42.319 622.84,42.693 C622.881,43.067 622.942,43.483 623.026,43.939 C621.821,43.856 620.504,43.773 619.071,43.69 C617.638,43.607 616.247,43.525 614.898,43.441 C613.549,43.358 612.335,43.296 611.255,43.254 C610.175,43.213 609.407,43.191 608.951,43.191 C608.784,45.476 608.69,47.738 608.671,49.98 C608.649,52.222 608.639,54.486 608.639,56.769 C611.338,56.728 613.777,56.666 615.957,56.582 C618.138,56.5 620.41,56.395 622.777,56.271 C622.653,56.977 622.569,57.516 622.528,57.89 C622.486,58.264 622.466,58.659 622.466,59.073 C622.466,59.406 622.497,59.749 622.559,60.101 C622.622,60.454 622.694,60.963 622.777,61.627 C618.044,61.254 613.331,61.066 608.639,61.066 C608.639,62.396 608.628,63.724 608.608,65.053 C608.587,66.382 608.577,67.711 608.577,69.039 C608.577,71.738 608.639,74.333 608.763,76.824 C611.131,76.824 613.497,76.762 615.864,76.637 C618.23,76.513 620.618,76.305 623.026,76.014 C622.942,76.472 622.881,76.886 622.84,77.26 C622.798,77.634 622.777,78.153 622.777,78.817 C622.777,79.482 622.798,80.001 622.84,80.374 C622.881,80.748 622.942,81.059 623.026,81.308 C621.905,81.267 620.524,81.235 618.885,81.215 C617.244,81.193 614.992,81.184 612.127,81.184 C609.594,81.184 607.538,81.184 605.961,81.184 C604.424,81.184 603.189,81.184 602.255,81.184 C601.321,81.184 600.614,81.193 600.138,81.215 C599.66,81.235 599.255,81.267 598.923,81.308 C599.068,78.734 599.177,76.108 599.25,73.43 C599.322,70.752 599.359,67.69 599.359,64.243 L599.359,55.773 C599.359,52.327 599.322,49.264 599.25,46.586" id="Fill-20" fill="#9E9DAD" fill-rule="nonzero"></path>
            <path d="M637.289,72.402 C637.579,73.856 637.974,75.028 638.472,75.921 C638.971,76.815 639.541,77.458 640.185,77.852 C640.829,78.247 641.503,78.443 642.21,78.443 C643.912,78.443 645.313,77.478 646.414,75.547 C647.513,73.616 648.064,70.409 648.064,65.924 C648.064,62.063 647.545,59.251 646.507,57.485 C645.469,55.721 644.14,54.838 642.52,54.838 C641.856,54.838 641.191,55.025 640.528,55.399 C639.863,55.773 639.261,56.426 638.721,57.361 C638.181,58.295 637.735,59.551 637.383,61.129 C637.029,62.707 636.853,64.679 636.853,67.046 C636.853,69.163 636.998,70.949 637.289,72.402 Z M656.534,71.156 C656.617,74.562 656.742,77.945 656.908,81.308 C656.368,81.225 655.682,81.184 654.853,81.184 C654.021,81.184 653.15,81.184 652.237,81.184 C651.406,81.184 650.607,81.184 649.839,81.184 C649.07,81.184 648.478,81.225 648.064,81.308 C648.104,81.225 648.147,80.956 648.188,80.499 C648.229,80.043 648.282,79.524 648.345,78.941 C648.406,78.36 648.459,77.82 648.5,77.322 C648.541,76.824 648.562,76.513 648.562,76.388 L648.437,76.263 C647.648,78.132 646.569,79.575 645.199,80.592 C643.829,81.609 641.939,82.118 639.531,82.118 C637.414,82.118 635.607,81.713 634.112,80.904 C632.618,80.094 631.392,78.963 630.438,77.509 C629.482,76.056 628.777,74.354 628.32,72.402 C627.863,70.451 627.636,68.354 627.636,66.111 C627.636,63.869 627.947,61.804 628.569,59.914 C629.192,58.025 630.043,56.385 631.123,54.994 C632.202,53.603 633.479,52.513 634.954,51.724 C636.427,50.936 637.995,50.541 639.656,50.541 C641.524,50.541 643.195,50.977 644.67,51.849 C646.143,52.721 647.233,53.821 647.939,55.15 L648.064,55.15 C648.064,51.413 648.022,47.894 647.939,44.593 C647.855,41.292 647.731,37.877 647.566,34.347 C648.104,34.431 648.79,34.503 649.621,34.565 C650.451,34.628 651.323,34.659 652.237,34.659 C653.15,34.659 654.021,34.628 654.853,34.565 C655.682,34.503 656.368,34.431 656.908,34.347 C656.742,37.835 656.617,41.282 656.534,44.686 C656.451,48.091 656.41,51.828 656.41,55.897 L656.41,59.945 C656.41,64.015 656.451,67.752 656.534,71.156 L656.534,71.156 Z" id="Fill-21" fill="#9E9DAD" fill-rule="nonzero"></path>
            <path d="M664.6,58.046 C664.538,55.825 664.403,53.592 664.195,51.35 C664.776,51.434 665.462,51.506 666.251,51.568 C667.039,51.631 667.911,51.662 668.866,51.662 C670.817,51.662 672.375,51.559 673.538,51.35 C673.33,53.592 673.195,55.825 673.133,58.046 C673.07,60.268 673.04,62.645 673.04,65.177 L673.04,67.669 C673.04,70.202 673.07,72.589 673.133,74.831 C673.195,77.073 673.33,79.233 673.538,81.308 C672.998,81.225 672.323,81.184 671.513,81.184 C670.704,81.184 669.821,81.184 668.866,81.184 C667.911,81.184 667.039,81.184 666.251,81.184 C665.462,81.184 664.776,81.225 664.195,81.308 C664.403,79.233 664.538,77.073 664.6,74.831 C664.662,72.589 664.693,70.202 664.693,67.669 L664.693,65.177 C664.693,62.645 664.662,60.268 664.6,58.046 Z M665.379,36.091 C666.334,35.136 667.496,34.659 668.866,34.659 C670.237,34.659 671.398,35.136 672.354,36.091 C673.309,37.047 673.787,38.209 673.787,39.579 C673.787,40.949 673.309,42.112 672.354,43.067 C671.398,44.023 670.237,44.499 668.866,44.499 C667.496,44.499 666.334,44.023 665.379,43.067 C664.423,42.112 663.946,40.949 663.946,39.579 C663.946,38.209 664.423,37.047 665.379,36.091 L665.379,36.091 Z" id="Fill-22" fill="#9E9DAD" fill-rule="nonzero"></path>
            <path d="M697.018,53.343 C697.018,53.884 697.08,54.402 697.205,54.9 L691.724,54.776 C691.64,55.732 691.568,56.831 691.506,58.077 C691.444,59.323 691.402,60.589 691.382,61.876 C691.36,63.164 691.34,64.409 691.319,65.613 C691.298,66.818 691.288,67.835 691.288,68.665 C691.288,70.824 691.34,72.568 691.444,73.897 C691.547,75.226 691.724,76.243 691.973,76.948 C692.222,77.655 692.574,78.132 693.032,78.381 C693.488,78.63 694.069,78.755 694.776,78.755 C695.564,78.755 696.146,78.703 696.52,78.599 C696.893,78.496 697.267,78.34 697.641,78.132 L697.641,80.686 C696.809,81.059 695.772,81.391 694.527,81.682 C693.281,81.972 692.055,82.118 690.852,82.118 C685.579,82.118 682.942,78.963 682.942,72.651 C682.942,71.447 682.963,70.087 683.005,68.571 C683.046,67.056 683.097,65.499 683.16,63.9 C683.222,62.302 683.274,60.724 683.316,59.167 C683.357,57.61 683.378,56.168 683.378,54.838 L679.018,54.9 C679.143,54.402 679.205,53.884 679.205,53.343 C679.205,52.845 679.143,52.285 679.018,51.662 L683.378,51.849 C683.378,50.562 683.357,49.358 683.316,48.236 C683.274,47.115 683.212,45.766 683.129,44.188 C684.582,43.607 686.014,42.995 687.427,42.351 C688.838,41.707 690.25,41.033 691.662,40.326 L692.285,40.762 C692.201,41.427 692.129,42.206 692.067,43.098 C692.005,43.991 691.942,44.926 691.88,45.9 C691.817,46.877 691.775,47.873 691.756,48.89 C691.734,49.908 691.724,50.874 691.724,51.787 L697.205,51.662 C697.08,52.285 697.018,52.845 697.018,53.343" id="Fill-23" fill="#9E9DAD" fill-rule="nonzero"></path>
            <path d="M720.25,56.364 C719.336,54.351 717.82,53.343 715.703,53.343 C713.793,53.343 712.287,54.464 711.187,56.707 C710.087,58.949 709.537,62.458 709.537,67.233 C709.537,68.977 709.639,70.596 709.848,72.09 C710.055,73.586 710.398,74.883 710.876,75.983 C711.352,77.084 711.975,77.945 712.744,78.568 C713.513,79.191 714.477,79.503 715.64,79.503 C719.627,79.503 721.62,74.624 721.62,64.866 C721.62,61.212 721.162,58.379 720.25,56.364 Z M701.596,59.883 C702.446,57.807 703.578,56.074 704.99,54.682 C706.401,53.292 708.031,52.254 709.879,51.568 C711.726,50.883 713.626,50.541 715.578,50.541 C720.436,50.541 724.193,51.911 726.851,54.651 C729.508,57.392 730.838,61.108 730.838,65.8 C730.838,68.333 730.464,70.617 729.717,72.651 C728.969,74.686 727.92,76.419 726.571,77.852 C725.221,79.284 723.612,80.354 721.744,81.059 C719.876,81.765 717.82,82.118 715.578,82.118 C713.71,82.118 711.873,81.869 710.066,81.371 C708.26,80.873 706.63,80.032 705.177,78.848 C703.722,77.665 702.551,76.119 701.658,74.208 C700.764,72.299 700.319,69.953 700.319,67.17 C700.319,64.389 700.744,61.96 701.596,59.883 L701.596,59.883 Z" id="Fill-24" fill="#9E9DAD" fill-rule="nonzero"></path>
            <path d="M745.1,59.073 C746.18,56.209 747.487,54.102 749.024,52.752 C750.56,51.403 752.388,50.728 754.505,50.728 C754.712,50.728 754.888,50.738 755.034,50.759 C755.18,50.78 755.335,50.79 755.502,50.79 C755.377,51.413 755.283,52.077 755.221,52.783 C755.159,53.489 755.128,54.319 755.128,55.275 L755.128,57.267 C755.128,57.6 755.128,57.952 755.128,58.326 C755.128,58.7 755.148,59.053 755.19,59.385 L754.63,59.883 C754.214,59.634 753.747,59.427 753.228,59.26 C752.709,59.095 752.117,59.011 751.453,59.011 C749.585,59.011 748.11,59.624 747.031,60.849 C745.951,62.074 745.412,63.517 745.412,65.177 L745.412,67.669 C745.412,70.202 745.442,72.589 745.505,74.831 C745.567,77.073 745.702,79.233 745.91,81.308 C745.371,81.225 744.7,81.184 743.896,81.184 C743.093,81.184 742.216,81.184 741.267,81.184 C740.32,81.184 739.454,81.184 738.671,81.184 C737.888,81.184 737.207,81.225 736.63,81.308 C736.81,79.233 736.93,77.073 736.984,74.831 C737.039,72.589 737.065,70.202 737.065,67.669 L737.065,65.177 C737.065,62.645 737.039,60.268 736.984,58.046 C736.93,55.825 736.81,53.592 736.63,51.35 C737.331,51.434 738.041,51.506 738.762,51.568 C739.483,51.631 740.194,51.662 740.895,51.662 C741.596,51.662 742.306,51.631 743.028,51.568 C743.75,51.506 744.461,51.434 745.163,51.35 L744.975,58.949 L745.1,59.073" id="Fill-25" fill="#9E9DAD" fill-rule="nonzero"></path>
            <path d="M776.833,56.146 C776.147,54.278 774.995,53.343 773.376,53.343 C772.463,53.343 771.694,53.655 771.071,54.278 C770.449,54.9 769.951,55.7 769.577,56.676 C769.203,57.651 768.923,58.753 768.736,59.977 C768.55,61.202 768.434,62.416 768.393,63.62 L777.985,63.62 C777.901,60.506 777.518,58.015 776.833,56.146 Z M768.891,71.094 C769.223,72.548 769.732,73.803 770.418,74.862 C771.102,75.921 771.974,76.752 773.034,77.354 C774.093,77.956 775.328,78.256 776.739,78.256 C779.604,78.256 782.158,77.322 784.4,75.454 L785.147,76.014 L783.777,79.503 C782.739,80.292 781.493,80.925 780.041,81.402 C778.587,81.879 776.677,82.118 774.31,82.118 C772.275,82.118 770.345,81.838 768.518,81.277 C766.69,80.717 765.082,79.793 763.691,78.505 C762.3,77.219 761.2,75.589 760.39,73.616 C759.58,71.645 759.176,69.288 759.176,66.547 C759.176,63.849 759.539,61.503 760.265,59.509 C760.991,57.516 761.999,55.856 763.286,54.527 C764.573,53.198 766.098,52.202 767.864,51.537 C769.629,50.874 771.549,50.541 773.625,50.541 C777.736,50.541 780.881,51.746 783.061,54.153 C785.241,56.562 786.331,59.967 786.331,64.367 L786.331,65.675 C786.331,66.049 786.309,66.298 786.268,66.423 L768.393,66.423 C768.393,68.084 768.559,69.641 768.891,71.094 L768.891,71.094 Z" id="Fill-26" fill="#9E9DAD" fill-rule="nonzero"></path>
        </g>
    </g>
</svg>