<?xml version="1.0" encoding="UTF-8" standalone="no"?>
<svg width="160px" height="16px" viewBox="0 0 160 16" version="1.1" xmlns="http://www.w3.org/2000/svg" xmlns:xlink="http://www.w3.org/1999/xlink">
    <!-- Generator: Sketch 47.1 (45422) - http://www.bohemiancoding.com/sketch -->
    <title>semrush-logo</title>
    <desc>Created with Sketch.</desc>
    <defs></defs>
    <g id="Page-1" stroke="none" stroke-width="1" fill="none" fill-rule="evenodd">
        <g id="semrush-logo" fill="#9E9DAD" fill-rule="nonzero">
            <path d="M110.252,2.832026 L96.0207,2.832026 L92.3506,12.943426 L95.1219,12.943426 L97.8932,5.228826 L101.339,5.228826 C101.713,5.228826 101.938,5.528426 101.788,5.902826 L99.2413,12.868526 L102.013,12.868526 L104.559,5.902826 C104.709,5.528426 105.158,5.228826 105.533,5.228826 L108.304,5.228826 C108.679,5.228826 108.903,5.528426 108.754,5.902826 L106.207,12.868526 L108.978,12.868526 L111.899,4.854326 C112.349,3.730826 111.6,2.832026 110.252,2.832026 Z M129.575,9.797626 C129.426,10.172126 128.976,10.471726 128.602,10.471726 L125.156,10.471726 C124.782,10.471726 124.557,10.172126 124.707,9.797626 L127.254,2.832026 L124.482,2.832026 L121.561,10.846226 C121.112,11.969726 121.861,12.943426 123.209,12.943426 L129.501,12.943426 C130.474,12.943426 131.448,12.344226 131.748,11.520326 L134.893,2.832026 L132.122,2.832026 L129.575,9.797626 Z M83.3627,9.797626 L83.5874,9.123526 L91.9012,9.123526 L92.8,6.726726 L93.3992,5.004126 C93.8486,3.880626 93.0996,2.906926 91.7514,2.906926 L84.7858,2.906926 C83.8121,2.906926 82.8384,3.506126 82.5388,4.330026 L80.1421,10.921126 C79.6927,12.044626 80.4417,13.018326 81.7898,13.018326 L90.6279,13.018326 L91.5267,10.621526 L83.887,10.621526 C83.4376,10.471726 83.2878,10.172126 83.3627,9.797626 Z M84.7858,5.977726 C84.9356,5.603326 85.385,5.303726 85.7595,5.303726 L89.9539,5.303726 C90.3283,5.303726 90.553,5.603326 90.4032,5.977726 L90.1785,6.651826 L84.636,6.651826 L84.7858,5.977726 Z M156.464,2.832026 L155.041,6.651826 L150.173,6.651826 L151.596,2.832026 L148.825,2.832026 L145.155,12.943426 L147.926,12.943426 L149.349,9.048626 L154.142,9.048626 L152.794,12.943426 L155.565,12.943426 L159.236,2.832026 L156.464,2.832026 Z M113.922,4.255126 L110.776,12.943426 L113.547,12.943426 L116.094,5.977726 C116.243,5.603326 116.693,5.303726 117.067,5.303726 L121.936,5.303726 L122.835,2.906926 L116.243,2.906926 C115.195,2.832026 114.221,3.431226 113.922,4.255126 Z M70.4801,4.255126 L69.4315,7.026326 C68.9821,8.149826 69.7311,9.123526 71.0793,9.123526 L75.5732,9.123526 C75.9477,9.123526 76.1724,9.423126 76.0226,9.797626 C75.8728,10.172126 75.4234,10.471726 75.0489,10.471726 L68.0833,10.471726 L67.1845,12.868526 L75.8728,12.868526 C76.8465,12.868526 77.8202,12.269326 78.1198,11.445426 L79.1684,8.674126 C79.6178,7.550626 78.8688,6.576926 77.5206,6.576926 L73.0266,6.576926 C72.6522,6.651826 72.5024,6.352226 72.6522,5.977726 C72.7271,5.603326 73.1764,5.228826 73.5509,5.228826 L80.5166,5.228826 L81.4154,2.832026 L72.7271,2.832026 C71.7534,2.832026 70.7797,3.431226 70.4801,4.255126 Z M136.167,4.255126 L135.118,7.026326 C134.669,8.149826 135.418,9.123526 136.766,9.123526 L141.26,9.123526 C141.634,9.123526 141.859,9.423126 141.709,9.797626 C141.559,10.172126 141.11,10.471726 140.735,10.471726 L133.77,10.471726 L132.871,12.868526 L141.559,12.868526 C142.533,12.868526 143.507,12.269326 143.806,11.445426 L144.855,8.674126 C145.304,7.550626 144.555,6.576926 143.207,6.576926 L138.713,6.576926 C138.339,6.576926 138.114,6.277326 138.264,5.902826 C138.414,5.528426 138.863,5.228826 139.237,5.228826 L146.203,5.228826 L147.102,2.832026 L138.414,2.832026 C137.44,2.832026 136.391,3.431226 136.167,4.255126 Z M59.0205,2.307726 C57.0731,0.285426 54.3768,-0.388674 50.9314,0.210526 C50.9314,0.210526 46.812,1.184226 43.1419,1.259126 C41.569,1.259126 40.2957,0.809726 39.1722,0.585026 C39.7714,1.558726 40.6702,2.232826 41.7188,2.607326 C42.6925,2.981826 44.0407,3.506126 43.4415,4.479826 C42.7674,5.528426 41.7188,4.629626 41.4192,4.404926 C40.4455,3.655926 39.9961,3.131626 38.1986,2.083026 C36.2512,0.959526 33.5548,0.884626 30.8584,1.184226 C30.8584,1.184226 33.1054,1.633626 34.0791,2.682226 C34.0791,2.682226 29.8099,1.783426 26.9637,3.206526 C31.0082,3.356326 35.5022,4.030426 36.2512,4.330026 C37.0002,4.704526 36.6257,4.929226 35.8767,5.079026 C34.0791,5.453526 30.7086,5.603326 28.6115,5.004126 C25.6155,4.180226 23.0689,1.633626 18.7997,2.307726 C22.5446,3.131626 24.5669,6.651826 28.6864,7.475726 C32.8058,8.299626 35.5771,6.651826 36.5508,6.427126 C37.5245,6.202426 38.3484,6.502026 38.4982,7.176126 C38.7228,7.850226 37.899,8.599226 36.7755,8.823926 C35.9516,8.973726 35.652,8.973726 34.154,9.123526 C31.0082,9.423126 28.7613,9.048626 26.739,8.524326 C22.9191,7.475726 20.2228,5.004126 18.9495,4.330026 C17.6762,3.655926 16.2531,3.356326 15.2045,3.206526 C15.2045,3.206526 17.3017,4.255126 18.0507,5.603326 C16.1782,4.929226 13.4818,4.479826 9.8867,5.228826 C8.164,5.528426 4.4939,6.352226 0,8.149826 C2.247,8.823926 5.0931,8.299626 6.3664,8.224726 C13.1073,7.700426 15.3543,9.123526 17.5264,9.947426 C24.1175,12.269326 26.3645,10.172126 26.8139,10.846226 C27.1135,11.370526 25.0163,12.194426 24.4171,12.344226 C21.4212,12.868526 19.9981,12.344226 17.3017,11.745026 C18.6499,13.093226 21.2714,14.066926 24.1924,13.992026 C27.1884,13.842226 30.3341,13.392826 32.8807,12.344226 C35.8767,11.070926 37.0751,10.696426 38.4233,10.321926 C39.0224,10.172126 41.0447,9.647826 41.4941,10.172126 C41.7188,10.471726 41.3443,10.771326 40.6702,11.070926 C40.1459,11.295626 39.4718,11.520326 38.8726,11.745026 C37.4496,12.269326 34.6783,13.317926 33.8544,13.992026 C33.8544,13.992026 37.6743,13.392826 41.4192,13.392826 C45.1642,13.392826 47.7107,14.216726 50.5569,15.265226 C53.6278,16.388726 56.2492,16.014226 58.4962,14.141826 C60.5185,12.419126 61.4922,10.471726 61.4173,8.149826 C61.4173,5.753026 60.5934,3.880626 59.0205,2.307726 Z M53.7027,14.291526 C50.1824,14.291526 47.3362,11.445426 47.3362,7.925126 C47.3362,4.404926 50.1824,1.558726 53.7027,1.558726 C57.2229,1.558726 60.0691,4.404926 60.0691,7.925126 C60.0691,11.445426 57.2229,14.291526 53.7027,14.291526 Z M53.7027,2.906926 C50.9314,2.906926 48.6844,5.153926 48.6844,7.925126 C48.6844,10.696426 50.9314,12.943426 53.7027,12.943426 C56.4739,12.943426 58.7209,10.696426 58.7209,7.925126 C58.7958,5.153926 56.5488,2.906926 53.7027,2.906926 Z M56.0994,11.220726 C56.6986,10.471726 56.9982,9.572926 56.9982,8.599226 C56.9982,6.576926 55.5003,4.854326 53.5529,4.479826 C53.7027,4.255126 53.9274,3.955526 54.1521,3.805726 C56.1743,4.105326 57.6723,5.827926 57.6723,7.925126 C57.6723,9.273326 57.0731,10.471726 56.0994,11.220726 Z"></path>
        </g>
    </g>
</svg>