<?xml version="1.0" encoding="UTF-8" standalone="no"?>
<svg width="384px" height="396px" viewBox="0 0 384 396" version="1.1" xmlns="http://www.w3.org/2000/svg" xmlns:xlink="http://www.w3.org/1999/xlink">
    <!-- Generator: Sketch 47.1 (45422) - http://www.bohemiancoding.com/sketch -->
    <title>Artboard Copy 3</title>
    <desc>Created with Sketch.</desc>
    <defs>
        <path d="M208,40 L96,40 C96,17.90861 78.09139,0 56,0 L0.663667521,0 C4.47229226,22.7017067 24.2160297,40 48,40 C61.254834,40 72,50.745166 72,64 C72,75.6571959 68.8833789,86.586466 63.4379395,96 L240,96 C262.09139,96 280,78.09139 280,56 C280.206055,47.8916016 278.764648,41.1783854 275.675781,35.8603516 C271.04248,27.8833008 270.519531,25.0283203 270.533203,18.6328125 C270.546875,12.2373047 277.156578,3.73428535 284.116227,2 L232,16 L231.578129,18.1093573 C217.676602,21.8695126 208,30.2567289 208,40 Z" id="path-1"></path>
    </defs>
    <g id="landing-page" stroke="none" stroke-width="1" fill="none" fill-rule="evenodd">
        <g id="Artboard-Copy-3">
            <g id="ship" transform="translate(0.000000, 16.000000)">
                <g transform="translate(192.000000, 194.000000) scale(-1, 1) translate(-192.000000, -194.000000) ">
                    <g transform="translate(24.000000, 0.000000)">
                        <path d="M165.623047,316.398438 C167.876953,282.186198 146.829427,257.939453 102.480469,243.658203 C123.020833,221.061849 121.727865,200.042969 98.6015625,180.601563 C161.067708,152.052083 221.734375,105.71875 280.601562,41.6015625 L270.710938,108.101563" id="Line-Copy-6" stroke="#FFC552" stroke-width="8" stroke-linecap="round" transform="translate(189.601563, 179.000000) scale(-1, -1) rotate(-90.000000) translate(-189.601563, -179.000000) "></path>
                        <rect id="Rectangle-6" fill="#844840" x="96" y="296" width="40" height="16"></rect>
                        <rect id="Rectangle-6" fill="#844840" x="80" y="288" width="40" height="16"></rect>
                        <path d="M152,328 C152,301.490332 130.509668,280 104,280 L104,288 C126.09139,288 144,305.90861 144,328 L152,328 Z" id="Combined-Shape" fill="#F09F2E"></path>
                        <path d="M8,288 C8,283.581722 11.581722,280 16,280 L16,280 L104,280 C108.418278,280 112,283.581722 112,288" id="Rectangle-29" fill="#A1674F"></path>
                        <rect id="Rectangle-6-Copy" fill="#A1674F" x="88" y="304" width="56" height="24"></rect>
                        <path d="M104,328 C104,301.490332 82.509668,280 56,280 L56,288 C78.09139,288 96,305.90861 96,328 L104,328 Z" id="Combined-Shape" fill="#FFC552"></path>
                        <path d="M227.276367,313.202148 L259.5,260.402344 C234.166667,224.263672 210.333333,166.796224 188,88" id="Line" stroke="#FFC552" stroke-width="8" stroke-linecap="round"></path>
                        <path d="M290,324 C284.982687,316.438042 276.533203,312.447266 276.533203,303.632812 C276.533203,294.818359 283.156578,290.734285 290.116227,289 L248,296 L224,384 L256,384 C278.09139,384 296,366.09139 296,344 C296.206055,335.891602 294.424805,330.668945 290,324 Z" id="Combined-Shape" fill="#844840"></path>
                        <g id="Group-5" transform="translate(40.000000, 354.000000)" fill="#844840">
                            <polygon id="Rectangle-2" points="23.8976039 0 46 0 43 34 11 34"></polygon>
                            <path d="M15.4379395,30 C20.5614077,21.1430513 23.6233031,10.9443285 23.9674752,0.0599820132 C11.2076916,4.58378573 1.75637151,16.0991918 0.219715111,30 L15.4379395,30 Z" id="Combined-Shape"></path>
                        </g>
                        <g id="Group-3" transform="translate(0.000000, 288.000000)">
                            <mask id="mask-2" fill="white">
                                <use xlink:href="#path-1"></use>
                            </mask>
                            <use id="Combined-Shape" fill="#A1674F" xlink:href="#path-1"></use>
                            <rect id="Rectangle-34" fill="#8C5A46" mask="url(#mask-2)" x="64" y="80" width="216" height="8"></rect>
                            <rect id="Rectangle-34-Copy" fill="#8C5A46" mask="url(#mask-2)" x="64" y="64" width="216" height="8"></rect>
                            <rect id="Rectangle-34-Copy-2" fill="#8C5A46" mask="url(#mask-2)" x="64" y="48" width="224" height="8"></rect>
                            <rect id="Rectangle-34-Copy-3" fill="#8C5A46" mask="url(#mask-2)" x="208" y="32" width="72" height="8"></rect>
                            <rect id="Rectangle-34-Copy-3" fill="#8C5A46" mask="url(#mask-2)" x="208" y="16" width="72" height="8"></rect>
                            <rect id="Rectangle-34-Copy-4" fill="#8C5A46" mask="url(#mask-2)" x="-8" y="32" width="104" height="8"></rect>
                            <rect id="Rectangle-34-Copy-4" fill="#8C5A46" mask="url(#mask-2)" x="-8" y="16" width="104" height="8"></rect>
                            <rect id="Rectangle-34-Copy-4" fill="#8C5A46" mask="url(#mask-2)" x="-8" y="0" width="104" height="8"></rect>
                        </g>
                        <path d="M232,305.99701 L232,297.978323 C213.317571,302.491806 200,314.230234 200,328 L208,328 C208,318.158469 217.872761,309.700482 231.999999,305.99701 L232,305.99701 Z" id="Combined-Shape" fill="#FFC552"></path>
                        <path d="M0,280 C0,275.581722 3.581722,272 8,272 L8,272 L96,272 C100.418278,272 104,275.581722 104,280" id="Rectangle-29" fill="#844840"></path>
                        <circle id="Oval-17" fill="#FFC552" cx="112" cy="352" r="8"></circle>
                        <circle id="Oval-17" fill="#3E3C5C" cx="112" cy="352" r="4"></circle>
                        <circle id="Oval-17" fill="#FFC552" cx="136" cy="352" r="8"></circle>
                        <circle id="Oval-17" fill="#3E3C5C" cx="136" cy="352" r="4"></circle>
                        <circle id="Oval-17" fill="#FFC552" cx="160" cy="352" r="8"></circle>
                        <circle id="Oval-17" fill="#3E3C5C" cx="160" cy="352" r="4"></circle>
                        <circle id="Oval-17" fill="#FFC552" cx="184" cy="352" r="8"></circle>
                        <circle id="Oval-17" fill="#3E3C5C" cx="184" cy="352" r="4"></circle>
                        <rect id="Rectangle-30" fill="#A1674F" x="120" y="8" width="8" height="296"></rect>
                        <polygon id="Rectangle" fill="#A1674F" points="104 56 124 56 124 88 112 88"></polygon>
                        <polygon id="Rectangle-Copy" fill="#A1674F" transform="translate(134.000000, 72.000000) scale(-1, 1) translate(-134.000000, -72.000000) " points="124 56 144 56 144 88 132 88"></polygon>
                        <rect id="Rectangle-30" fill="#844840" x="120" y="176" width="8" height="104"></rect>
                        <rect id="Rectangle-30-Copy-2" fill="#A1674F" x="48" y="152" width="8" height="136"></rect>
                        <circle id="Oval-19" fill="#A1674F" cx="52" cy="152" r="4"></circle>
                        <rect id="Rectangle-30" fill="#844840" x="48" y="248" width="8" height="8"></rect>
                        <path d="M40.0801614,112 C12.2559426,144.842448 9.58927595,190.175781 32.0801614,248 L96.0801614,248 C53.4134947,202.666667 34.746828,157.333333 40.0801614,112 Z" id="Line-2" fill="#FFFFFF"></path>
                        <path d="M0.663667521,288 C0.227190369,285.398332 0,282.725698 0,280 L56,280 L56,288 L0.663667521,288 Z" id="Combined-Shape" fill="#FFC552"></path>
                        <rect id="Rectangle-30-Copy" fill="#A1674F" x="184" y="80" width="8" height="248"></rect>
                        <circle id="Oval-19" fill="#A1674F" cx="188" cy="78" r="4"></circle>
                        <rect id="Rectangle-30-Copy" fill="#844840" x="184" y="208" width="8" height="104"></rect>
                        <path d="M335.383777,272.154056 L232,298 L232,306 L342.264502,278.433875 C339.948311,276.339033 337.654736,274.24576 335.383777,272.154056 Z" id="Combined-Shape" fill="#FFC552"></path>
                        <g id="Group" transform="translate(74.000000, 184.000000)">
                            <path d="M38,40 C38,23.304234 29.4759253,8.59937231 16.542361,0 L0.542360984,0 C13.4759253,8.59937231 22,23.304234 22,40 L38,40 Z" id="Combined-Shape" fill="#FF8A62"></path>
                            <path d="M38,40 C38,56.695766 29.4759253,71.4006277 16.542361,80 L0.542360984,80 C13.4759253,71.4006277 22,56.695766 22,40 L38,40 Z" id="Combined-Shape" fill="#F15F55"></path>
                            <path d="M38,40 C38,56.695766 29.4759253,71.4006277 16.542361,80 L0.542360984,80 C13.4759253,71.4006277 22,56.695766 22,40 L38,40 Z" id="Combined-Shape" fill="#F15F55"></path>
                            <path d="M70,40 C70,23.304234 61.4759253,8.59937231 48.542361,0 L32.542361,0 C45.4759253,8.59937231 54,23.304234 54,40 L70,40 Z" id="Combined-Shape" fill="#FF8A62"></path>
                            <path d="M70,40 C70,56.695766 61.4759253,71.4006277 48.542361,80 L32.542361,80 C45.4759253,71.4006277 54,56.695766 54,40 L70,40 Z" id="Combined-Shape" fill="#F15F55"></path>
                            <path d="M54,40 C54,23.304234 45.4759253,8.59937231 32.542361,0 L16.542361,0 C29.4759253,8.59937231 38,23.304234 38,40 L54,40 Z" id="Combined-Shape" fill="#FFFFFF"></path>
                            <path d="M54,40 C54,56.695766 45.4759253,71.4006277 32.542361,80 L16.542361,80 C29.4759253,71.4006277 38,56.695766 38,40 L54,40 Z" id="Combined-Shape" fill="#D5E9F6"></path>
                            <path d="M102,40 C102,23.304234 93.4759253,8.59937231 80.542361,0 L64.542361,0 C77.4759253,8.59937231 86,23.304234 86,40 L102,40 Z" id="Combined-Shape" fill="#FF8A62"></path>
                            <path d="M102,40 C102,56.695766 93.4759253,71.4006277 80.542361,80 L64.542361,80 C77.4759253,71.4006277 86,56.695766 86,40 L102,40 Z" id="Combined-Shape" fill="#F15F55"></path>
                            <path d="M86,40 C86,23.304234 77.4759253,8.59937231 64.542361,0 L48.542361,0 C61.4759253,8.59937231 70,23.304234 70,40 L86,40 Z" id="Combined-Shape" fill="#FFFFFF"></path>
                            <path d="M86,40 C86,56.695766 77.4759253,71.4006277 64.542361,80 L48.542361,80 C61.4759253,71.4006277 70,56.695766 70,40 L86,40 Z" id="Combined-Shape" fill="#D5E9F6"></path>
                        </g>
                        <g id="Group" transform="translate(74.000000, 96.000000)">
                            <path d="M38,40 C38,23.304234 29.4759253,8.59937231 16.542361,0 L0.542360984,0 C13.4759253,8.59937231 22,23.304234 22,40 L38,40 Z" id="Combined-Shape" fill="#FF8A62"></path>
                            <path d="M38,40 C38,56.695766 29.4759253,71.4006277 16.542361,80 L0.542360984,80 C13.4759253,71.4006277 22,56.695766 22,40 L38,40 Z" id="Combined-Shape" fill="#F15F55"></path>
                            <path d="M38,40 C38,56.695766 29.4759253,71.4006277 16.542361,80 L0.542360984,80 C13.4759253,71.4006277 22,56.695766 22,40 L38,40 Z" id="Combined-Shape" fill="#F15F55"></path>
                            <path d="M70,40 C70,23.304234 61.4759253,8.59937231 48.542361,0 L32.542361,0 C45.4759253,8.59937231 54,23.304234 54,40 L70,40 Z" id="Combined-Shape" fill="#FF8A62"></path>
                            <path d="M70,40 C70,56.695766 61.4759253,71.4006277 48.542361,80 L32.542361,80 C45.4759253,71.4006277 54,56.695766 54,40 L70,40 Z" id="Combined-Shape" fill="#F15F55"></path>
                            <path d="M54,40 C54,23.304234 45.4759253,8.59937231 32.542361,0 L16.542361,0 C29.4759253,8.59937231 38,23.304234 38,40 L54,40 Z" id="Combined-Shape" fill="#FFFFFF"></path>
                            <path d="M54,40 C54,56.695766 45.4759253,71.4006277 32.542361,80 L16.542361,80 C29.4759253,71.4006277 38,56.695766 38,40 L54,40 Z" id="Combined-Shape" fill="#D5E9F6"></path>
                            <path d="M102,40 C102,23.304234 93.4759253,8.59937231 80.542361,0 L64.542361,0 C77.4759253,8.59937231 86,23.304234 86,40 L102,40 Z" id="Combined-Shape" fill="#FF8A62"></path>
                            <path d="M102,40 C102,56.695766 93.4759253,71.4006277 80.542361,80 L64.542361,80 C77.4759253,71.4006277 86,56.695766 86,40 L102,40 Z" id="Combined-Shape" fill="#F15F55"></path>
                            <path d="M86,40 C86,23.304234 77.4759253,8.59937231 64.542361,0 L48.542361,0 C61.4759253,8.59937231 70,23.304234 70,40 L86,40 Z" id="Combined-Shape" fill="#FFFFFF"></path>
                            <path d="M86,40 C86,56.695766 77.4759253,71.4006277 64.542361,80 L48.542361,80 C61.4759253,71.4006277 70,56.695766 70,40 L86,40 Z" id="Combined-Shape" fill="#D5E9F6"></path>
                        </g>
                        <g id="Group" transform="translate(137.000000, 216.000000)">
                            <path d="M38,40 C38,23.304234 29.4759253,8.59937231 16.542361,0 L0.542360984,0 C13.4759253,8.59937231 22,23.304234 22,40 L38,40 Z" id="Combined-Shape" fill="#FF8A62"></path>
                            <path d="M38,40 C38,56.695766 29.4759253,71.4006277 16.542361,80 L0.542360984,80 C13.4759253,71.4006277 22,56.695766 22,40 L38,40 Z" id="Combined-Shape" fill="#F15F55"></path>
                            <path d="M38,40 C38,56.695766 29.4759253,71.4006277 16.542361,80 L0.542360984,80 C13.4759253,71.4006277 22,56.695766 22,40 L38,40 Z" id="Combined-Shape" fill="#F15F55"></path>
                            <path d="M70,40 C70,23.304234 61.4759253,8.59937231 48.542361,0 L32.542361,0 C45.4759253,8.59937231 54,23.304234 54,40 L70,40 Z" id="Combined-Shape" fill="#FF8A62"></path>
                            <path d="M70,40 C70,56.695766 61.4759253,71.4006277 48.542361,80 L32.542361,80 C45.4759253,71.4006277 54,56.695766 54,40 L70,40 Z" id="Combined-Shape" fill="#F15F55"></path>
                            <path d="M54,40 C54,23.304234 45.4759253,8.59937231 32.542361,0 L16.542361,0 C29.4759253,8.59937231 38,23.304234 38,40 L54,40 Z" id="Combined-Shape" fill="#FFFFFF"></path>
                            <path d="M54,40 C54,56.695766 45.4759253,71.4006277 32.542361,80 L16.542361,80 C29.4759253,71.4006277 38,56.695766 38,40 L54,40 Z" id="Combined-Shape" fill="#D5E9F6"></path>
                            <path d="M102,40 C102,23.304234 93.4759253,8.59937231 80.542361,0 L64.542361,0 C77.4759253,8.59937231 86,23.304234 86,40 L102,40 Z" id="Combined-Shape" fill="#FF8A62"></path>
                            <path d="M102,40 C102,56.695766 93.4759253,71.4006277 80.542361,80 L64.542361,80 C77.4759253,71.4006277 86,56.695766 86,40 L102,40 Z" id="Combined-Shape" fill="#F15F55"></path>
                            <path d="M86,40 C86,23.304234 77.4759253,8.59937231 64.542361,0 L48.542361,0 C61.4759253,8.59937231 70,23.304234 70,40 L86,40 Z" id="Combined-Shape" fill="#FFFFFF"></path>
                            <path d="M86,40 C86,56.695766 77.4759253,71.4006277 64.542361,80 L48.542361,80 C61.4759253,71.4006277 70,56.695766 70,40 L86,40 Z" id="Combined-Shape" fill="#D5E9F6"></path>
                        </g>
                        <g id="Group-2" transform="translate(138.000000, 128.000000)">
                            <path d="M102,40 C102,23.304234 93.4759253,8.59937231 80.542361,0 L0.542360984,5.68434189e-14 C13.4759253,8.59937231 22,23.304234 22,40 L102,40 Z" id="Combined-Shape" fill="#3E3C5C"></path>
                            <path d="M102,80 C102,63.304234 93.4759253,48.5993723 80.542361,40 L0.542360984,40 C13.4759253,48.5993723 22,63.304234 22,80 L102,80 Z" id="Combined-Shape" fill="#2F3242" transform="translate(51.271180, 60.000000) scale(1, -1) translate(-51.271180, -60.000000) "></path>
                        </g>
                        <path d="M201,178 C212.045695,178 221,177.045695 221,166 C221,154.954305 212.045695,146 201,146 C189.954305,146 181,154.954305 181,166 C181,177.045695 189.954305,178 201,178 Z" id="Oval-8" fill="#FFFFFF"></path>
                        <circle id="Oval-9" fill="#3E3C5C" cx="193" cy="158" r="4"></circle>
                        <circle id="Oval-10" fill="#3E3C5C" cx="209" cy="158" r="4"></circle>
                        <rect id="Rectangle-12" fill="#FFFFFF" x="189" y="170" width="24" height="16"></rect>
                        <rect id="Rectangle-32" fill="#FFC552" x="104" y="328" width="96" height="8"></rect>
                        <path d="M96,328 C96,332.418278 99.581722,336 104,336 L104,328 L96,328 Z" id="Combined-Shape-Copy-2" fill="#FFC552"></path>
                        <path d="M200,328 C200,332.418278 203.581722,336 208,336 L208,328 L200,328 Z" id="Combined-Shape-Copy-3" fill="#FFC552" transform="translate(204.000000, 332.000000) scale(-1, 1) translate(-204.000000, -332.000000) "></path>
                        <polygon id="Rectangle-10" fill="#34A362" points="144 16 208 24 144 40"></polygon>
                        <polygon id="Rectangle-33" fill="#186D51" points="144 16 160 0 160 24 144 40"></polygon>
                        <polygon id="Rectangle-33" fill="#34A362" points="120 8 160 0 160 24 120 32"></polygon>
                        <rect id="Rectangle-31" fill="#844840" x="104" y="56" width="40" height="8"></rect>
                        <rect id="Rectangle-31" fill="#FFC552" x="104" y="56" width="40" height="4"></rect>
                        <rect id="Rectangle-31" fill="#844840" x="110" y="80" width="28" height="8"></rect>
                        <rect id="Rectangle-31" fill="#844840" x="120" y="88" width="8" height="8"></rect>
                        <rect id="Rectangle-31" fill="#FFC552" x="110" y="80" width="28" height="4"></rect>
                    </g>
                </g>
            </g>
        </g>
    </g>
</svg>