<svg width="384" height="396" xmlns="http://www.w3.org/2000/svg" xmlns:xlink="http://www.w3.org/1999/xlink"><defs><path d="M208 40H96C96 17.909 78.091 0 56 0H.664C4.472 22.702 24.216 40 48 40c13.255 0 24 10.745 24 24 0 11.657-3.117 22.586-8.562 32H240c22.091 0 40-17.909 40-40 .206-8.108-1.235-14.822-4.324-20.14-4.634-7.977-5.156-10.832-5.143-17.227.014-6.396 6.624-14.899 13.583-16.633L232 16l-.422 2.11C217.677 21.87 208 30.256 208 40z" id="a"/></defs><g transform="matrix(-1 0 0 1 360 16)" fill="none" fill-rule="evenodd"><path d="M52.203 155.021c34.212 2.254 58.46-18.793 72.74-63.142C147.54 112.419 168.56 111.126 188 88c28.55 62.466 74.883 123.133 139 182l-66.5-9.89" stroke="#FFC552" stroke-width="8" stroke-linecap="round"/><path fill="#844840" d="M96 296h40v16H96z"/><path fill="#844840" d="M80 288h40v16H80z"/><path d="M152 328c0-26.51-21.49-48-48-48v8c22.091 0 40 17.909 40 40h8z" fill="#F09F2E"/><path d="M8 288a8 8 0 0 1 8-8h88a8 8 0 0 1 8 8m-24 16h56v24H88z" fill="#A1674F"/><path d="M104 328c0-26.51-21.49-48-48-48v8c22.091 0 40 17.909 40 40h8z" fill="#FFC552"/><path d="M227.276 313.202l32.224-52.8C234.167 224.264 210.333 166.796 188 88" stroke="#FFC552" stroke-width="8" stroke-linecap="round"/><path d="M290 324c-5.017-7.562-13.467-11.553-13.467-20.367 0-8.815 6.624-12.899 13.583-14.633L248 296l-24 88h32c22.091 0 40-17.909 40-40 .206-8.108-1.575-13.331-6-20z" fill="#844840"/><g fill="#844840"><path d="M63.898 354H86l-3 34H51z"/><path d="M55.438 384a63.657 63.657 0 0 0 8.53-29.94C51.207 358.584 41.755 370.1 40.22 384h15.218z"/></g><g transform="translate(0 288)"><mask id="b" fill="#fff"><use xlink:href="#a"/></mask><use fill="#A1674F" xlink:href="#a"/><path fill="#8C5A46" mask="url(#b)" d="M64 80h216v8H64zm0-16h216v8H64zm0-16h224v8H64zm144-16h72v8h-72zm0-16h72v8h-72zM-8 32H96v8H-8zm0-16H96v8H-8zm0-16H96v8H-8z"/></g><path d="M232 305.997v-8.019c-18.682 4.514-32 16.252-32 30.022h8c0-9.842 9.873-18.3 24-22.003z" fill="#FFC552"/><path d="M0 280a8 8 0 0 1 8-8h88a8 8 0 0 1 8 8" fill="#844840"/><circle fill="#FFC552" cx="112" cy="352" r="8"/><circle fill="#3E3C5C" cx="112" cy="352" r="4"/><circle fill="#FFC552" cx="136" cy="352" r="8"/><circle fill="#3E3C5C" cx="136" cy="352" r="4"/><circle fill="#FFC552" cx="160" cy="352" r="8"/><circle fill="#3E3C5C" cx="160" cy="352" r="4"/><circle fill="#FFC552" cx="184" cy="352" r="8"/><circle fill="#3E3C5C" cx="184" cy="352" r="4"/><path fill="#A1674F" d="M120 8h8v296h-8z"/><path fill="#A1674F" d="M104 56h20v32h-12zm40 0h-20v32h12z"/><path fill="#844840" d="M120 176h8v104h-8z"/><path fill="#A1674F" d="M48 152h8v136h-8z"/><circle fill="#A1674F" cx="52" cy="152" r="4"/><path fill="#844840" d="M48 248h8v8h-8z"/><path d="M40.08 112c-27.824 32.842-30.49 78.176-8 136h64c-42.667-45.333-61.333-90.667-56-136z" fill="#FFF"/><path d="M.664 288A48.325 48.325 0 0 1 0 280h56v8H.664z" fill="#FFC552"/><path fill="#A1674F" d="M184 80h8v248h-8z"/><circle fill="#A1674F" cx="188" cy="78" r="4"/><path fill="#844840" d="M184 208h8v104h-8z"/><path d="M335.384 272.154L232 298v8l110.265-27.566a1026.72 1026.72 0 0 1-6.881-6.28z" fill="#FFC552"/><path d="M112 224c0-16.696-8.524-31.4-21.458-40h-16C87.476 192.6 96 207.304 96 224h16z" fill="#FF8A62"/><path d="M112 224c0 16.696-8.524 31.4-21.458 40h-16C87.476 255.4 96 240.696 96 224h16z" fill="#F15F55"/><path d="M112 224c0 16.696-8.524 31.4-21.458 40h-16C87.476 255.4 96 240.696 96 224h16z" fill="#F15F55"/><path d="M144 224c0-16.696-8.524-31.4-21.458-40h-16C119.476 192.6 128 207.304 128 224h16z" fill="#FF8A62"/><path d="M144 224c0 16.696-8.524 31.4-21.458 40h-16C119.476 255.4 128 240.696 128 224h16z" fill="#F15F55"/><path d="M128 224c0-16.696-8.524-31.4-21.458-40h-16C103.476 192.6 112 207.304 112 224h16z" fill="#FFF"/><path d="M128 224c0 16.696-8.524 31.4-21.458 40h-16C103.476 255.4 112 240.696 112 224h16z" fill="#D5E9F6"/><path d="M176 224c0-16.696-8.524-31.4-21.458-40h-16C151.476 192.6 160 207.304 160 224h16z" fill="#FF8A62"/><path d="M176 224c0 16.696-8.524 31.4-21.458 40h-16C151.476 255.4 160 240.696 160 224h16z" fill="#F15F55"/><path d="M160 224c0-16.696-8.524-31.4-21.458-40h-16C135.476 192.6 144 207.304 144 224h16z" fill="#FFF"/><path d="M160 224c0 16.696-8.524 31.4-21.458 40h-16C135.476 255.4 144 240.696 144 224h16z" fill="#D5E9F6"/><path d="M112 136c0-16.696-8.524-31.4-21.458-40h-16C87.476 104.6 96 119.304 96 136h16z" fill="#FF8A62"/><path d="M112 136c0 16.696-8.524 31.4-21.458 40h-16C87.476 167.4 96 152.696 96 136h16z" fill="#F15F55"/><path d="M112 136c0 16.696-8.524 31.4-21.458 40h-16C87.476 167.4 96 152.696 96 136h16z" fill="#F15F55"/><path d="M144 136c0-16.696-8.524-31.4-21.458-40h-16C119.476 104.6 128 119.304 128 136h16z" fill="#FF8A62"/><path d="M144 136c0 16.696-8.524 31.4-21.458 40h-16C119.476 167.4 128 152.696 128 136h16z" fill="#F15F55"/><path d="M128 136c0-16.696-8.524-31.4-21.458-40h-16C103.476 104.6 112 119.304 112 136h16z" fill="#FFF"/><path d="M128 136c0 16.696-8.524 31.4-21.458 40h-16C103.476 167.4 112 152.696 112 136h16z" fill="#D5E9F6"/><path d="M176 136c0-16.696-8.524-31.4-21.458-40h-16C151.476 104.6 160 119.304 160 136h16z" fill="#FF8A62"/><path d="M176 136c0 16.696-8.524 31.4-21.458 40h-16C151.476 167.4 160 152.696 160 136h16z" fill="#F15F55"/><path d="M160 136c0-16.696-8.524-31.4-21.458-40h-16C135.476 104.6 144 119.304 144 136h16z" fill="#FFF"/><path d="M160 136c0 16.696-8.524 31.4-21.458 40h-16C135.476 167.4 144 152.696 144 136h16z" fill="#D5E9F6"/><path d="M175 256c0-16.696-8.524-31.4-21.458-40h-16C150.476 224.6 159 239.304 159 256h16z" fill="#FF8A62"/><path d="M175 256c0 16.696-8.524 31.4-21.458 40h-16C150.476 287.4 159 272.696 159 256h16z" fill="#F15F55"/><path d="M175 256c0 16.696-8.524 31.4-21.458 40h-16C150.476 287.4 159 272.696 159 256h16z" fill="#F15F55"/><path d="M207 256c0-16.696-8.524-31.4-21.458-40h-16C182.476 224.6 191 239.304 191 256h16z" fill="#FF8A62"/><path d="M207 256c0 16.696-8.524 31.4-21.458 40h-16C182.476 287.4 191 272.696 191 256h16z" fill="#F15F55"/><path d="M191 256c0-16.696-8.524-31.4-21.458-40h-16C166.476 224.6 175 239.304 175 256h16z" fill="#FFF"/><path d="M191 256c0 16.696-8.524 31.4-21.458 40h-16C166.476 287.4 175 272.696 175 256h16z" fill="#D5E9F6"/><path d="M239 256c0-16.696-8.524-31.4-21.458-40h-16C214.476 224.6 223 239.304 223 256h16z" fill="#FF8A62"/><path d="M239 256c0 16.696-8.524 31.4-21.458 40h-16C214.476 287.4 223 272.696 223 256h16z" fill="#F15F55"/><path d="M223 256c0-16.696-8.524-31.4-21.458-40h-16C198.476 224.6 207 239.304 207 256h16z" fill="#FFF"/><path d="M223 256c0 16.696-8.524 31.4-21.458 40h-16C198.476 287.4 207 272.696 207 256h16z" fill="#D5E9F6"/><path d="M240 168c0-16.696-8.524-31.4-21.458-40h-80C151.476 136.6 160 151.304 160 168h80z" fill="#3E3C5C"/><path d="M240 168c0 16.696-8.524 31.4-21.458 40h-80C151.476 199.4 160 184.696 160 168h80z" fill="#2F3242"/><path d="M201 178c11.046 0 20-.954 20-12s-8.954-20-20-20-20 8.954-20 20 8.954 12 20 12z" fill="#FFF"/><circle fill="#3E3C5C" cx="193" cy="158" r="4"/><circle fill="#3E3C5C" cx="209" cy="158" r="4"/><path fill="#FFF" d="M189 170h24v16h-24z"/><path fill="#FFC552" d="M104 328h96v8h-96zm-8 0a8 8 0 0 0 8 8v-8h-8zm112 0a8 8 0 0 1-8 8v-8h8z"/><path fill="#34A362" d="M144 16l64 8-64 16z"/><path fill="#186D51" d="M144 16l16-16v24l-16 16z"/><path fill="#34A362" d="M120 8l40-8v24l-40 8z"/><path fill="#844840" d="M104 56h40v8h-40z"/><path fill="#FFC552" d="M104 56h40v4h-40z"/><path fill="#844840" d="M110 80h28v8h-28zm10 8h8v8h-8z"/><path fill="#FFC552" d="M110 80h28v4h-28z"/></g></svg>