<?xml version="1.0" encoding="UTF-8" standalone="no"?>
<svg width="400px" height="16px" viewBox="0 0 400 16" version="1.1" xmlns="http://www.w3.org/2000/svg" xmlns:xlink="http://www.w3.org/1999/xlink">
    <!-- Generator: Sketch 47.1 (45422) - http://www.bohemiancoding.com/sketch -->
    <title>Combined Shape</title>
    <desc>Created with Sketch.</desc>
    <defs></defs>
    <g id="landing-page" stroke="none" stroke-width="1" fill="none" fill-rule="evenodd">
        <g id="Serious-Monket-Teasing-Page-mobile-updated-Copy" transform="translate(-29.000000, -541.000000)" fill="#FFFFFF">
            <path d="M329.000003,553.185781 L328.999976,548.999992 C296.430682,543.734927 263.030091,541 229.000013,541 C194.969927,541 161.569328,543.734928 129,549 L129.000027,557 L329.000027,557 L329.000003,553.185781 L329,557 C418.353394,557 451.686732,557 429.000013,557 C394.969927,557 361.569328,554.265072 329,549 L329.000009,544 L329.000003,553.185781 Z M128.890655,557 C39.5372728,557 6.20394386,557 28.8906681,557 C62.9207461,557 96.3213371,554.265073 128.890631,549.000008 L128.890648,544 L128.890655,557 Z" id="Combined-Shape"></path>
        </g>
    </g>
</svg>