<svg width="108" height="56" xmlns="http://www.w3.org/2000/svg"><g fill="none" fill-rule="evenodd"><g transform="translate(.7 -.2)"><rect fill="#A1674F" x="1.3" y="30.2" width="6" height="13.5" rx="3"/><path d="M4.178 16.459a4.5 4.5 0 0 0 3.482 7.35 1.5 1.5 0 0 1-.001 3 7.5 7.5 0 0 1-5.806-12.245 1.5 1.5 0 0 0 2.265 1.954l.06-.059z" fill="#844840" fill-rule="nonzero"/><path d="M7.3 15.2a4.48 4.48 0 0 0-3.182 1.318 1.5 1.5 0 0 1-2.121-2.121A7.48 7.48 0 0 1 7.3 12.2h12c.076 0 .15.006.223.016a4.5 4.5 0 1 0-3.652-7.658 1.5 1.5 0 1 1-2.121-2.12 7.5 7.5 0 1 1 5.31 12.803 1.49 1.49 0 0 1-.35-.041H7.3z" fill="#A1674F" fill-rule="nonzero"/><path d="M24.855 33.126A7.502 7.502 0 0 0 23.8 18.2h-12a7.5 7.5 0 0 0-4.5 13.5 3 3 0 1 1 6 0v1.5h6.401a2.999 2.999 0 0 1 5.154-.074z" fill="#A1674F"/><path d="M25.3 36.35a7.5 7.5 0 0 0-1.5-14.85h-12A7.5 7.5 0 0 0 7.3 35v-.3a3 3 0 0 1 6 0v1.8h6v-1.8a3 3 0 0 1 6 0v1.65z" fill="#844840"/><path d="M13.3 37.55a7.503 7.503 0 0 0 6-7.35V29a7.5 7.5 0 0 0-15 0v1.2a7.489 7.489 0 0 0 3 6v-1.5a3 3 0 0 1 6 0v2.85z" fill="#A1674F"/><rect fill="#A1674F" x="6.4" y="18.2" width="18" height="10.5" rx="5.25"/><path fill="#A1674F" d="M21.7 20.3h4.8v1.5h-4.8z"/><path d="M13.224 34.027a4.51 4.51 0 0 0 .076-.827v-3a4.5 4.5 0 1 0-9 0v3a4.502 4.502 0 0 0 3 4.244V34.7a3 3 0 0 1 5.924-.673z" fill="#844840"/><path fill="#844840" d="M7.3 25.7h1.5v2.1H7.3z"/><rect fill="#844840" x="25.3" y="27.5" width="6" height="12.9" rx="3"/><rect fill="#A1674F" transform="scale(1 -1) rotate(-30 -119.138 0)" x="24.448" y="34.477" width="6" height="9.6" rx="3"/><g transform="translate(12.1 21.8)"><rect fill="#844840" transform="rotate(-31 7.218 22.125)" x="4.218" y="13.275" width="6" height="17.7" rx="3"/><rect fill="#A1674F" x="7.2" y="24.6" width="6" height="9.3" rx="3"/><rect fill="#A1674F" x="1.2" y=".9" width="3" height="17.1" rx="1.5"/><rect fill="#844840" x="4.2" y="6.9" width="3" height="13.2" rx="1.5"/><path d="M12.3 0h3.9v8.1h-12A8.1 8.1 0 0 1 12.3 0z" fill="#844840"/></g><rect fill="#844840" x="4.3" y="25.7" width="6" height="12" rx="3"/><g transform="translate(24.1 18.2)"><circle fill="#844840" cx="5.4" cy="5.4" r="5.4"/><path d="M3.6.307a5.402 5.402 0 0 1 0 10.186A5.402 5.402 0 0 1 3.6.307z" fill="#A1674F"/></g><path d="M31 21.8h-2.1a1.206 1.206 0 0 0-1.106 1.667c.052.129.14.264.257.382l1.485 1.484L31 23.87V21.8z" fill="#FFC552"/><path d="M31 21.8h2.1a1.206 1.206 0 0 1 1.106 1.667c-.052.129-.14.264-.257.382l-1.485 1.484L31 23.87V21.8z" fill="#F09F2E"/><path d="M31 23a2.1 2.1 0 0 0-2.1 2.1v.3a2.1 2.1 0 0 0 4.2 0v-.3A2.1 2.1 0 0 0 31 23zm-5.1 1.2a1.2 1.2 0 1 1 0-2.4.3.3 0 0 1 .3.3v1.8a.3.3 0 0 1-.3.3z" fill="#FFC552"/><path d="M34.3 21.8a1.2 1.2 0 1 1 0 2.4v-2.4z" fill="#844840"/></g><path d="M49.228 29.86c-.753-.193-1.372-.46-1.856-.8a1.43 1.43 0 0 1-.404-.446c-.083-.154-.124-.352-.124-.594 0-.33.099-.616.297-.858.198-.242.429-.363.693-.363.143 0 .28.022.412.066.133.044.297.126.495.248.452.253.9.434 1.345.544.446.11.949.165 1.51.165.649 0 1.141-.096 1.477-.289.335-.192.503-.475.503-.85 0-.253-.157-.47-.47-.651-.314-.182-.91-.36-1.79-.537-1.09-.23-1.942-.505-2.558-.825-.616-.319-1.048-.695-1.295-1.13-.248-.434-.371-.96-.371-1.575 0-.705.208-1.342.627-1.915.418-.572.992-1.02 1.724-1.344.731-.325 1.553-.487 2.467-.487.803 0 1.517.088 2.145.264a5.387 5.387 0 0 1 1.715.825c.199.143.339.294.421.454.083.16.124.354.124.585 0 .33-.096.616-.289.858-.192.243-.42.364-.684.364a1.3 1.3 0 0 1-.396-.058 2.697 2.697 0 0 1-.512-.256 15.8 15.8 0 0 0-.47-.256 3.808 3.808 0 0 0-.908-.33 4.875 4.875 0 0 0-1.13-.123c-.561 0-1.012.107-1.353.321-.341.215-.511.498-.511.85 0 .209.06.38.181.512s.346.26.676.387c.33.127.82.256 1.469.388 1.056.231 1.886.509 2.492.833.605.325 1.033.701 1.286 1.13.254.43.38.935.38 1.518 0 .727-.203 1.367-.61 1.923-.408.555-.977.984-1.708 1.287-.732.302-1.581.453-2.55.453a9.88 9.88 0 0 1-2.45-.288zm16.055-2.17c.16.198.239.456.239.775 0 .44-.214.776-.644 1.007a6.428 6.428 0 0 1-1.328.47 5.91 5.91 0 0 1-1.41.19c-.903 0-1.689-.17-2.36-.512a3.638 3.638 0 0 1-1.551-1.468c-.363-.638-.544-1.386-.544-2.244 0-.814.173-1.543.52-2.186a3.742 3.742 0 0 1 1.451-1.502c.622-.357 1.323-.536 2.104-.536.759 0 1.424.165 1.997.495.572.33 1.014.797 1.328 1.402.313.606.47 1.315.47 2.129 0 .253-.058.448-.173.586-.116.137-.283.206-.504.206h-4.355c.077.528.247.907.511 1.139.264.23.654.346 1.172.346.275 0 .527-.03.758-.09.232-.061.49-.146.776-.256.165-.067.327-.124.487-.174.16-.05.305-.074.437-.074.253 0 .46.099.619.297zm-4.364-3.655c-.232.248-.369.608-.413 1.081h2.59c-.066-.968-.483-1.452-1.253-1.452-.386 0-.693.124-.925.371zm12.011-2.062c.22.203.33.503.33.899 0 .44-.101.759-.305.957-.203.198-.569.324-1.097.38l-.495.049c-.55.066-.943.24-1.18.52-.236.28-.355.662-.355 1.146v2.822c0 .451-.14.79-.42 1.015-.28.225-.63.338-1.048.338-.418 0-.767-.113-1.048-.338-.28-.226-.42-.564-.42-1.015v-5.709c0-.418.14-.742.42-.973a1.54 1.54 0 0 1 1.015-.347c.407 0 .734.11.982.33.247.22.371.528.371.924v.314c.176-.485.465-.858.866-1.122a2.497 2.497 0 0 1 1.262-.43l.231-.016c.375-.033.671.052.891.256zm1.296 7.788c-.28-.226-.421-.564-.421-1.015V23.07c0-.451.14-.79.42-1.015.281-.225.63-.338 1.049-.338.418 0 .767.113 1.047.338.28.226.421.564.421 1.015v5.676c0 .451-.14.79-.42 1.015-.281.225-.63.338-1.049.338-.418 0-.767-.113-1.047-.338zm-.132-9.587c-.292-.258-.438-.602-.438-1.031 0-.429.146-.77.438-1.023.291-.253.684-.38 1.18-.38.484 0 .874.127 1.171.38.297.253.446.594.446 1.023 0 .429-.146.773-.438 1.031-.291.259-.684.388-1.18.388-.495 0-.888-.13-1.18-.388zm6.088 9.438a3.73 3.73 0 0 1-1.567-1.476c-.369-.639-.553-1.386-.553-2.244 0-.859.184-1.604.553-2.236a3.704 3.704 0 0 1 1.559-1.46c.671-.342 1.457-.512 2.36-.512.902 0 1.688.17 2.359.511.671.342 1.19.828 1.56 1.46.368.633.552 1.378.552 2.236 0 .859-.184 1.606-.553 2.245a3.742 3.742 0 0 1-1.559 1.476c-.671.347-1.457.52-2.36.52-.89 0-1.674-.173-2.35-.52zm3.919-3.72c0-1.365-.522-2.046-1.567-2.046-1.046 0-1.568.681-1.568 2.046 0 1.364.522 2.046 1.568 2.046 1.045 0 1.567-.682 1.567-2.046zm12.028-3.812c.265.242.396.572.396.99v5.709c0 .385-.137.701-.412.949-.275.247-.632.371-1.073.371-.396 0-.72-.107-.973-.322-.253-.214-.385-.503-.396-.866a2.582 2.582 0 0 1-.965.907c-.39.21-.839.314-1.345.314-1.045 0-1.82-.289-2.327-.866-.506-.578-.759-1.455-.759-2.632V23.07c0-.418.132-.748.396-.99.265-.242.622-.363 1.073-.363.451 0 .808.121 1.073.363.264.242.396.572.396.99v3.63c0 .792.34 1.188 1.023 1.188.396 0 .72-.143.973-.429.253-.286.38-.66.38-1.122V23.07c0-.418.131-.748.395-.99.265-.242.622-.363 1.073-.363.451 0 .808.121 1.072.363zm3.449 7.887a4.143 4.143 0 0 1-1.337-.528.803.803 0 0 1-.362-.396 1.455 1.455 0 0 1-.133-.627c0-.297.08-.542.24-.734a.75.75 0 0 1 .602-.289c.165 0 .319.02.462.058.143.038.319.101.528.19.352.12.663.214.932.28.27.066.613.099 1.031.099.298 0 .531-.041.702-.124.17-.082.256-.2.256-.355a.339.339 0 0 0-.124-.28c-.083-.066-.24-.13-.47-.19-.232-.06-.622-.145-1.172-.256-.979-.187-1.686-.47-2.12-.85-.435-.379-.652-.915-.652-1.608 0-.506.157-.962.47-1.37.314-.407.745-.725 1.296-.956.55-.232 1.165-.347 1.847-.347.496 0 .977.06 1.444.181.468.122.883.292 1.246.512.341.198.511.517.511.957 0 .308-.082.566-.247.776-.165.209-.368.313-.61.313-.287 0-.627-.093-1.024-.28a5.44 5.44 0 0 0-.7-.273 2.531 2.531 0 0 0-.719-.09c-.275 0-.489.04-.643.123-.154.083-.231.201-.231.355 0 .176.107.313.322.413.214.099.64.208 1.278.33 1.068.187 1.821.47 2.261.85.44.379.66.926.66 1.641 0 .803-.333 1.444-.998 1.922-.666.479-1.56.718-2.681.718-.738 0-1.359-.055-1.865-.165zm-40.92.73c.264.276.396.633.396 1.073v8.976c0 .418-.121.748-.363.99s-.561.363-.957.363c-.385 0-.701-.121-.949-.363-.247-.242-.371-.572-.371-.99v-4.851l-1.881 3.465c-.187.352-.385.602-.594.75a1.248 1.248 0 0 1-.742.224c-.287 0-.534-.075-.743-.223-.209-.149-.407-.399-.594-.751l-1.864-3.366v4.752c0 .407-.124.734-.372.982-.247.247-.569.371-.965.371-.385 0-.701-.121-.949-.363-.247-.242-.371-.572-.371-.99V31.77c0-.44.135-.797.404-1.072.27-.276.613-.413 1.032-.413.297 0 .566.085.808.256.242.17.445.415.61.734l3.037 5.709 3.019-5.709c.341-.66.803-.99 1.386-.99.418 0 .759.137 1.023.413zm4.084 10.915a3.73 3.73 0 0 1-1.568-1.477c-.368-.638-.553-1.385-.553-2.243 0-.859.185-1.604.553-2.236a3.704 3.704 0 0 1 1.56-1.46c.67-.342 1.457-.512 2.359-.512.902 0 1.688.17 2.36.512.67.34 1.19.827 1.559 1.46.368.632.552 1.377.552 2.236 0 .858-.184 1.605-.552 2.243a3.742 3.742 0 0 1-1.56 1.477c-.67.347-1.457.52-2.359.52-.891 0-1.675-.173-2.351-.52zm3.919-3.72c0-1.365-.523-2.047-1.568-2.047s-1.568.682-1.568 2.047c0 1.364.523 2.045 1.568 2.045s1.567-.681 1.567-2.045zm11.863-3.342c.473.578.71 1.455.71 2.632v3.564c0 .418-.132.748-.396.99-.265.242-.622.363-1.073.363-.451 0-.808-.121-1.073-.363-.264-.242-.395-.572-.395-.99v-3.432c0-.484-.086-.836-.256-1.056-.17-.22-.426-.33-.767-.33-.44 0-.79.14-1.048.42-.259.281-.388.658-.388 1.131v3.267c0 .418-.132.748-.396.99s-.621.363-1.072.363c-.452 0-.809-.121-1.073-.363-.264-.242-.396-.572-.396-.99v-5.709c0-.385.137-.701.413-.949.275-.247.632-.371 1.072-.371.418 0 .75.115.998.346.248.232.371.534.371.908a2.814 2.814 0 0 1 1.106-.957c.451-.22.951-.33 1.501-.33.969 0 1.689.289 2.162.866zm10.89 6.13c0 .363-.13.687-.388.974a1.211 1.211 0 0 1-.932.428c-.308 0-.616-.137-.924-.412l-3.35-3.184v2.227c0 .451-.14.792-.42 1.023-.28.231-.63.347-1.048.347-.418 0-.767-.116-1.048-.347-.28-.231-.42-.572-.42-1.023v-9.059c0-.45.14-.791.42-1.023.28-.23.63-.346 1.048-.346.418 0 .767.115 1.048.346.28.232.42.572.42 1.023v5.594l3.053-3.102c.275-.286.594-.429.957-.429.352 0 .663.135.932.404.27.27.404.575.404.916 0 .341-.142.654-.428.94l-1.799 1.783 2.046 1.963c.286.275.429.594.429.957zm8.258-.99c.16.198.24.456.24.776 0 .44-.215.775-.644 1.006a6.428 6.428 0 0 1-1.328.47 5.91 5.91 0 0 1-1.411.19c-.902 0-1.688-.17-2.36-.511a3.638 3.638 0 0 1-1.55-1.469c-.364-.638-.545-1.386-.545-2.244 0-.814.173-1.543.52-2.186a3.742 3.742 0 0 1 1.452-1.502c.621-.357 1.322-.536 2.103-.536.76 0 1.425.165 1.997.495.572.33 1.015.797 1.328 1.402.314.606.47 1.315.47 2.129 0 .253-.057.448-.173.586-.115.137-.283.206-.503.206h-4.356c.077.528.247.907.511 1.139.265.23.655.346 1.172.346.275 0 .528-.03.759-.09.231-.061.49-.146.775-.256a6.53 6.53 0 0 1 .487-.174c.16-.05.305-.074.438-.074.253 0 .459.099.618.297zm-4.364-3.655c-.231.248-.368.608-.413 1.081h2.591c-.066-.968-.484-1.452-1.254-1.452-.385 0-.693.124-.924.371zm11.896-2.103c.21-.133.44-.199.694-.199.363 0 .687.121.973.364.286.242.429.533.429.874 0 .187-.044.368-.132.545l-4.373 8.761a1.403 1.403 0 0 1-.52.61 1.313 1.313 0 0 1-.7.199c-.364 0-.685-.119-.966-.355-.28-.237-.42-.525-.42-.867 0-.187.049-.379.148-.577l1.072-2.161-2.805-5.61a1.326 1.326 0 0 1-.132-.529c0-.352.154-.651.463-.899a1.617 1.617 0 0 1 1.039-.371c.264 0 .509.069.734.206.226.138.399.344.52.619l1.749 3.795 1.733-3.795c.12-.275.285-.478.495-.61z" fill="#FFF"/></g></svg>