<?xml version="1.0" encoding="UTF-8" standalone="no"?>
<svg width="108px" height="56px" viewBox="0 0 108 56" version="1.1" xmlns="http://www.w3.org/2000/svg" xmlns:xlink="http://www.w3.org/1999/xlink">
    <!-- Generator: Sketch 47.1 (45422) - http://www.bohemiancoding.com/sketch -->
    <title>serious-monkey-logo</title>
    <desc>Created with Sketch.</desc>
    <defs></defs>
    <g id="landing-page" stroke="none" stroke-width="1" fill="none" fill-rule="evenodd">
        <g id="Serious-Monkey-Landing-Page" transform="translate(-105.000000, -66.000000)">
            <g id="header" transform="translate(88.000000, 48.000000)">
                <g id="serious-monkey-logo" transform="translate(4.000000, 12.000000)">
                    <rect id="Rectangle-18" fill="#D8D8D8" opacity="0" x="0" y="0" width="132" height="72"></rect>
                    <g id="logo" transform="translate(13.000000, 5.000000)">
                        <g id="monkey" transform="translate(0.700000, 0.800000)">
                            <rect id="Rectangle-2-Copy-3" fill="#A1674F" x="1.3" y="30.2" width="6" height="13.5" rx="3"></rect>
                            <path d="M4.17817654,16.4589569 C2.7287764,18.2265806 2.829258,20.8399169 4.47962132,22.4902803 C5.33553291,23.3461918 6.47330636,23.807841 7.65984867,23.8082994 C8.48827573,23.8086195 9.15958909,24.4804518 9.15926902,25.3088788 C9.15894895,26.1373059 8.48711666,26.8086192 7.65868959,26.8082992 C5.68478072,26.8075365 3.78231594,26.0356156 2.35830097,24.6116006 C-0.391027991,21.8622716 -0.559617877,17.509477 1.85253131,14.5634978 C1.41567516,15.1507977 1.4637311,15.9850514 1.99669914,16.5180195 C2.58248558,17.1038059 3.53223305,17.1038059 4.11801948,16.5180195 C4.13792043,16.4981185 4.15797376,16.4784307 4.17817654,16.4589569 L4.17817654,16.4589569 Z" id="Combined-Shape" fill="#844840" fill-rule="nonzero"></path>
                            <path d="M7.3,15.2 C6.11285197,15.2 4.97436264,15.6616763 4.11801948,16.5180195 C3.53223305,17.1038059 2.58248558,17.1038059 1.99669914,16.5180195 C1.4109127,15.932233 1.4109127,14.9824856 1.99669914,14.3966991 C3.4214343,12.971964 5.32508996,12.2 7.3,12.2 L19.3,12.2 C19.3757724,12.2 19.4502325,12.2056183 19.5229866,12.2164611 C20.5377809,12.1111661 21.4926083,11.6653357 22.2352434,10.9227006 C23.9926027,9.16534128 23.9926027,6.31609887 22.2352434,4.55873956 C20.4778841,2.80138025 17.6286417,2.80138025 15.8712824,4.55873956 C15.285496,5.144526 14.3357485,5.144526 13.7499621,4.55873956 C13.1641756,3.97295312 13.1641756,3.02320565 13.7499621,2.43741922 C16.6788942,-0.491512973 21.4276316,-0.491512973 24.3565638,2.43741922 C27.285496,5.3663514 27.285496,10.1150887 24.3565638,13.0440209 C22.933312,14.4672727 21.032109,15.2391477 19.0592614,15.2407177 C18.938831,15.2408135 18.8217041,15.2267143 18.7094632,15.2 L7.3,15.2 L7.3,15.2 Z" id="Combined-Shape" fill="#A1674F" fill-rule="nonzero"></path>
                            <path d="M24.8546767,33.1264245 C28.497441,32.6137583 31.3,29.4841655 31.3,25.7 C31.3,21.5578644 27.9421356,18.2 23.8,18.2 L11.8,18.2 C7.65786438,18.2 4.3,21.5578644 4.3,25.7 C4.3,28.1537267 5.47832995,30.3322398 7.3,31.7005493 C7.3,30.0431458 8.64314575,28.7 10.3,28.7 C11.9568542,28.7 13.3,30.0431458 13.3,31.7 L13.3,33.2 L19.7013466,33.2 C20.2200607,32.3032979 21.1895765,31.7 22.3,31.7 C23.3797735,31.7 24.3263106,32.270453 24.8546767,33.1264245 L24.8546767,33.1264245 Z" id="Combined-Shape" fill="#A1674F"></path>
                            <path d="M25.3,36.3499728 C28.7233605,35.6550673 31.3,32.6284369 31.3,29 C31.3,24.8578644 27.9421356,21.5 23.8,21.5 L11.8,21.5 C7.65786438,21.5 4.3,24.8578644 4.3,29 C4.3,31.4537267 5.47832995,33.6322398 7.3,35.0005493 L7.3,34.7 C7.3,33.0431458 8.64314575,31.7 10.3,31.7 C11.9568542,31.7 13.3,33.0431458 13.3,34.7 L13.3,36.5 L19.3,36.5 L19.3,34.7 C19.3,33.0431458 20.6431458,31.7 22.3,31.7 C23.9568542,31.7 25.3,33.0431458 25.3,34.7 L25.3,36.3499728 L25.3,36.3499728 Z" id="Combined-Shape" fill="#844840"></path>
                            <path d="M13.3,37.5499728 C16.7233605,36.8550673 19.3,33.8284369 19.3,30.2 L19.3,29 C19.3,24.8578644 15.9421356,21.5 11.8,21.5 C7.65786438,21.5 4.3,24.8578644 4.3,29 L4.3,30.2 C4.3,32.6537267 5.47832995,34.8322398 7.3,36.2005493 L7.3,34.7 C7.3,33.0431458 8.64314575,31.7 10.3,31.7 C11.9568542,31.7 13.3,33.0431458 13.3,34.7 L13.3,37.5499728 L13.3,37.5499728 Z" id="Combined-Shape" fill="#A1674F"></path>
                            <rect id="Rectangle-3" fill="#A1674F" x="6.4" y="18.2" width="18" height="10.5" rx="5.25"></rect>
                            <rect id="Rectangle-6" fill="#A1674F" x="21.7" y="20.3" width="4.8" height="1.5"></rect>
                            <path d="M13.2241919,34.0268914 C13.273975,33.7588507 13.3,33.4824646 13.3,33.2 L13.3,30.2 C13.3,27.7147186 11.2852814,25.7 8.8,25.7 C6.31471863,25.7 4.3,27.7147186 4.3,30.2 L4.3,33.2 C4.3,35.1593282 5.55221144,36.8261868 7.3,37.4439414 L7.3,34.7 C7.3,33.0431458 8.64314575,31.7 10.3,31.7 C11.7254292,31.7 12.9186655,32.6941361 13.2241919,34.0268914 L13.2241919,34.0268914 Z" id="Combined-Shape" fill="#844840"></path>
                            <rect id="Rectangle-7" fill="#844840" x="7.3" y="25.7" width="1.5" height="2.1"></rect>
                            <rect id="Rectangle-2-Copy" fill="#844840" x="25.3" y="27.5" width="6" height="12.9" rx="3"></rect>
                            <rect id="Rectangle-2-Copy" fill="#A1674F" transform="translate(27.448076, 39.277499) scale(1, -1) rotate(-30.000000) translate(-27.448076, -39.277499) " x="24.4480762" y="34.4774991" width="6" height="9.6" rx="3"></rect>
                            <g id="Group-5" transform="translate(12.100000, 21.800000)">
                                <rect id="Rectangle-2-Copy" fill="#844840" transform="translate(7.218084, 22.124613) rotate(-31.000000) translate(-7.218084, -22.124613) " x="4.21808354" y="13.2746134" width="6" height="17.7" rx="3"></rect>
                                <rect id="Rectangle-2-Copy" fill="#A1674F" x="7.2" y="24.6" width="6" height="9.3" rx="3"></rect>
                                <rect id="Rectangle-2" fill="#A1674F" x="1.2" y="0.9" width="3" height="17.1" rx="1.5"></rect>
                                <rect id="Rectangle-2" fill="#844840" x="4.2" y="6.9" width="3" height="13.2" rx="1.5"></rect>
                                <path d="M12.3,0 L16.2,0 L16.2,8.1 L4.2,8.1 L4.2,8.1 L4.2,8.1 C4.2,3.62649353 7.82649353,8.21769808e-16 12.3,0 Z" id="Rectangle-3" fill="#844840"></path>
                            </g>
                            <rect id="Rectangle-2-Copy-3" fill="#844840" x="4.3" y="25.7" width="6" height="12" rx="3"></rect>
                            <g id="head" transform="translate(24.100000, 18.200000)">
                                <g id="Group-4">
                                    <circle id="Oval-2" fill="#844840" cx="5.4" cy="5.4" r="5.4"></circle>
                                    <path d="M3.6,0.307270274 C5.69734627,1.04857581 7.2,3.04880611 7.2,5.4 C7.2,7.75119389 5.69734627,9.75142419 3.6,10.4927297 C1.50265373,9.75142419 0,7.75119389 0,5.4 C0,3.04880611 1.50265373,1.04857581 3.6,0.307270274 Z" id="Combined-Shape" fill="#A1674F"></path>
                                </g>
                                <g id="Group-8" transform="translate(3.600000, 3.600000)">
                                    <g id="Group-9">
                                        <path d="M3.3,0 L1.2,0 C1.04644661,8.32667268e-17 0.892893219,0.0292893219 0.748438854,0.0878679656 C0.302207794,0.276471863 -6.08718376e-17,0.702943725 0,1.2 C2.02906125e-17,1.36568542 0.0335786438,1.52352814 0.0943019485,1.66709415 C0.146446609,1.79601551 0.234314575,1.93137085 0.351471863,2.04852814 L1.8363961,3.53345238 L3.3,2.06984848 L3.3,0 Z" id="Combined-Shape" fill="#FFC552"></path>
                                        <path d="M6.6,0 L4.5,0 C4.34644661,8.32667268e-17 4.19289322,0.0292893219 4.04843885,0.0878679656 C3.60220779,0.276471863 3.3,0.702943725 3.3,1.2 C3.3,1.36568542 3.33357864,1.52352814 3.39430195,1.66709415 C3.44644661,1.79601551 3.53431458,1.93137085 3.65147186,2.04852814 L5.1363961,3.53345238 L6.6,2.06984848 L6.6,0 Z" id="Combined-Shape" fill="#F09F2E" transform="translate(4.950000, 1.766726) scale(-1, 1) translate(-4.950000, -1.766726) "></path>
                                        <path d="M3.3,1.2 C2.14020203,1.2 1.2,2.14020203 1.2,3.3 L1.2,3.6 C1.2,4.75979797 2.14020203,5.7 3.3,5.7 C4.45979797,5.7 5.4,4.75979797 5.4,3.6 L5.4,3.3 C5.4,2.14020203 4.45979797,1.2 3.3,1.2 Z" id="Combined-Shape" fill="#FFC552"></path>
                                    </g>
                                </g>
                                <g id="Group-6" transform="translate(0.600000, 3.600000)" fill="#FFC552">
                                    <path d="M1.2,2.4 C0.5372583,2.4 0,1.8627417 0,1.2 C0,0.5372583 0.5372583,0 1.2,0 C1.36568542,-3.04359188e-17 1.5,0.134314575 1.5,0.3 L1.5,2.1 C1.5,2.26568542 1.36568542,2.4 1.2,2.4 Z" id="Combined-Shape"></path>
                                </g>
                                <path d="M11.4,3.6 C10.7372583,3.6 10.2,4.1372583 10.2,4.8 C10.2,5.4627417 10.7372583,6 11.4,6 L11.4,3.6 Z" id="Combined-Shape" fill="#844840" transform="translate(10.800000, 4.800000) scale(-1, 1) translate(-10.800000, -4.800000) "></path>
                            </g>
                        </g>
                        <path d="M49.22825,30.85975 C48.4747462,30.667249 47.8560024,30.4005017 47.372,30.0595 C47.1849991,29.9164993 47.0502504,29.7680008 46.96775,29.614 C46.8852496,29.4599992 46.844,29.2620012 46.844,29.02 C46.844,28.6899983 46.942999,28.4040012 47.141,28.162 C47.339001,27.9199988 47.5699987,27.799 47.834,27.799 C47.9770007,27.799 48.1144993,27.8209998 48.2465,27.865 C48.3785007,27.9090002 48.543499,27.9914994 48.7415,28.1125 C49.1925023,28.3655013 49.6407478,28.5469994 50.08625,28.657 C50.5317522,28.7670005 51.0349972,28.822 51.596,28.822 C52.2450032,28.822 52.7372483,28.725751 53.07275,28.53325 C53.4082517,28.340749 53.576,28.0575019 53.576,27.6835 C53.576,27.4304987 53.4192516,27.2132509 53.10575,27.03175 C52.7922484,26.8502491 52.1955044,26.6715009 51.3155,26.4955 C50.2264946,26.2644988 49.3740031,25.9895016 48.758,25.6705 C48.1419969,25.3514984 47.7102512,24.9747522 47.46275,24.54025 C47.2152488,24.1057478 47.0915,23.5805031 47.0915,22.9645 C47.0915,22.2604965 47.3004979,21.6225029 47.7185,21.0505 C48.1365021,20.4784971 48.7112463,20.0302516 49.44275,19.70575 C50.1742537,19.3812484 50.9964954,19.219 51.9095,19.219 C52.712504,19.219 53.4274969,19.3069991 54.0545,19.483 C54.6815031,19.6590009 55.2534974,19.9339981 55.7705,20.308 C55.968501,20.4510007 56.1087496,20.6022492 56.19125,20.76175 C56.2737504,20.9212508 56.315,21.1164988 56.315,21.3475 C56.315,21.6775016 56.218751,21.9634988 56.02625,22.2055 C55.833749,22.4475012 55.6055013,22.5685 55.3415,22.5685 C55.1984993,22.5685 55.0665006,22.5492502 54.9455,22.51075 C54.8244994,22.4722498 54.6540011,22.3870007 54.434,22.255 C54.3789997,22.2219998 54.2222513,22.1367507 53.96375,21.99925 C53.7052487,21.8617493 53.4027517,21.7517504 53.05625,21.66925 C52.7097483,21.5867496 52.333002,21.5455 51.926,21.5455 C51.3649972,21.5455 50.9140017,21.6527489 50.573,21.86725 C50.2319983,22.0817511 50.0615,22.3649982 50.0615,22.717 C50.0615,22.926001 50.1219994,23.0964993 50.243,23.2285 C50.3640006,23.3605007 50.5894983,23.4897494 50.9195,23.61625 C51.2495016,23.7427506 51.7389968,23.8719993 52.388,24.004 C53.4440053,24.2350012 54.274497,24.5127484 54.8795,24.83725 C55.484503,25.1617516 55.9134987,25.5384979 56.1665,25.9675 C56.4195013,26.3965021 56.546,26.9024971 56.546,27.4855 C56.546,28.2115036 56.342502,28.8522472 55.9355,29.40775 C55.528498,29.9632528 54.9592537,30.3922485 54.22775,30.69475 C53.4962463,30.9972515 52.6465048,31.1485 51.6785,31.1485 C50.7984956,31.1485 49.9817538,31.052251 49.22825,30.85975 Z M65.28275,28.69 C65.4422508,28.888001 65.522,29.1464984 65.522,29.4655 C65.522,29.9055022 65.3075021,30.2409988 64.8785,30.472 C64.5044981,30.6590009 64.0617526,30.8157494 63.55025,30.94225 C63.0387474,31.0687506 62.5685021,31.132 62.1395,31.132 C61.2374955,31.132 60.4510034,30.9615017 59.78,30.6205 C59.1089966,30.2794983 58.5920018,29.7900032 58.229,29.152 C57.8659982,28.5139968 57.6845,27.7660043 57.6845,26.908 C57.6845,26.0939959 57.8577483,25.3652532 58.20425,24.72175 C58.5507517,24.0782468 59.0347469,23.5777518 59.65625,23.22025 C60.2777531,22.8627482 60.9789961,22.684 61.76,22.684 C62.5190038,22.684 63.1844971,22.8489983 63.7565,23.179 C64.3285029,23.5090016 64.7712484,23.976497 65.08475,24.5815 C65.3982516,25.186503 65.555,25.8959959 65.555,26.71 C65.555,26.9630013 65.4972506,27.1582493 65.38175,27.29575 C65.2662494,27.4332507 65.0985011,27.502 64.8785,27.502 L60.5225,27.502 C60.5995004,28.0300026 60.7699987,28.4094988 61.034,28.6405 C61.2980013,28.8715012 61.6884974,28.987 62.2055,28.987 C62.4805014,28.987 62.7334988,28.9567503 62.9645,28.89625 C63.1955012,28.8357497 63.4539986,28.7505005 63.74,28.6405 C63.9050008,28.5744997 64.0672492,28.5167502 64.22675,28.46725 C64.3862508,28.4177498 64.5319993,28.393 64.664,28.393 C64.9170013,28.393 65.1232492,28.491999 65.28275,28.69 Z M60.9185,25.03525 C60.6874988,25.2827512 60.5500002,25.6429976 60.506,26.116 L63.0965,26.116 C63.0304997,25.1479952 62.6125038,24.664 61.8425,24.664 C61.4574981,24.664 61.1495012,24.7877488 60.9185,25.03525 Z M72.9305,22.97275 C73.1505011,23.176251 73.2605,23.475998 73.2605,23.872 C73.2605,24.3120022 73.158751,24.630999 72.95525,24.829 C72.751749,25.027001 72.3860026,25.1534997 71.858,25.2085 L71.363,25.258 C70.8129972,25.3240003 70.4197512,25.4972486 70.18325,25.77775 C69.9467488,26.0582514 69.8285,26.4404976 69.8285,26.9245 L69.8285,29.746 C69.8285,30.1970023 69.6882514,30.5352489 69.40775,30.76075 C69.1272486,30.9862511 68.7780021,31.099 68.36,31.099 C67.9419979,31.099 67.5927514,30.9862511 67.31225,30.76075 C67.0317486,30.5352489 66.8915,30.1970023 66.8915,29.746 L66.8915,24.037 C66.8915,23.6189979 67.0317486,23.2945012 67.31225,23.0635 C67.5927514,22.8324988 67.930998,22.717 68.327,22.717 C68.734002,22.717 69.0612488,22.8269989 69.30875,23.047 C69.5562512,23.2670011 69.68,23.574998 69.68,23.971 L69.68,24.2845 C69.8560009,23.8004976 70.144748,23.4265013 70.54625,23.1625 C70.947752,22.8984987 71.3684978,22.7555001 71.8085,22.7335 L72.0395,22.717 C72.4135019,22.6839998 72.7104989,22.769249 72.9305,22.97275 Z M74.22575,30.76075 C73.9452486,30.5352489 73.805,30.1970023 73.805,29.746 L73.805,24.07 C73.805,23.6189977 73.9452486,23.2807511 74.22575,23.05525 C74.5062514,22.8297489 74.8554979,22.717 75.2735,22.717 C75.6915021,22.717 76.0407486,22.8297489 76.32125,23.05525 C76.6017514,23.2807511 76.742,23.6189977 76.742,24.07 L76.742,29.746 C76.742,30.1970023 76.6017514,30.5352489 76.32125,30.76075 C76.0407486,30.9862511 75.6915021,31.099 75.2735,31.099 C74.8554979,31.099 74.5062514,30.9862511 74.22575,30.76075 Z M74.09375,21.17425 C73.8022485,20.9157487 73.6565,20.5720021 73.6565,20.143 C73.6565,19.7139979 73.8022485,19.3730013 74.09375,19.12 C74.3852515,18.8669987 74.7784975,18.7405 75.2735,18.7405 C75.7575024,18.7405 76.1479985,18.8669987 76.445,19.12 C76.7420015,19.3730013 76.8905,19.7139979 76.8905,20.143 C76.8905,20.5720021 76.7447515,20.9157487 76.45325,21.17425 C76.1617485,21.4327513 75.7685025,21.562 75.2735,21.562 C74.7784975,21.562 74.3852515,21.4327513 74.09375,21.17425 Z M80.18225,30.61225 C79.5057466,30.2657483 78.9832518,29.7735032 78.61475,29.1355 C78.2462482,28.4974968 78.062,27.7495043 78.062,26.8915 C78.062,26.0334957 78.2462482,25.2882532 78.61475,24.65575 C78.9832518,24.0232468 79.5029966,23.5365017 80.174,23.1955 C80.8450034,22.8544983 81.6314955,22.684 82.5335,22.684 C83.4355045,22.684 84.2219966,22.8544983 84.893,23.1955 C85.5640034,23.5365017 86.0837482,24.0232468 86.45225,24.65575 C86.8207518,25.2882532 87.005,26.0334957 87.005,26.8915 C87.005,27.7495043 86.8207518,28.4974968 86.45225,29.1355 C86.0837482,29.7735032 85.5640034,30.2657483 84.893,30.61225 C84.2219966,30.9587517 83.4355045,31.132 82.5335,31.132 C81.6424955,31.132 80.8587534,30.9587517 80.18225,30.61225 Z M84.101,26.8915 C84.101,25.5274932 83.5785052,24.8455 82.5335,24.8455 C81.4884948,24.8455 80.966,25.5274932 80.966,26.8915 C80.966,28.2555068 81.4884948,28.9375 82.5335,28.9375 C83.5785052,28.9375 84.101,28.2555068 84.101,26.8915 Z M96.1295,23.08 C96.3935013,23.3220012 96.5255,23.6519979 96.5255,24.07 L96.5255,29.779 C96.5255,30.1640019 96.3880014,30.4802488 96.113,30.72775 C95.8379986,30.9752512 95.4805022,31.099 95.0405,31.099 C94.644498,31.099 94.3200013,30.9917511 94.067,30.77725 C93.8139987,30.5627489 93.6820001,30.2740018 93.671,29.911 C93.4179987,30.307002 93.096252,30.609499 92.70575,30.8185 C92.315248,31.027501 91.8670025,31.132 91.361,31.132 C90.3159948,31.132 89.5405025,30.8432529 89.0345,30.26575 C88.5284975,29.6882471 88.2755,28.8110059 88.2755,27.634 L88.2755,24.07 C88.2755,23.6519979 88.4074987,23.3220012 88.6715,23.08 C88.9355013,22.8379988 89.2929977,22.717 89.744,22.717 C90.1950023,22.717 90.5524987,22.8379988 90.8165,23.08 C91.0805013,23.3220012 91.2125,23.6519979 91.2125,24.07 L91.2125,27.7 C91.2125,28.492004 91.5534966,28.888 92.2355,28.888 C92.631502,28.888 92.9559987,28.7450014 93.209,28.459 C93.4620013,28.1729986 93.5885,27.7990023 93.5885,27.337 L93.5885,24.07 C93.5885,23.6519979 93.7204987,23.3220012 93.9845,23.08 C94.2485013,22.8379988 94.6059977,22.717 95.057,22.717 C95.5080023,22.717 95.8654987,22.8379988 96.1295,23.08 Z M99.578,30.967 C99.0719975,30.8569994 98.6265019,30.6810012 98.2415,30.439 C98.0874992,30.3619996 97.9665004,30.2300009 97.8785,30.043 C97.7904996,29.8559991 97.7465,29.6470012 97.7465,29.416 C97.7465,29.1189985 97.8262492,28.874251 97.98575,28.68175 C98.1452508,28.489249 98.3459988,28.393 98.588,28.393 C98.7530008,28.393 98.9069993,28.4122498 99.05,28.45075 C99.1930007,28.4892502 99.368999,28.5524996 99.578,28.6405 C99.9300018,28.7615006 100.240749,28.8549997 100.51025,28.921 C100.779751,28.9870003 101.123498,29.02 101.5415,29.02 C101.838501,29.02 102.072249,28.9787504 102.24275,28.89625 C102.413251,28.8137496 102.4985,28.6955008 102.4985,28.5415 C102.4985,28.4204994 102.45725,28.3270003 102.37475,28.261 C102.29225,28.1949997 102.135501,28.1317503 101.9045,28.07125 C101.673499,28.0107497 101.283003,27.9255005 100.733,27.8155 C99.7539951,27.6284991 99.0472522,27.3452519 98.61275,26.96575 C98.1782478,26.5862481 97.961,26.0500035 97.961,25.357 C97.961,24.8509975 98.1177484,24.394502 98.43125,23.9875 C98.7447516,23.580498 99.1764973,23.2615012 99.7265,23.0305 C100.276503,22.7994988 100.892497,22.684 101.5745,22.684 C102.069502,22.684 102.550748,22.7444994 103.01825,22.8655 C103.485752,22.9865006 103.900998,23.1569989 104.264,23.377 C104.605002,23.575001 104.7755,23.8939978 104.7755,24.334 C104.7755,24.6420015 104.693001,24.900499 104.528,25.1095 C104.362999,25.318501 104.159501,25.423 103.9175,25.423 C103.631499,25.423 103.290502,25.3295009 102.8945,25.1425 C102.630499,25.0214994 102.396751,24.9307503 102.19325,24.87025 C101.989749,24.8097497 101.750501,24.7795 101.4755,24.7795 C101.200499,24.7795 100.986001,24.8207496 100.832,24.90325 C100.677999,24.9857504 100.601,25.1039992 100.601,25.258 C100.601,25.4340009 100.708249,25.5714995 100.92275,25.6705 C101.137251,25.7695005 101.563497,25.8794994 102.2015,26.0005 C103.268505,26.1875009 104.021998,26.4707481 104.462,26.85025 C104.902002,27.2297519 105.122,27.7769964 105.122,28.492 C105.122,29.295004 104.789253,29.9357476 104.12375,30.41425 C103.458247,30.8927524 102.564506,31.132 101.4425,31.132 C100.705496,31.132 100.084003,31.0770005 99.578,30.967 Z M58.658,31.6975 C58.9220013,31.9725014 59.054,32.3299978 59.054,32.77 L59.054,41.746 C59.054,42.1640021 58.9330012,42.4939988 58.691,42.736 C58.4489988,42.9780012 58.130002,43.099 57.734,43.099 C57.3489981,43.099 57.0327512,42.9780012 56.78525,42.736 C56.5377488,42.4939988 56.414,42.1640021 56.414,41.746 L56.414,36.895 L54.533,40.36 C54.3459991,40.7120018 54.148001,40.9622493 53.939,41.11075 C53.729999,41.2592507 53.4825014,41.3335 53.1965,41.3335 C52.9104986,41.3335 52.663001,41.2592507 52.454,41.11075 C52.244999,40.9622493 52.0470009,40.7120018 51.86,40.36 L49.9955,36.994 L49.9955,41.746 C49.9955,42.153002 49.8717512,42.4802488 49.62425,42.72775 C49.3767488,42.9752512 49.055002,43.099 48.659,43.099 C48.2739981,43.099 47.9577512,42.9780012 47.71025,42.736 C47.4627488,42.4939988 47.339,42.1640021 47.339,41.746 L47.339,32.77 C47.339,32.3299978 47.4737487,31.9725014 47.74325,31.6975 C48.0127513,31.4224986 48.3564979,31.285 48.7745,31.285 C49.0715015,31.285 49.3409988,31.3702491 49.583,31.54075 C49.8250012,31.7112509 50.0284992,31.9559984 50.1935,32.275 L53.2295,37.984 L56.249,32.275 C56.5900017,31.6149967 57.0519971,31.285 57.635,31.285 C58.0530021,31.285 58.3939987,31.4224986 58.658,31.6975 Z M62.74175,42.61225 C62.0652466,42.2657483 61.5427518,41.7735032 61.17425,41.1355 C60.8057482,40.4974968 60.6215,39.7495043 60.6215,38.8915 C60.6215,38.0334957 60.8057482,37.2882532 61.17425,36.65575 C61.5427518,36.0232468 62.0624966,35.5365017 62.7335,35.1955 C63.4045034,34.8544983 64.1909955,34.684 65.093,34.684 C65.9950045,34.684 66.7814966,34.8544983 67.4525,35.1955 C68.1235034,35.5365017 68.6432482,36.0232468 69.01175,36.65575 C69.3802518,37.2882532 69.5645,38.0334957 69.5645,38.8915 C69.5645,39.7495043 69.3802518,40.4974968 69.01175,41.1355 C68.6432482,41.7735032 68.1235034,42.2657483 67.4525,42.61225 C66.7814966,42.9587517 65.9950045,43.132 65.093,43.132 C64.2019955,43.132 63.4182534,42.9587517 62.74175,42.61225 Z M66.6605,38.8915 C66.6605,37.5274932 66.1380052,36.8455 65.093,36.8455 C64.0479948,36.8455 63.5255,37.5274932 63.5255,38.8915 C63.5255,40.2555068 64.0479948,40.9375 65.093,40.9375 C66.1380052,40.9375 66.6605,40.2555068 66.6605,38.8915 Z M78.524,35.55025 C78.9970024,36.1277529 79.2335,37.0049941 79.2335,38.182 L79.2335,41.746 C79.2335,42.1640021 79.1015013,42.4939988 78.8375,42.736 C78.5734987,42.9780012 78.2160023,43.099 77.765,43.099 C77.3139977,43.099 76.9565013,42.9780012 76.6925,42.736 C76.4284987,42.4939988 76.2965,42.1640021 76.2965,41.746 L76.2965,38.314 C76.2965,37.8299976 76.2112509,37.4780011 76.04075,37.258 C75.8702491,37.0379989 75.6145017,36.928 75.2735,36.928 C74.8334978,36.928 74.4842513,37.0682486 74.22575,37.34875 C73.9672487,37.6292514 73.838,38.0059976 73.838,38.479 L73.838,41.746 C73.838,42.1640021 73.7060013,42.4939988 73.442,42.736 C73.1779987,42.9780012 72.8205023,43.099 72.3695,43.099 C71.9184977,43.099 71.5610013,42.9780012 71.297,42.736 C71.0329987,42.4939988 70.901,42.1640021 70.901,41.746 L70.901,36.037 C70.901,35.6519981 71.0384986,35.3357512 71.3135,35.08825 C71.5885014,34.8407488 71.9459978,34.717 72.386,34.717 C72.8040021,34.717 73.1367488,34.8324988 73.38425,35.0635 C73.6317512,35.2945012 73.7555,35.5969981 73.7555,35.971 C74.0415014,35.5529979 74.4099977,35.2340011 74.861,35.014 C75.3120023,34.7939989 75.8124973,34.684 76.3625,34.684 C77.3305048,34.684 78.0509976,34.9727471 78.524,35.55025 Z M89.414,41.68 C89.414,42.0430018 89.2847513,42.3674986 89.02625,42.6535 C88.7677487,42.9395014 88.4570018,43.0825 88.094,43.0825 C87.7859985,43.0825 87.4780015,42.9450014 87.17,42.67 L83.8205,39.4855 L83.8205,41.713 C83.8205,42.1640023 83.6802514,42.5049988 83.39975,42.736 C83.1192486,42.9670012 82.7700021,43.0825 82.352,43.0825 C81.9339979,43.0825 81.5847514,42.9670012 81.30425,42.736 C81.0237486,42.5049988 80.8835,42.1640023 80.8835,41.713 L80.8835,32.6545 C80.8835,32.2034977 81.0237486,31.8625012 81.30425,31.6315 C81.5847514,31.4004988 81.9339979,31.285 82.352,31.285 C82.7700021,31.285 83.1192486,31.4004988 83.39975,31.6315 C83.6802514,31.8625012 83.8205,32.2034977 83.8205,32.6545 L83.8205,38.248 L86.873,35.146 C87.1480014,34.8599986 87.4669982,34.717 87.83,34.717 C88.1820018,34.717 88.4927487,34.8517487 88.76225,35.12125 C89.0317513,35.3907513 89.1665,35.6959983 89.1665,36.037 C89.1665,36.3780017 89.0235014,36.6914986 88.7375,36.9775 L86.939,38.7595 L88.985,40.723 C89.2710014,40.9980014 89.414,41.3169982 89.414,41.68 Z M97.67225,40.69 C97.8317508,40.888001 97.9115,41.1464984 97.9115,41.4655 C97.9115,41.9055022 97.6970021,42.2409988 97.268,42.472 C96.8939981,42.6590009 96.4512526,42.8157494 95.93975,42.94225 C95.4282474,43.0687506 94.9580021,43.132 94.529,43.132 C93.6269955,43.132 92.8405034,42.9615017 92.1695,42.6205 C91.4984966,42.2794983 90.9815018,41.7900032 90.6185,41.152 C90.2554982,40.5139968 90.074,39.7660043 90.074,38.908 C90.074,38.0939959 90.2472483,37.3652532 90.59375,36.72175 C90.9402517,36.0782468 91.4242469,35.5777518 92.04575,35.22025 C92.6672531,34.8627482 93.3684961,34.684 94.1495,34.684 C94.9085038,34.684 95.5739971,34.8489983 96.146,35.179 C96.7180029,35.5090016 97.1607484,35.976497 97.47425,36.5815 C97.7877516,37.186503 97.9445,37.8959959 97.9445,38.71 C97.9445,38.9630013 97.8867506,39.1582493 97.77125,39.29575 C97.6557494,39.4332507 97.4880011,39.502 97.268,39.502 L92.912,39.502 C92.9890004,40.0300026 93.1594987,40.4094988 93.4235,40.6405 C93.6875013,40.8715012 94.0779974,40.987 94.595,40.987 C94.8700014,40.987 95.1229988,40.9567503 95.354,40.89625 C95.5850012,40.8357497 95.8434986,40.7505005 96.1295,40.6405 C96.2945008,40.5744997 96.4567492,40.5167502 96.61625,40.46725 C96.7757508,40.4177498 96.9214993,40.393 97.0535,40.393 C97.3065013,40.393 97.5127492,40.491999 97.67225,40.69 Z M93.308,37.03525 C93.0769988,37.2827512 92.9395002,37.6429976 92.8955,38.116 L95.486,38.116 C95.4199997,37.1479952 95.0020038,36.664 94.232,36.664 C93.8469981,36.664 93.5390012,36.7877488 93.308,37.03525 Z M105.2045,34.9315 C105.413501,34.7994993 105.644499,34.7335 105.8975,34.7335 C106.260502,34.7335 106.584999,34.8544988 106.871,35.0965 C107.157001,35.3385012 107.3,35.6299983 107.3,35.971 C107.3,36.1580009 107.256,36.3394991 107.168,36.5155 L102.7955,45.277 C102.663499,45.5520014 102.490251,45.7554993 102.27575,45.8875 C102.061249,46.0195007 101.827501,46.0855 101.5745,46.0855 C101.211498,46.0855 100.889751,45.9672512 100.60925,45.73075 C100.328749,45.4942488 100.1885,45.2055017 100.1885,44.8645 C100.1885,44.6774991 100.238,44.485001 100.337,44.287 L101.4095,42.1255 L98.6045,36.5155 C98.5164996,36.317499 98.4725,36.1415008 98.4725,35.9875 C98.4725,35.6354982 98.6264985,35.3357512 98.9345,35.08825 C99.2425015,34.8407488 99.5889981,34.717 99.974,34.717 C100.238001,34.717 100.482749,34.7857493 100.70825,34.92325 C100.933751,35.0607507 101.106999,35.2669986 101.228,35.542 L102.977,39.337 L104.7095,35.542 C104.830501,35.2669986 104.995499,35.0635007 105.2045,34.9315 Z" id="Serious-Monkey" fill="#3E3C5C"></path>
                    </g>
                </g>
            </g>
        </g>
    </g>
</svg>